<svg width="23" height="23" viewBox="0 0 23 23" fill="none" xmlns="http://www.w3.org/2000/svg">
<path fill-rule="evenodd" clip-rule="evenodd" d="M1.18606 1.20203C1.62683 0.752443 2.34861 0.745297 2.79819 1.18606L11.5001 9.71736L20.202 1.18606C20.6516 0.745297 21.3734 0.752443 21.8141 1.20203C22.2549 1.65161 22.2478 2.37338 21.7982 2.81415L12.8302 11.6063C12.0914 12.3306 10.9088 12.3306 10.17 11.6063L1.20203 2.81415C0.752443 2.37338 0.745297 1.65161 1.18606 1.20203Z" fill="#333333"/>
<path fill-rule="evenodd" clip-rule="evenodd" d="M21.8142 21.798C21.3734 22.2476 20.6516 22.2547 20.2021 21.8139L11.5001 13.2826L2.79822 21.8139C2.34863 22.2547 1.62686 22.2476 1.18609 21.798C0.745327 21.3484 0.752472 20.6266 1.20206 20.1858L10.17 11.3937C10.9088 10.6694 12.0914 10.6694 12.8303 11.3937L21.7982 20.1858C22.2478 20.6266 22.2549 21.3484 21.8142 21.798Z" fill="#333333"/>
</svg>
