<svg width="26" height="27" viewBox="0 0 26 27" fill="none" xmlns="http://www.w3.org/2000/svg">
<g opacity="0.26">
<mask id="mask0_444_209" style="mask-type:luminance" maskUnits="userSpaceOnUse" x="10" y="0" width="4" height="3">
<path d="M11.4295 2.83959C11.962 2.73311 12.5121 2.64437 13.08 2.62662V0C12.2814 0.0354949 11.5005 0.141982 10.7551 0.301709L11.4295 2.83959Z" fill="white"/>
</mask>
<g mask="url(#mask0_444_209)">
<path d="M11.2165 0H10.7373V2.83959H11.2165V0Z" fill="#35ABF9"/>
</g>
<mask id="mask1_444_209" style="mask-type:luminance" maskUnits="userSpaceOnUse" x="10" y="0" width="4" height="3">
<path d="M11.4295 2.83959C11.962 2.73311 12.5121 2.64437 13.08 2.62662V0C12.2814 0.0354949 11.5005 0.141982 10.7551 0.301709L11.4295 2.83959Z" fill="white"/>
</mask>
<g mask="url(#mask1_444_209)">
<path d="M11.8197 0H11.2163V2.83959H11.8197V0Z" fill="#34ACFA"/>
</g>
<mask id="mask2_444_209" style="mask-type:luminance" maskUnits="userSpaceOnUse" x="10" y="0" width="4" height="3">
<path d="M11.4295 2.83959C11.962 2.73311 12.5121 2.64437 13.08 2.62662V0C12.2814 0.0354949 11.5005 0.141982 10.7551 0.301709L11.4295 2.83959Z" fill="white"/>
</mask>
<g mask="url(#mask2_444_209)">
<path d="M12.4235 0H11.8201V2.83959H12.4235V0Z" fill="#33ADFA"/>
</g>
<mask id="mask3_444_209" style="mask-type:luminance" maskUnits="userSpaceOnUse" x="10" y="0" width="4" height="3">
<path d="M11.4295 2.83959C11.962 2.73311 12.5121 2.64437 13.08 2.62662V0C12.2814 0.0354949 11.5005 0.141982 10.7551 0.301709L11.4295 2.83959Z" fill="white"/>
</mask>
<g mask="url(#mask3_444_209)">
<path d="M13.0443 0H12.4409V2.83959H13.0443V0Z" fill="#32AEFA"/>
</g>
<mask id="mask4_444_209" style="mask-type:luminance" maskUnits="userSpaceOnUse" x="10" y="0" width="4" height="3">
<path d="M11.4295 2.83959C11.962 2.73311 12.5121 2.64437 13.08 2.62662V0C12.2814 0.0354949 11.5005 0.141982 10.7551 0.301709L11.4295 2.83959Z" fill="white"/>
</mask>
<g mask="url(#mask4_444_209)">
<path d="M13.0802 0H13.0447V2.83959H13.0802V0Z" fill="#31AEFB"/>
</g>
</g>
<g opacity="0.26">
<mask id="mask5_444_209" style="mask-type:luminance" maskUnits="userSpaceOnUse" x="4" y="1" width="4" height="5">
<path d="M6.05196 5.25325C6.46015 4.88055 6.90384 4.54335 7.36527 4.24164L6.05196 1.96997C5.3953 2.39591 4.77414 2.87509 4.18848 3.40751L6.05196 5.25325Z" fill="white"/>
</mask>
<g mask="url(#mask5_444_209)">
<path d="M4.57892 1.95215H4.18848V5.23542H4.57892V1.95215Z" fill="#3FA2F5"/>
</g>
<mask id="mask6_444_209" style="mask-type:luminance" maskUnits="userSpaceOnUse" x="4" y="1" width="4" height="5">
<path d="M6.05196 5.25325C6.46015 4.88055 6.90384 4.54335 7.36527 4.24164L6.05196 1.96997C5.3953 2.39591 4.77414 2.87509 4.18848 3.40751L6.05196 5.25325Z" fill="white"/>
</mask>
<g mask="url(#mask6_444_209)">
<path d="M5.18227 1.95215H4.57886V5.23542H5.18227V1.95215Z" fill="#3EA3F6"/>
</g>
<mask id="mask7_444_209" style="mask-type:luminance" maskUnits="userSpaceOnUse" x="4" y="1" width="4" height="5">
<path d="M6.05196 5.25325C6.46015 4.88055 6.90384 4.54335 7.36527 4.24164L6.05196 1.96997C5.3953 2.39591 4.77414 2.87509 4.18848 3.40751L6.05196 5.25325Z" fill="white"/>
</mask>
<g mask="url(#mask7_444_209)">
<path d="M5.78578 1.95215H5.18237V5.23542H5.78578V1.95215Z" fill="#3DA4F6"/>
</g>
<mask id="mask8_444_209" style="mask-type:luminance" maskUnits="userSpaceOnUse" x="4" y="1" width="4" height="5">
<path d="M6.05196 5.25325C6.46015 4.88055 6.90384 4.54335 7.36527 4.24164L6.05196 1.96997C5.3953 2.39591 4.77414 2.87509 4.18848 3.40751L6.05196 5.25325Z" fill="white"/>
</mask>
<g mask="url(#mask8_444_209)">
<path d="M6.40688 1.95215H5.80347V5.23542H6.40688V1.95215Z" fill="#3CA5F6"/>
</g>
<mask id="mask9_444_209" style="mask-type:luminance" maskUnits="userSpaceOnUse" x="4" y="1" width="4" height="5">
<path d="M6.05196 5.25325C6.46015 4.88055 6.90384 4.54335 7.36527 4.24164L6.05196 1.96997C5.3953 2.39591 4.77414 2.87509 4.18848 3.40751L6.05196 5.25325Z" fill="white"/>
</mask>
<g mask="url(#mask9_444_209)">
<path d="M7.0104 1.95215H6.40698V5.23542H7.0104V1.95215Z" fill="#3BA6F7"/>
</g>
<mask id="mask10_444_209" style="mask-type:luminance" maskUnits="userSpaceOnUse" x="4" y="1" width="4" height="5">
<path d="M6.05196 5.25325C6.46015 4.88055 6.90384 4.54335 7.36527 4.24164L6.05196 1.96997C5.3953 2.39591 4.77414 2.87509 4.18848 3.40751L6.05196 5.25325Z" fill="white"/>
</mask>
<g mask="url(#mask10_444_209)">
<path d="M7.36545 1.95215H7.0105V5.23542H7.36545V1.95215Z" fill="#3AA7F7"/>
</g>
</g>
<g opacity="0.26">
<mask id="mask11_444_209" style="mask-type:luminance" maskUnits="userSpaceOnUse" x="7" y="0" width="4" height="4">
<path d="M8.62532 3.58499C9.12225 3.33653 9.63693 3.12356 10.1516 2.94608L9.4772 0.408203C8.71406 0.63892 8.00416 0.940622 7.31201 1.31332L8.62532 3.58499Z" fill="white"/>
</mask>
<g mask="url(#mask11_444_209)">
<path d="M7.34751 0.408203H7.31201V3.58499H7.34751V0.408203Z" fill="#3BA6F7"/>
</g>
<mask id="mask12_444_209" style="mask-type:luminance" maskUnits="userSpaceOnUse" x="7" y="0" width="4" height="4">
<path d="M8.62532 3.58499C9.12225 3.33653 9.63693 3.12356 10.1516 2.94608L9.4772 0.408203C8.71406 0.63892 8.00416 0.940622 7.31201 1.31332L8.62532 3.58499Z" fill="white"/>
</mask>
<g mask="url(#mask12_444_209)">
<path d="M7.95083 0.408203H7.34741V3.58499H7.95083V0.408203Z" fill="#3AA7F7"/>
</g>
<mask id="mask13_444_209" style="mask-type:luminance" maskUnits="userSpaceOnUse" x="7" y="0" width="4" height="4">
<path d="M8.62532 3.58499C9.12225 3.33653 9.63693 3.12356 10.1516 2.94608L9.4772 0.408203C8.71406 0.63892 8.00416 0.940622 7.31201 1.31332L8.62532 3.58499Z" fill="white"/>
</mask>
<g mask="url(#mask13_444_209)">
<path d="M8.55434 0.408203H7.95093V3.58499H8.55434V0.408203Z" fill="#39A8F8"/>
</g>
<mask id="mask14_444_209" style="mask-type:luminance" maskUnits="userSpaceOnUse" x="7" y="0" width="4" height="4">
<path d="M8.62532 3.58499C9.12225 3.33653 9.63693 3.12356 10.1516 2.94608L9.4772 0.408203C8.71406 0.63892 8.00416 0.940622 7.31201 1.31332L8.62532 3.58499Z" fill="white"/>
</mask>
<g mask="url(#mask14_444_209)">
<path d="M9.15786 0.408203H8.55444V3.58499H9.15786V0.408203Z" fill="#38A8F8"/>
</g>
<mask id="mask15_444_209" style="mask-type:luminance" maskUnits="userSpaceOnUse" x="7" y="0" width="4" height="4">
<path d="M8.62532 3.58499C9.12225 3.33653 9.63693 3.12356 10.1516 2.94608L9.4772 0.408203C8.71406 0.63892 8.00416 0.940622 7.31201 1.31332L8.62532 3.58499Z" fill="white"/>
</mask>
<g mask="url(#mask15_444_209)">
<path d="M9.76113 0.408203H9.15771V3.58499H9.76113V0.408203Z" fill="#37A9F8"/>
</g>
<mask id="mask16_444_209" style="mask-type:luminance" maskUnits="userSpaceOnUse" x="7" y="0" width="4" height="4">
<path d="M8.62532 3.58499C9.12225 3.33653 9.63693 3.12356 10.1516 2.94608L9.4772 0.408203C8.71406 0.63892 8.00416 0.940622 7.31201 1.31332L8.62532 3.58499Z" fill="white"/>
</mask>
<g mask="url(#mask16_444_209)">
<path d="M10.1514 0.408203H9.76099V3.58499H10.1514V0.408203Z" fill="#36AAF9"/>
</g>
</g>
<g opacity="0.26">
<mask id="mask17_444_209" style="mask-type:luminance" maskUnits="userSpaceOnUse" x="1" y="4" width="5" height="4">
<path d="M4.27721 7.31204C4.57892 6.85061 4.91612 6.40693 5.28882 5.99874L3.42534 4.13525C2.89291 4.70317 2.41373 5.32433 1.98779 5.99874L4.27721 7.31204Z" fill="white"/>
</mask>
<g mask="url(#mask17_444_209)">
<path d="M2.14759 4.13525H2.00562V7.31204H2.14759V4.13525Z" fill="#439FF3"/>
</g>
<mask id="mask18_444_209" style="mask-type:luminance" maskUnits="userSpaceOnUse" x="1" y="4" width="5" height="4">
<path d="M4.27721 7.31204C4.57892 6.85061 4.91612 6.40693 5.28882 5.99874L3.42534 4.13525C2.89291 4.70317 2.41373 5.32433 1.98779 5.99874L4.27721 7.31204Z" fill="white"/>
</mask>
<g mask="url(#mask18_444_209)">
<path d="M2.75112 4.13525H2.14771V7.31204H2.75112V4.13525Z" fill="#42A0F4"/>
</g>
<mask id="mask19_444_209" style="mask-type:luminance" maskUnits="userSpaceOnUse" x="1" y="4" width="5" height="4">
<path d="M4.27721 7.31204C4.57892 6.85061 4.91612 6.40693 5.28882 5.99874L3.42534 4.13525C2.89291 4.70317 2.41373 5.32433 1.98779 5.99874L4.27721 7.31204Z" fill="white"/>
</mask>
<g mask="url(#mask19_444_209)">
<path d="M3.37221 4.13525H2.7688V7.31204H3.37221V4.13525Z" fill="#41A1F4"/>
</g>
<mask id="mask20_444_209" style="mask-type:luminance" maskUnits="userSpaceOnUse" x="1" y="4" width="5" height="4">
<path d="M4.27721 7.31204C4.57892 6.85061 4.91612 6.40693 5.28882 5.99874L3.42534 4.13525C2.89291 4.70317 2.41373 5.32433 1.98779 5.99874L4.27721 7.31204Z" fill="white"/>
</mask>
<g mask="url(#mask20_444_209)">
<path d="M3.97548 4.13525H3.37207V7.31204H3.97548V4.13525Z" fill="#40A2F5"/>
</g>
<mask id="mask21_444_209" style="mask-type:luminance" maskUnits="userSpaceOnUse" x="1" y="4" width="5" height="4">
<path d="M4.27721 7.31204C4.57892 6.85061 4.91612 6.40693 5.28882 5.99874L3.42534 4.13525C2.89291 4.70317 2.41373 5.32433 1.98779 5.99874L4.27721 7.31204Z" fill="white"/>
</mask>
<g mask="url(#mask21_444_209)">
<path d="M4.57876 4.13525H3.97534V7.31204H4.57876V4.13525Z" fill="#3FA2F5"/>
</g>
<mask id="mask22_444_209" style="mask-type:luminance" maskUnits="userSpaceOnUse" x="1" y="4" width="5" height="4">
<path d="M4.27721 7.31204C4.57892 6.85061 4.91612 6.40693 5.28882 5.99874L3.42534 4.13525C2.89291 4.70317 2.41373 5.32433 1.98779 5.99874L4.27721 7.31204Z" fill="white"/>
</mask>
<g mask="url(#mask22_444_209)">
<path d="M5.18227 4.13525H4.57886V7.31204H5.18227V4.13525Z" fill="#3EA3F6"/>
</g>
<mask id="mask23_444_209" style="mask-type:luminance" maskUnits="userSpaceOnUse" x="1" y="4" width="5" height="4">
<path d="M4.27721 7.31204C4.57892 6.85061 4.91612 6.40693 5.28882 5.99874L3.42534 4.13525C2.89291 4.70317 2.41373 5.32433 1.98779 5.99874L4.27721 7.31204Z" fill="white"/>
</mask>
<g mask="url(#mask23_444_209)">
<path d="M5.28886 4.13525H5.18237V7.31204H5.28886V4.13525Z" fill="#3DA4F6"/>
</g>
</g>
<g opacity="0.26">
<mask id="mask24_444_209" style="mask-type:luminance" maskUnits="userSpaceOnUse" x="0" y="10" width="3" height="3">
<path d="M2.62662 12.4587C2.66212 11.8908 2.73311 11.3406 2.83959 10.8082L0.301706 10.1338C0.141979 10.8792 0.0354949 11.6601 0 12.4587H2.62662Z" fill="white"/>
</mask>
<g mask="url(#mask24_444_209)">
<path d="M0.3372 10.1338H0V12.4587H0.3372V10.1338Z" fill="#469CF2"/>
</g>
<mask id="mask25_444_209" style="mask-type:luminance" maskUnits="userSpaceOnUse" x="0" y="10" width="3" height="3">
<path d="M2.62662 12.4587C2.66212 11.8908 2.73311 11.3406 2.83959 10.8082L0.301706 10.1338C0.141979 10.8792 0.0354949 11.6601 0 12.4587H2.62662Z" fill="white"/>
</mask>
<g mask="url(#mask25_444_209)">
<path d="M0.940573 10.1338H0.337158V12.4587H0.940573V10.1338Z" fill="#459DF3"/>
</g>
<mask id="mask26_444_209" style="mask-type:luminance" maskUnits="userSpaceOnUse" x="0" y="10" width="3" height="3">
<path d="M2.62662 12.4587C2.66212 11.8908 2.73311 11.3406 2.83959 10.8082L0.301706 10.1338C0.141979 10.8792 0.0354949 11.6601 0 12.4587H2.62662Z" fill="white"/>
</mask>
<g mask="url(#mask26_444_209)">
<path d="M1.54384 10.1338H0.94043V12.4587H1.54384V10.1338Z" fill="#449EF3"/>
</g>
<mask id="mask27_444_209" style="mask-type:luminance" maskUnits="userSpaceOnUse" x="0" y="10" width="3" height="3">
<path d="M2.62662 12.4587C2.66212 11.8908 2.73311 11.3406 2.83959 10.8082L0.301706 10.1338C0.141979 10.8792 0.0354949 11.6601 0 12.4587H2.62662Z" fill="white"/>
</mask>
<g mask="url(#mask27_444_209)">
<path d="M2.1476 10.1338H1.54419V12.4587H2.1476V10.1338Z" fill="#439FF3"/>
</g>
<mask id="mask28_444_209" style="mask-type:luminance" maskUnits="userSpaceOnUse" x="0" y="10" width="3" height="3">
<path d="M2.62662 12.4587C2.66212 11.8908 2.73311 11.3406 2.83959 10.8082L0.301706 10.1338C0.141979 10.8792 0.0354949 11.6601 0 12.4587H2.62662Z" fill="white"/>
</mask>
<g mask="url(#mask28_444_209)">
<path d="M2.75112 10.1338H2.14771V12.4587H2.75112V10.1338Z" fill="#42A0F4"/>
</g>
<mask id="mask29_444_209" style="mask-type:luminance" maskUnits="userSpaceOnUse" x="0" y="10" width="3" height="3">
<path d="M2.62662 12.4587C2.66212 11.8908 2.73311 11.3406 2.83959 10.8082L0.301706 10.1338C0.141979 10.8792 0.0354949 11.6601 0 12.4587H2.62662Z" fill="white"/>
</mask>
<g mask="url(#mask29_444_209)">
<path d="M2.83979 10.1338H2.7688V12.4587H2.83979V10.1338Z" fill="#41A1F4"/>
</g>
</g>
<g opacity="0.26">
<mask id="mask30_444_209" style="mask-type:luminance" maskUnits="userSpaceOnUse" x="0" y="6" width="4" height="4">
<path d="M3.10576 9.7788C3.28323 9.24638 3.4962 8.7317 3.74466 8.25252L1.47299 6.93921C1.11804 7.63136 0.816335 8.35901 0.567871 9.1044L3.10576 9.7788Z" fill="white"/>
</mask>
<g mask="url(#mask30_444_209)">
<path d="M0.940568 6.92139H0.567871V9.77873H0.940568V6.92139Z" fill="#459DF3"/>
</g>
<mask id="mask31_444_209" style="mask-type:luminance" maskUnits="userSpaceOnUse" x="0" y="6" width="4" height="4">
<path d="M3.10576 9.7788C3.28323 9.24638 3.4962 8.7317 3.74466 8.25252L1.47299 6.93921C1.11804 7.63136 0.816335 8.35901 0.567871 9.1044L3.10576 9.7788Z" fill="white"/>
</mask>
<g mask="url(#mask31_444_209)">
<path d="M1.54384 6.92139H0.94043V9.77873H1.54384V6.92139Z" fill="#449EF3"/>
</g>
<mask id="mask32_444_209" style="mask-type:luminance" maskUnits="userSpaceOnUse" x="0" y="6" width="4" height="4">
<path d="M3.10576 9.7788C3.28323 9.24638 3.4962 8.7317 3.74466 8.25252L1.47299 6.93921C1.11804 7.63136 0.816335 8.35901 0.567871 9.1044L3.10576 9.7788Z" fill="white"/>
</mask>
<g mask="url(#mask32_444_209)">
<path d="M2.1476 6.92139H1.54419V9.77873H2.1476V6.92139Z" fill="#439FF3"/>
</g>
<mask id="mask33_444_209" style="mask-type:luminance" maskUnits="userSpaceOnUse" x="0" y="6" width="4" height="4">
<path d="M3.10576 9.7788C3.28323 9.24638 3.4962 8.7317 3.74466 8.25252L1.47299 6.93921C1.11804 7.63136 0.816335 8.35901 0.567871 9.1044L3.10576 9.7788Z" fill="white"/>
</mask>
<g mask="url(#mask33_444_209)">
<path d="M2.75112 6.92139H2.14771V9.77873H2.75112V6.92139Z" fill="#42A0F4"/>
</g>
<mask id="mask34_444_209" style="mask-type:luminance" maskUnits="userSpaceOnUse" x="0" y="6" width="4" height="4">
<path d="M3.10576 9.7788C3.28323 9.24638 3.4962 8.7317 3.74466 8.25252L1.47299 6.93921C1.11804 7.63136 0.816335 8.35901 0.567871 9.1044L3.10576 9.7788Z" fill="white"/>
</mask>
<g mask="url(#mask34_444_209)">
<path d="M3.37221 6.92139H2.7688V9.77873H3.37221V6.92139Z" fill="#41A1F4"/>
</g>
<mask id="mask35_444_209" style="mask-type:luminance" maskUnits="userSpaceOnUse" x="0" y="6" width="4" height="4">
<path d="M3.10576 9.7788C3.28323 9.24638 3.4962 8.7317 3.74466 8.25252L1.47299 6.93921C1.11804 7.63136 0.816335 8.35901 0.567871 9.1044L3.10576 9.7788Z" fill="white"/>
</mask>
<g mask="url(#mask35_444_209)">
<path d="M3.74476 6.92139H3.37207V9.77873H3.74476V6.92139Z" fill="#40A2F5"/>
</g>
</g>
<path d="M2.83959 15.1739C2.73311 14.6415 2.64437 14.0914 2.62662 13.5234H0C0.0354949 14.3221 0.141979 15.103 0.301706 15.8484L2.83959 15.1739Z" fill="#16DBCC"/>
<path d="M3.74466 17.7296C3.4962 17.2327 3.28323 16.718 3.10576 16.2034L0.567871 16.8778C0.798588 17.6409 1.1003 18.3508 1.47299 19.043L3.74466 17.7296Z" fill="#16DBCC"/>
<path d="M20.0194 20.729C19.6112 21.1017 19.1675 21.4389 18.7061 21.7406L20.0194 24.0123C20.676 23.5863 21.2972 23.1072 21.8828 22.5747L20.0194 20.729Z" fill="#16DBCC"/>
<path d="M22.9653 16.2034C22.7879 16.7358 22.5749 17.2505 22.3264 17.7296L24.5981 19.043C24.953 18.3508 25.2547 17.6232 25.5032 16.8778L22.9653 16.2034Z" fill="#16DBCC"/>
<path d="M17.7831 22.2729C17.2862 22.5214 16.7715 22.7344 16.2568 22.9119L16.9312 25.4497C17.6944 25.219 18.4043 24.9173 19.0964 24.5446L17.7831 22.2729Z" fill="#16DBCC"/>
<path d="M23.3734 13.9495C23.3379 14.5174 23.2669 15.0675 23.1604 15.6L25.6983 16.2744C25.858 15.529 25.9645 14.7481 26 13.9495H23.3734Z" fill="#16DBCC"/>
<path d="M21.7941 18.6526C21.4924 19.114 21.1552 19.5577 20.7825 19.9659L22.646 21.8294C23.1784 21.2615 23.6576 20.6403 24.0835 19.9659L21.7941 18.6526Z" fill="#16DBCC"/>
<path d="M7.36527 21.7406C6.90384 21.4389 6.46015 21.1017 6.05196 20.729L4.18848 22.5925C4.75639 23.1249 5.37756 23.6041 6.05196 24.03L7.36527 21.7406Z" fill="#16DBCC"/>
<path d="M5.28889 19.9659C4.9162 19.5577 4.57899 19.114 4.27729 18.6526L2.00562 19.9659C2.43155 20.6226 2.91073 21.2437 3.44316 21.8294L5.28889 19.9659Z" fill="#16DBCC"/>
<path d="M12.4943 23.4088C11.9264 23.3733 11.3763 23.3023 10.8438 23.1958L10.1694 25.7337C10.9148 25.8934 11.6957 25.9999 12.4943 26.0354V23.4088Z" fill="#16DBCC"/>
<path d="M9.83202 22.9119C9.2996 22.7344 8.78492 22.5214 8.30574 22.2729L6.99243 24.5446C7.68458 24.8996 8.41223 25.2013 9.15762 25.4497L9.83202 22.9119Z" fill="#16DBCC"/>
<path d="M15.2096 23.1782C14.6772 23.2847 14.127 23.3734 13.5591 23.3912V26.0178C14.3577 25.9823 15.1386 25.8758 15.884 25.7161L15.2096 23.1782Z" fill="#16DBCC"/>
<path d="M20.8354 13.914C20.6757 14.5706 20.729 14.2157 20.5692 14.8546C20.3918 15.5113 20.1433 16.1147 19.8061 16.7003C19.4689 17.286 19.0607 17.8184 18.5993 18.2798C18.1378 18.7413 17.6054 19.1495 17.0197 19.4867C16.4518 19.8239 15.8307 20.0723 15.174 20.2498C14.5351 20.4273 13.8784 20.516 13.204 20.516C12.5119 20.516 11.8552 20.4273 11.2341 20.2498C10.5774 20.0723 9.974 19.8239 9.38834 19.4867C8.80267 19.1495 8.27025 18.7413 7.80882 18.2798C7.34738 17.8184 6.93919 17.286 6.60199 16.7003C6.26479 16.1324 6.01632 15.5113 5.83885 14.8546C5.66138 14.2157 5.57264 13.559 5.57264 12.8846C5.57264 12.1925 5.66138 11.5358 5.83885 10.9147C6.01632 10.258 6.26479 9.65459 6.60199 9.06893C6.93919 8.48326 7.34738 7.95084 7.80882 7.48941C8.27025 7.02797 8.80267 6.61978 9.38834 6.28258C9.95626 5.94538 10.5774 5.69691 11.2341 5.51944C11.873 5.34197 12.5296 5.25323 13.204 5.25323V3.12354C12.3344 3.12354 11.4825 3.24777 10.6839 3.46074C9.84977 3.69145 9.06888 4.01091 8.34124 4.43684C7.59585 4.86278 6.92144 5.37746 6.31803 5.98087C5.71462 6.58429 5.19994 7.25869 4.774 8.00408C4.34806 8.73173 4.01086 9.53036 3.79789 10.3467C3.58492 11.1454 3.46069 11.9973 3.46069 12.8669C3.46069 13.7365 3.58492 14.5884 3.79789 15.387C4.02861 16.2211 4.34806 17.002 4.774 17.7297C5.19994 18.4751 5.71462 19.1495 6.31803 19.7529C6.92144 20.3563 7.59585 20.871 8.34124 21.2969C9.06888 21.7229 9.86752 22.0601 10.6839 22.273C11.4825 22.486 12.3344 22.6102 13.204 22.6102C14.0737 22.6102 14.9255 22.486 15.7242 22.273C16.5583 22.0423 17.3392 21.7229 18.0668 21.2969C18.8122 20.871 19.4866 20.3563 20.09 19.7529C20.6935 19.1495 21.2081 18.4751 21.6341 17.7297C22.06 17.002 22.3617 16.2034 22.6102 15.387C22.8764 14.5351 22.8054 14.8191 22.9829 13.9495L20.8354 13.914Z" fill="#16DBCC"/>
<circle cx="13" cy="13" r="5" fill="#16DBCC"/>
</svg>
