<svg width="30" height="30" viewBox="0 0 30 30" fill="none" xmlns="http://www.w3.org/2000/svg">
<g id="Group">
<g id="Group_2">
<g id="Group_3" opacity="0.26">
<g id="Group_4">
<g id="Clip path group">
<mask id="mask0_372_1815" style="mask-type:luminance" maskUnits="userSpaceOnUse" x="12" y="0" width="4" height="4">
<g id="SVGID_14_">
<path id="Vector" d="M13.1878 3.27198C13.8022 3.14928 14.437 3.04704 15.0923 3.02659V0C14.1708 0.0408998 13.2697 0.163602 12.4097 0.347651L13.1878 3.27198Z" fill="white"/>
</g>
</mask>
<g mask="url(#mask0_372_1815)">
<path id="Vector_2" d="M12.9421 0H12.3892V3.27198H12.9421V0Z" fill="#35ABF9"/>
</g>
</g>
<g id="Clip path group_2">
<mask id="mask1_372_1815" style="mask-type:luminance" maskUnits="userSpaceOnUse" x="12" y="0" width="4" height="4">
<g id="SVGID_14__2">
<path id="Vector_3" d="M13.1878 3.27198C13.8022 3.14928 14.437 3.04704 15.0923 3.02659V0C14.1708 0.0408998 13.2697 0.163602 12.4097 0.347651L13.1878 3.27198Z" fill="white"/>
</g>
</mask>
<g mask="url(#mask1_372_1815)">
<path id="Vector_4" d="M13.6381 0H12.9419V3.27198H13.6381V0Z" fill="#34ACFA"/>
</g>
</g>
<g id="Clip path group_3">
<mask id="mask2_372_1815" style="mask-type:luminance" maskUnits="userSpaceOnUse" x="12" y="0" width="4" height="4">
<g id="SVGID_14__3">
<path id="Vector_5" d="M13.1878 3.27198C13.8022 3.14928 14.437 3.04704 15.0923 3.02659V0C14.1708 0.0408998 13.2697 0.163602 12.4097 0.347651L13.1878 3.27198Z" fill="white"/>
</g>
</mask>
<g mask="url(#mask2_372_1815)">
<path id="Vector_6" d="M14.3347 0H13.6384V3.27198H14.3347V0Z" fill="#33ADFA"/>
</g>
</g>
<g id="Clip path group_4">
<mask id="mask3_372_1815" style="mask-type:luminance" maskUnits="userSpaceOnUse" x="12" y="0" width="4" height="4">
<g id="SVGID_14__4">
<path id="Vector_7" d="M13.1878 3.27198C13.8022 3.14928 14.437 3.04704 15.0923 3.02659V0C14.1708 0.0408998 13.2697 0.163602 12.4097 0.347651L13.1878 3.27198Z" fill="white"/>
</g>
</mask>
<g mask="url(#mask3_372_1815)">
<path id="Vector_8" d="M15.0512 0H14.355V3.27198H15.0512V0Z" fill="#32AEFA"/>
</g>
</g>
<g id="Clip path group_5">
<mask id="mask4_372_1815" style="mask-type:luminance" maskUnits="userSpaceOnUse" x="12" y="0" width="4" height="4">
<g id="SVGID_14__5">
<path id="Vector_9" d="M13.1878 3.27198C13.8022 3.14928 14.437 3.04704 15.0923 3.02659V0C14.1708 0.0408998 13.2697 0.163602 12.4097 0.347651L13.1878 3.27198Z" fill="white"/>
</g>
</mask>
<g mask="url(#mask4_372_1815)">
<path id="Vector_10" d="M15.0925 0H15.0515V3.27198H15.0925V0Z" fill="#31AEFB"/>
</g>
</g>
</g>
</g>
<g id="Group_5" opacity="0.26">
<g id="Group_6">
<g id="Clip path group_6">
<mask id="mask5_372_1815" style="mask-type:luminance" maskUnits="userSpaceOnUse" x="4" y="2" width="5" height="5">
<g id="SVGID_16_">
<path id="Vector_11" d="M6.98293 6.05319C7.45392 5.62374 7.96587 5.23519 8.49829 4.88754L6.98293 2.26996C6.22525 2.76076 5.50853 3.3129 4.83276 3.9264L6.98293 6.05319Z" fill="white"/>
</g>
</mask>
<g mask="url(#mask5_372_1815)">
<path id="Vector_12" d="M5.28328 2.24945H4.83276V6.03268H5.28328V2.24945Z" fill="#3FA2F5"/>
</g>
</g>
<g id="Clip path group_7">
<mask id="mask6_372_1815" style="mask-type:luminance" maskUnits="userSpaceOnUse" x="4" y="2" width="5" height="5">
<g id="SVGID_16__2">
<path id="Vector_13" d="M6.98293 6.05319C7.45392 5.62374 7.96587 5.23519 8.49829 4.88754L6.98293 2.26996C6.22525 2.76076 5.50853 3.3129 4.83276 3.9264L6.98293 6.05319Z" fill="white"/>
</g>
</mask>
<g mask="url(#mask6_372_1815)">
<path id="Vector_14" d="M5.97945 2.24945H5.2832V6.03268H5.97945V2.24945Z" fill="#3EA3F6"/>
</g>
</g>
<g id="Clip path group_8">
<mask id="mask7_372_1815" style="mask-type:luminance" maskUnits="userSpaceOnUse" x="4" y="2" width="5" height="5">
<g id="SVGID_16__3">
<path id="Vector_15" d="M6.98293 6.05319C7.45392 5.62374 7.96587 5.23519 8.49829 4.88754L6.98293 2.26996C6.22525 2.76076 5.50853 3.3129 4.83276 3.9264L6.98293 6.05319Z" fill="white"/>
</g>
</mask>
<g mask="url(#mask7_372_1815)">
<path id="Vector_16" d="M6.67598 2.24945H5.97974V6.03268H6.67598V2.24945Z" fill="#3DA4F6"/>
</g>
</g>
<g id="Clip path group_9">
<mask id="mask8_372_1815" style="mask-type:luminance" maskUnits="userSpaceOnUse" x="4" y="2" width="5" height="5">
<g id="SVGID_16__4">
<path id="Vector_17" d="M6.98293 6.05319C7.45392 5.62374 7.96587 5.23519 8.49829 4.88754L6.98293 2.26996C6.22525 2.76076 5.50853 3.3129 4.83276 3.9264L6.98293 6.05319Z" fill="white"/>
</g>
</mask>
<g mask="url(#mask8_372_1815)">
<path id="Vector_18" d="M7.39253 2.24945H6.69629V6.03268H7.39253V2.24945Z" fill="#3CA5F6"/>
</g>
</g>
<g id="Clip path group_10">
<mask id="mask9_372_1815" style="mask-type:luminance" maskUnits="userSpaceOnUse" x="4" y="2" width="5" height="5">
<g id="SVGID_16__5">
<path id="Vector_19" d="M6.98293 6.05319C7.45392 5.62374 7.96587 5.23519 8.49829 4.88754L6.98293 2.26996C6.22525 2.76076 5.50853 3.3129 4.83276 3.9264L6.98293 6.05319Z" fill="white"/>
</g>
</mask>
<g mask="url(#mask9_372_1815)">
<path id="Vector_20" d="M8.08883 2.24945H7.39258V6.03268H8.08883V2.24945Z" fill="#3BA6F7"/>
</g>
</g>
<g id="Clip path group_11">
<mask id="mask10_372_1815" style="mask-type:luminance" maskUnits="userSpaceOnUse" x="4" y="2" width="5" height="5">
<g id="SVGID_16__6">
<path id="Vector_21" d="M6.98293 6.05319C7.45392 5.62374 7.96587 5.23519 8.49829 4.88754L6.98293 2.26996C6.22525 2.76076 5.50853 3.3129 4.83276 3.9264L6.98293 6.05319Z" fill="white"/>
</g>
</mask>
<g mask="url(#mask10_372_1815)">
<path id="Vector_22" d="M8.49867 2.24945H8.08911V6.03268H8.49867V2.24945Z" fill="#3AA7F7"/>
</g>
</g>
</g>
</g>
<g id="Group_7" opacity="0.26">
<g id="Group_8">
<g id="Clip path group_12">
<mask id="mask11_372_1815" style="mask-type:luminance" maskUnits="userSpaceOnUse" x="8" y="0" width="4" height="5">
<g id="SVGID_18_">
<path id="Vector_23" d="M9.95237 4.1309C10.5257 3.8446 11.1196 3.5992 11.7135 3.3947L10.9353 0.470367C10.0548 0.736216 9.23565 1.08386 8.43701 1.51331L9.95237 4.1309Z" fill="white"/>
</g>
</mask>
<g mask="url(#mask11_372_1815)">
<path id="Vector_24" d="M8.47797 0.470367H8.43701V4.1309H8.47797V0.470367Z" fill="#3BA6F7"/>
</g>
</g>
<g id="Clip path group_13">
<mask id="mask12_372_1815" style="mask-type:luminance" maskUnits="userSpaceOnUse" x="8" y="0" width="4" height="5">
<g id="SVGID_18__2">
<path id="Vector_25" d="M9.95237 4.1309C10.5257 3.8446 11.1196 3.5992 11.7135 3.3947L10.9353 0.470367C10.0548 0.736216 9.23565 1.08386 8.43701 1.51331L9.95237 4.1309Z" fill="white"/>
</g>
</mask>
<g mask="url(#mask12_372_1815)">
<path id="Vector_26" d="M9.17403 0.470367H8.47778V4.1309H9.17403V0.470367Z" fill="#3AA7F7"/>
</g>
</g>
<g id="Clip path group_14">
<mask id="mask13_372_1815" style="mask-type:luminance" maskUnits="userSpaceOnUse" x="8" y="0" width="4" height="5">
<g id="SVGID_18__3">
<path id="Vector_27" d="M9.95237 4.1309C10.5257 3.8446 11.1196 3.5992 11.7135 3.3947L10.9353 0.470367C10.0548 0.736216 9.23565 1.08386 8.43701 1.51331L9.95237 4.1309Z" fill="white"/>
</g>
</mask>
<g mask="url(#mask13_372_1815)">
<path id="Vector_28" d="M9.87032 0.470367H9.17407V4.1309H9.87032V0.470367Z" fill="#39A8F8"/>
</g>
</g>
<g id="Clip path group_15">
<mask id="mask14_372_1815" style="mask-type:luminance" maskUnits="userSpaceOnUse" x="8" y="0" width="4" height="5">
<g id="SVGID_18__4">
<path id="Vector_29" d="M9.95237 4.1309C10.5257 3.8446 11.1196 3.5992 11.7135 3.3947L10.9353 0.470367C10.0548 0.736216 9.23565 1.08386 8.43701 1.51331L9.95237 4.1309Z" fill="white"/>
</g>
</mask>
<g mask="url(#mask14_372_1815)">
<path id="Vector_30" d="M10.5668 0.470367H9.87061V4.1309H10.5668V0.470367Z" fill="#38A8F8"/>
</g>
</g>
<g id="Clip path group_16">
<mask id="mask15_372_1815" style="mask-type:luminance" maskUnits="userSpaceOnUse" x="8" y="0" width="4" height="5">
<g id="SVGID_18__5">
<path id="Vector_31" d="M9.95237 4.1309C10.5257 3.8446 11.1196 3.5992 11.7135 3.3947L10.9353 0.470367C10.0548 0.736216 9.23565 1.08386 8.43701 1.51331L9.95237 4.1309Z" fill="white"/>
</g>
</mask>
<g mask="url(#mask15_372_1815)">
<path id="Vector_32" d="M11.2629 0.470367H10.5667V4.1309H11.2629V0.470367Z" fill="#37A9F8"/>
</g>
</g>
<g id="Clip path group_17">
<mask id="mask16_372_1815" style="mask-type:luminance" maskUnits="userSpaceOnUse" x="8" y="0" width="4" height="5">
<g id="SVGID_18__6">
<path id="Vector_33" d="M9.95237 4.1309C10.5257 3.8446 11.1196 3.5992 11.7135 3.3947L10.9353 0.470367C10.0548 0.736216 9.23565 1.08386 8.43701 1.51331L9.95237 4.1309Z" fill="white"/>
</g>
</mask>
<g mask="url(#mask16_372_1815)">
<path id="Vector_34" d="M11.7132 0.470367H11.2627V4.1309H11.7132V0.470367Z" fill="#36AAF9"/>
</g>
</g>
</g>
</g>
<g id="Group_9" opacity="0.26">
<g id="Group_10">
<g id="Clip path group_18">
<mask id="mask17_372_1815" style="mask-type:luminance" maskUnits="userSpaceOnUse" x="2" y="4" width="5" height="5">
<g id="SVGID_20_">
<path id="Vector_35" d="M4.93534 8.42539C5.28346 7.89369 5.67254 7.38245 6.10257 6.9121L3.9524 4.76486C3.33807 5.41926 2.78517 6.135 2.2937 6.9121L4.93534 8.42539Z" fill="white"/>
</g>
</mask>
<g mask="url(#mask17_372_1815)">
<path id="Vector_36" d="M2.47803 4.76486H2.31421V8.42539H2.47803V4.76486Z" fill="#439FF3"/>
</g>
</g>
<g id="Clip path group_19">
<mask id="mask18_372_1815" style="mask-type:luminance" maskUnits="userSpaceOnUse" x="2" y="4" width="5" height="5">
<g id="SVGID_20__2">
<path id="Vector_37" d="M4.93534 8.42539C5.28346 7.89369 5.67254 7.38245 6.10257 6.9121L3.9524 4.76486C3.33807 5.41926 2.78517 6.135 2.2937 6.9121L4.93534 8.42539Z" fill="white"/>
</g>
</mask>
<g mask="url(#mask18_372_1815)">
<path id="Vector_38" d="M3.17427 4.76486H2.47803V8.42539H3.17427V4.76486Z" fill="#42A0F4"/>
</g>
</g>
<g id="Clip path group_20">
<mask id="mask19_372_1815" style="mask-type:luminance" maskUnits="userSpaceOnUse" x="2" y="4" width="5" height="5">
<g id="SVGID_20__3">
<path id="Vector_39" d="M4.93534 8.42539C5.28346 7.89369 5.67254 7.38245 6.10257 6.9121L3.9524 4.76486C3.33807 5.41926 2.78517 6.135 2.2937 6.9121L4.93534 8.42539Z" fill="white"/>
</g>
</mask>
<g mask="url(#mask19_372_1815)">
<path id="Vector_40" d="M3.89107 4.76486H3.19482V8.42539H3.89107V4.76486Z" fill="#41A1F4"/>
</g>
</g>
<g id="Clip path group_21">
<mask id="mask20_372_1815" style="mask-type:luminance" maskUnits="userSpaceOnUse" x="2" y="4" width="5" height="5">
<g id="SVGID_20__4">
<path id="Vector_41" d="M4.93534 8.42539C5.28346 7.89369 5.67254 7.38245 6.10257 6.9121L3.9524 4.76486C3.33807 5.41926 2.78517 6.135 2.2937 6.9121L4.93534 8.42539Z" fill="white"/>
</g>
</mask>
<g mask="url(#mask20_372_1815)">
<path id="Vector_42" d="M4.58711 4.76486H3.89087V8.42539H4.58711V4.76486Z" fill="#40A2F5"/>
</g>
</g>
<g id="Clip path group_22">
<mask id="mask21_372_1815" style="mask-type:luminance" maskUnits="userSpaceOnUse" x="2" y="4" width="5" height="5">
<g id="SVGID_20__5">
<path id="Vector_43" d="M4.93534 8.42539C5.28346 7.89369 5.67254 7.38245 6.10257 6.9121L3.9524 4.76486C3.33807 5.41926 2.78517 6.135 2.2937 6.9121L4.93534 8.42539Z" fill="white"/>
</g>
</mask>
<g mask="url(#mask21_372_1815)">
<path id="Vector_44" d="M5.28316 4.76486H4.58691V8.42539H5.28316V4.76486Z" fill="#3FA2F5"/>
</g>
</g>
<g id="Clip path group_23">
<mask id="mask22_372_1815" style="mask-type:luminance" maskUnits="userSpaceOnUse" x="2" y="4" width="5" height="5">
<g id="SVGID_20__6">
<path id="Vector_45" d="M4.93534 8.42539C5.28346 7.89369 5.67254 7.38245 6.10257 6.9121L3.9524 4.76486C3.33807 5.41926 2.78517 6.135 2.2937 6.9121L4.93534 8.42539Z" fill="white"/>
</g>
</mask>
<g mask="url(#mask22_372_1815)">
<path id="Vector_46" d="M5.97945 4.76486H5.2832V8.42539H5.97945V4.76486Z" fill="#3EA3F6"/>
</g>
</g>
<g id="Clip path group_24">
<mask id="mask23_372_1815" style="mask-type:luminance" maskUnits="userSpaceOnUse" x="2" y="4" width="5" height="5">
<g id="SVGID_20__7">
<path id="Vector_47" d="M4.93534 8.42539C5.28346 7.89369 5.67254 7.38245 6.10257 6.9121L3.9524 4.76486C3.33807 5.41926 2.78517 6.135 2.2937 6.9121L4.93534 8.42539Z" fill="white"/>
</g>
</mask>
<g mask="url(#mask23_372_1815)">
<path id="Vector_48" d="M6.1026 4.76486H5.97974V8.42539H6.1026V4.76486Z" fill="#3DA4F6"/>
</g>
</g>
</g>
</g>
<g id="Group_11" opacity="0.26">
<g id="Group_12">
<g id="Clip path group_25">
<mask id="mask24_372_1815" style="mask-type:luminance" maskUnits="userSpaceOnUse" x="0" y="11" width="4" height="4">
<g id="SVGID_22_">
<path id="Vector_49" d="M3.03071 14.3558C3.07167 13.7014 3.15358 13.0675 3.27645 12.454L0.348122 11.6769C0.163822 12.5358 0.0409556 13.4356 0 14.3558H3.03071Z" fill="white"/>
</g>
</mask>
<g mask="url(#mask24_372_1815)">
<path id="Vector_50" d="M0.389077 11.6769H0V14.3558H0.389077V11.6769Z" fill="#469CF2"/>
</g>
</g>
<g id="Clip path group_26">
<mask id="mask25_372_1815" style="mask-type:luminance" maskUnits="userSpaceOnUse" x="0" y="11" width="4" height="4">
<g id="SVGID_22__2">
<path id="Vector_51" d="M3.03071 14.3558C3.07167 13.7014 3.15358 13.0675 3.27645 12.454L0.348122 11.6769C0.163822 12.5358 0.0409556 13.4356 0 14.3558H3.03071Z" fill="white"/>
</g>
</mask>
<g mask="url(#mask25_372_1815)">
<path id="Vector_52" d="M1.08516 11.6769H0.388916V14.3558H1.08516V11.6769Z" fill="#459DF3"/>
</g>
</g>
<g id="Clip path group_27">
<mask id="mask26_372_1815" style="mask-type:luminance" maskUnits="userSpaceOnUse" x="0" y="11" width="4" height="4">
<g id="SVGID_22__3">
<path id="Vector_53" d="M3.03071 14.3558C3.07167 13.7014 3.15358 13.0675 3.27645 12.454L0.348122 11.6769C0.163822 12.5358 0.0409556 13.4356 0 14.3558H3.03071Z" fill="white"/>
</g>
</mask>
<g mask="url(#mask26_372_1815)">
<path id="Vector_54" d="M1.78145 11.6769H1.08521V14.3558H1.78145V11.6769Z" fill="#449EF3"/>
</g>
</g>
<g id="Clip path group_28">
<mask id="mask27_372_1815" style="mask-type:luminance" maskUnits="userSpaceOnUse" x="0" y="11" width="4" height="4">
<g id="SVGID_22__4">
<path id="Vector_55" d="M3.03071 14.3558C3.07167 13.7014 3.15358 13.0675 3.27645 12.454L0.348122 11.6769C0.163822 12.5358 0.0409556 13.4356 0 14.3558H3.03071Z" fill="white"/>
</g>
</mask>
<g mask="url(#mask27_372_1815)">
<path id="Vector_56" d="M2.47798 11.6769H1.78174V14.3558H2.47798V11.6769Z" fill="#439FF3"/>
</g>
</g>
<g id="Clip path group_29">
<mask id="mask28_372_1815" style="mask-type:luminance" maskUnits="userSpaceOnUse" x="0" y="11" width="4" height="4">
<g id="SVGID_22__5">
<path id="Vector_57" d="M3.03071 14.3558C3.07167 13.7014 3.15358 13.0675 3.27645 12.454L0.348122 11.6769C0.163822 12.5358 0.0409556 13.4356 0 14.3558H3.03071Z" fill="white"/>
</g>
</mask>
<g mask="url(#mask28_372_1815)">
<path id="Vector_58" d="M3.17427 11.6769H2.47803V14.3558H3.17427V11.6769Z" fill="#42A0F4"/>
</g>
</g>
<g id="Clip path group_30">
<mask id="mask29_372_1815" style="mask-type:luminance" maskUnits="userSpaceOnUse" x="0" y="11" width="4" height="4">
<g id="SVGID_22__6">
<path id="Vector_59" d="M3.03071 14.3558C3.07167 13.7014 3.15358 13.0675 3.27645 12.454L0.348122 11.6769C0.163822 12.5358 0.0409556 13.4356 0 14.3558H3.03071Z" fill="white"/>
</g>
</mask>
<g mask="url(#mask29_372_1815)">
<path id="Vector_60" d="M3.27674 11.6769H3.19482V14.3558H3.27674V11.6769Z" fill="#41A1F4"/>
</g>
</g>
</g>
</g>
<g id="Group_13" opacity="0.26">
<g id="Group_14">
<g id="Clip path group_31">
<mask id="mask30_372_1815" style="mask-type:luminance" maskUnits="userSpaceOnUse" x="0" y="7" width="5" height="5">
<g id="SVGID_24_">
<path id="Vector_61" d="M3.5836 11.2679C3.78838 10.6544 4.03411 10.0613 4.3208 9.5092L1.69964 7.99591C1.29009 8.79346 0.941963 9.6319 0.655273 10.4908L3.5836 11.2679Z" fill="white"/>
</g>
</mask>
<g mask="url(#mask30_372_1815)">
<path id="Vector_62" d="M1.08531 7.97546H0.655273V11.2679H1.08531V7.97546Z" fill="#459DF3"/>
</g>
</g>
<g id="Clip path group_32">
<mask id="mask31_372_1815" style="mask-type:luminance" maskUnits="userSpaceOnUse" x="0" y="7" width="5" height="5">
<g id="SVGID_24__2">
<path id="Vector_63" d="M3.5836 11.2679C3.78838 10.6544 4.03411 10.0613 4.3208 9.5092L1.69964 7.99591C1.29009 8.79346 0.941963 9.6319 0.655273 10.4908L3.5836 11.2679Z" fill="white"/>
</g>
</mask>
<g mask="url(#mask31_372_1815)">
<path id="Vector_64" d="M1.78145 7.97546H1.08521V11.2679H1.78145V7.97546Z" fill="#449EF3"/>
</g>
</g>
<g id="Clip path group_33">
<mask id="mask32_372_1815" style="mask-type:luminance" maskUnits="userSpaceOnUse" x="0" y="7" width="5" height="5">
<g id="SVGID_24__3">
<path id="Vector_65" d="M3.5836 11.2679C3.78838 10.6544 4.03411 10.0613 4.3208 9.5092L1.69964 7.99591C1.29009 8.79346 0.941963 9.6319 0.655273 10.4908L3.5836 11.2679Z" fill="white"/>
</g>
</mask>
<g mask="url(#mask32_372_1815)">
<path id="Vector_66" d="M2.47798 7.97546H1.78174V11.2679H2.47798V7.97546Z" fill="#439FF3"/>
</g>
</g>
<g id="Clip path group_34">
<mask id="mask33_372_1815" style="mask-type:luminance" maskUnits="userSpaceOnUse" x="0" y="7" width="5" height="5">
<g id="SVGID_24__4">
<path id="Vector_67" d="M3.5836 11.2679C3.78838 10.6544 4.03411 10.0613 4.3208 9.5092L1.69964 7.99591C1.29009 8.79346 0.941963 9.6319 0.655273 10.4908L3.5836 11.2679Z" fill="white"/>
</g>
</mask>
<g mask="url(#mask33_372_1815)">
<path id="Vector_68" d="M3.17427 7.97546H2.47803V11.2679H3.17427V7.97546Z" fill="#42A0F4"/>
</g>
</g>
<g id="Clip path group_35">
<mask id="mask34_372_1815" style="mask-type:luminance" maskUnits="userSpaceOnUse" x="0" y="7" width="5" height="5">
<g id="SVGID_24__5">
<path id="Vector_69" d="M3.5836 11.2679C3.78838 10.6544 4.03411 10.0613 4.3208 9.5092L1.69964 7.99591C1.29009 8.79346 0.941963 9.6319 0.655273 10.4908L3.5836 11.2679Z" fill="white"/>
</g>
</mask>
<g mask="url(#mask34_372_1815)">
<path id="Vector_70" d="M3.89107 7.97546H3.19482V11.2679H3.89107V7.97546Z" fill="#41A1F4"/>
</g>
</g>
<g id="Clip path group_36">
<mask id="mask35_372_1815" style="mask-type:luminance" maskUnits="userSpaceOnUse" x="0" y="7" width="5" height="5">
<g id="SVGID_24__6">
<path id="Vector_71" d="M3.5836 11.2679C3.78838 10.6544 4.03411 10.0613 4.3208 9.5092L1.69964 7.99591C1.29009 8.79346 0.941963 9.6319 0.655273 10.4908L3.5836 11.2679Z" fill="white"/>
</g>
</mask>
<g mask="url(#mask35_372_1815)">
<path id="Vector_72" d="M4.3209 7.97546H3.89087V11.2679H4.3209V7.97546Z" fill="#40A2F5"/>
</g>
</g>
</g>
</g>
<g id="Group_15">
<path id="Vector_73" d="M3.27645 17.4847C3.15358 16.8712 3.05119 16.2372 3.03071 15.5828H0C0.0409556 16.5031 0.163822 17.4029 0.348122 18.2618L3.27645 17.4847Z" fill="#16DBCC"/>
</g>
<g id="Group_16">
<path id="Vector_74" d="M4.3208 20.4295C4.03411 19.8569 3.78838 19.2638 3.5836 18.6708L0.655273 19.4479C0.921485 20.3272 1.26961 21.1452 1.69964 21.9428L4.3208 20.4295Z" fill="#16DBCC"/>
</g>
<g id="Group_17">
<path id="Vector_75" d="M23.0993 23.8855C22.6284 24.3149 22.1164 24.7035 21.584 25.0511L23.0993 27.6687C23.857 27.1779 24.5737 26.6258 25.2495 26.0123L23.0993 23.8855Z" fill="#16DBCC"/>
</g>
<g id="Group_18">
<path id="Vector_76" d="M26.4984 18.6708C26.2937 19.2843 26.0479 19.8773 25.7612 20.4295L28.3824 21.9428C28.7919 21.1452 29.1401 20.3068 29.4268 19.4479L26.4984 18.6708Z" fill="#16DBCC"/>
</g>
<g id="Group_19">
<path id="Vector_77" d="M20.5189 25.6646C19.9455 25.9509 19.3517 26.1963 18.7578 26.4008L19.536 29.3251C20.4165 29.0593 21.2356 28.7116 22.0343 28.2822L20.5189 25.6646Z" fill="#16DBCC"/>
</g>
<g id="Group_20">
<path id="Vector_78" d="M26.9691 16.0736C26.9282 16.728 26.8463 17.3619 26.7234 17.9754L29.6517 18.7525C29.836 17.8936 29.9589 16.9938 29.9998 16.0736H26.9691Z" fill="#16DBCC"/>
</g>
<g id="Group_21">
<path id="Vector_79" d="M25.147 21.4928C24.7989 22.0245 24.4098 22.5357 23.9797 23.0061L26.1299 25.1533C26.7442 24.4989 27.2971 23.7832 27.7886 23.0061L25.147 21.4928Z" fill="#16DBCC"/>
</g>
<g id="Group_22">
<path id="Vector_80" d="M8.49829 25.0511C7.96587 24.7035 7.45392 24.3149 6.98293 23.8855L4.83276 26.0327C5.48805 26.6462 6.20478 27.1983 6.98293 27.6891L8.49829 25.0511Z" fill="#16DBCC"/>
</g>
<g id="Group_23">
<path id="Vector_81" d="M6.1026 23.0061C5.67257 22.5357 5.28349 22.0245 4.93536 21.4928L2.31421 23.0061C2.80568 23.7627 3.35857 24.4785 3.97291 25.1533L6.1026 23.0061Z" fill="#16DBCC"/>
</g>
<g id="Group_24">
<path id="Vector_82" d="M14.4165 26.9734C13.7612 26.9325 13.1264 26.8507 12.512 26.728L11.7339 29.6524C12.594 29.8364 13.495 29.9591 14.4165 30V26.9734Z" fill="#16DBCC"/>
</g>
<g id="Group_25">
<path id="Vector_83" d="M11.3446 26.4008C10.7302 26.1963 10.1364 25.9509 9.58347 25.6646L8.06812 28.2822C8.86675 28.6912 9.70634 29.0388 10.5664 29.3251L11.3446 26.4008Z" fill="#16DBCC"/>
</g>
<g id="Group_26">
<path id="Vector_84" d="M17.5495 26.7076C16.9351 26.8303 16.3003 26.9325 15.645 26.953V29.9796C16.5665 29.9387 17.4675 29.816 18.3276 29.6319L17.5495 26.7076Z" fill="#16DBCC"/>
</g>
</g>
<g id="Group_27">
<path id="Vector_85" d="M24.0409 16.0327C23.8566 16.7893 23.9181 16.3803 23.7338 17.1165C23.529 17.8732 23.2423 18.5685 22.8532 19.2433C22.4641 19.9182 21.9931 20.5317 21.4607 21.0634C20.9283 21.595 20.314 22.0654 19.6382 22.4539C18.9829 22.8425 18.2662 23.1288 17.5085 23.3333C16.7713 23.5378 16.0136 23.64 15.2355 23.64C14.4368 23.64 13.6792 23.5378 12.9624 23.3333C12.2048 23.1288 11.5085 22.8425 10.8327 22.4539C10.157 22.0654 9.54265 21.595 9.01022 21.0634C8.4778 20.5317 8.00681 19.9182 7.61773 19.2433C7.22865 18.5889 6.94197 17.8732 6.73719 17.1165C6.53241 16.3803 6.43002 15.6237 6.43002 14.8466C6.43002 14.049 6.53241 13.2924 6.73719 12.5766C6.94197 11.82 7.22865 11.1247 7.61773 10.4499C8.00681 9.77502 8.4778 9.16152 9.01022 8.62982C9.54265 8.09813 10.157 7.62778 10.8327 7.23923C11.488 6.85068 12.2048 6.56438 12.9624 6.35989C13.6996 6.15539 14.4573 6.05314 15.2355 6.05314V3.59915C14.2321 3.59915 13.2491 3.7423 12.3276 3.9877C11.3652 4.25355 10.4641 4.62164 9.62456 5.11244C8.76449 5.60324 7.98633 6.19629 7.29009 6.89158C6.59384 7.58688 5.99999 8.36397 5.50852 9.22287C5.01705 10.0613 4.62797 10.9816 4.38224 11.9223C4.13651 12.8425 3.99316 13.8241 3.99316 14.8261C3.99316 15.8282 4.13651 16.8098 4.38224 17.73C4.64845 18.6912 5.01705 19.591 5.50852 20.4294C5.99999 21.2883 6.59384 22.0654 7.29009 22.7607C7.98633 23.456 8.76449 24.049 9.62456 24.5398C10.4641 25.0306 11.3856 25.4192 12.3276 25.6646C13.2491 25.91 14.2321 26.0531 15.2355 26.0531C16.2389 26.0531 17.2218 25.91 18.1433 25.6646C19.1058 25.3987 20.0068 25.0306 20.8464 24.5398C21.7065 24.049 22.4846 23.456 23.1809 22.7607C23.8771 22.0654 24.471 21.2883 24.9624 20.4294C25.4539 19.591 25.802 18.6707 26.0887 17.73C26.3959 16.7484 26.314 17.0756 26.5187 16.0736L24.0409 16.0327Z" fill="#16DBCC"/>
</g>
</g>
</svg>
