<svg width="20" height="20" viewBox="0 0 20 20" fill="none" xmlns="http://www.w3.org/2000/svg">
<path d="M8.70096 3.25C9.27831 2.25 10.7217 2.25 11.299 3.25L16.4952 12.25C17.0725 13.25 16.3509 14.5 15.1962 14.5H4.80385C3.64915 14.5 2.92746 13.25 3.50481 12.25L8.70096 3.25Z" stroke="#16DBCC"/>
<path d="M10.1327 5.26318C9.85882 5.26318 9.63783 5.4872 9.64155 5.76107L9.70224 10.2279C9.70544 10.4634 9.89723 10.6526 10.1327 10.6526C10.3682 10.6526 10.56 10.4634 10.5632 10.2279L10.6239 5.76107C10.6276 5.4872 10.4066 5.26318 10.1327 5.26318ZM10.1327 12.8201C10.3133 12.8201 10.4683 12.7554 10.5977 12.626C10.7271 12.4967 10.7917 12.3417 10.7917 12.161C10.7917 11.9804 10.7271 11.8254 10.5977 11.6961C10.4683 11.5667 10.3133 11.502 10.1327 11.502C9.95209 11.502 9.7971 11.5667 9.66774 11.6961C9.53837 11.8254 9.47369 11.9804 9.47369 12.161C9.47369 12.2806 9.5042 12.3905 9.56522 12.4905C9.6238 12.5906 9.70313 12.6712 9.8032 12.7322C9.90084 12.7908 10.0107 12.8201 10.1327 12.8201Z" fill="#16DBCC"/>
</svg>
