<svg width="164" height="28" viewBox="0 0 164 28" fill="none" xmlns="http://www.w3.org/2000/svg">
<g id="&#208;&#161;&#208;&#187;&#208;&#190;&#208;&#185;_x0020_1">
<path id="Vector" d="M31.0882 24.1669H27.0459V9.66528H41.598V24.1669H37.5566V12.4824H31.0882V24.1669Z" fill="#60B238"/>
<path id="Vector_2" d="M43.5576 13.6423V28.0001H47.2828V23.0901C48.5311 24.458 50.5648 24.5614 51.0549 24.5614C54.6077 24.5614 56.7878 22.2609 56.7878 18.9255C56.7878 15.4454 54.6315 13.2495 51.1288 13.2495C50.2458 13.2495 48.5311 13.3946 47.11 14.9072H47.0368L47.0609 13.6423H43.5576ZM47.11 18.8838C47.11 15.9428 48.8992 15.3629 50.0264 15.3629C51.1288 15.3629 52.9171 15.9428 52.9171 18.8838C52.9171 20.7078 52.158 22.4486 50.0264 22.4486C47.8459 22.4486 47.11 20.7078 47.11 18.8838Z" fill="#60B238"/>
<path id="Vector_3" d="M66.024 22.904C64.6527 24.2082 63.3313 24.5611 61.8599 24.5611C57.842 24.5611 57.6943 21.4947 57.6943 20.2313V13.6421H61.4186V19.7333C61.4186 21.8265 62.1309 22.4483 63.5017 22.4483C65.8525 22.4483 66.024 20.3141 66.024 19.5475V13.6421H69.7497V24.1668H66.024V22.904Z" fill="#60B238"/>
<path id="Vector_4" d="M75.0905 19.7333H77.3692C79.1319 19.7333 79.4996 20.2724 79.4996 20.9771C79.4996 21.4324 79.2537 22.0543 77.4154 22.0543H75.0905V19.7333ZM71.3662 13.6421V24.1668H78.7653C81.46 24.1668 83.3216 23.6283 83.3216 21.4738C83.3216 19.8164 82.4139 19.0915 80.357 18.7189V18.6564C81.7048 18.4699 82.8814 17.6202 82.8814 16.1912C82.8814 13.6421 79.941 13.6421 78.7894 13.6421H71.3662ZM75.0905 15.7564H77.0979C78.1518 15.7564 79.0574 15.922 79.0574 16.7913C79.0574 17.7453 77.6369 17.7659 77.0246 17.7659H75.0905V15.7564Z" fill="#60B238"/>
<path id="Vector_5" d="M88.025 17.0406C88.025 15.4868 89.6418 15.3629 90.3038 15.3629C90.7207 15.3629 92.263 15.3838 92.3133 16.7508C92.3133 16.8544 92.3133 16.9372 92.3133 17.0406C92.2398 18.0764 91.2597 17.8694 88.5167 18.2215C86.2612 18.5321 83.8848 19.1117 83.8848 21.5158C83.8848 22.386 84.2525 24.5614 88.2216 24.5614C89.7415 24.5614 91.4077 24.167 92.386 23.1318H92.4616L92.7788 24.167H96.6984V23.9812C95.9881 23.8359 95.939 23.1318 95.9631 21.992L96.0367 17.185C96.0617 15.9636 95.939 13.2495 90.3288 13.2495C88.981 13.2495 84.6444 13.3734 84.4729 17.0406H88.025ZM92.3374 19.8167C92.3374 21.9301 90.5241 22.4486 89.6188 22.4486C88.9315 22.4486 87.7067 22.2198 87.7067 21.226C87.7067 20.0445 89.1028 19.8166 89.8877 19.713C91.3333 19.5057 91.2103 19.5683 92.3374 19.1534V19.8167Z" fill="#60B238"/>
<path id="Vector_6" d="M96.4531 15.7564V13.6421H108.408V15.7564H104.293V24.1668H100.569V15.7564H96.4531Z" fill="#60B238"/>
<path id="Vector_7" d="M113.163 12.4824H122.448V9.66528H109.119V24.1669H117.302C121.272 24.1669 123.819 22.7591 123.819 19.7957C123.819 15.1558 118.723 15.0515 117.302 15.0515H113.163V12.4824ZM113.163 17.8693H116.518C117.501 17.8693 119.459 17.9732 119.459 19.7129C119.459 21.0805 118.037 21.3494 116.446 21.3494H113.163V17.8693Z" fill="#60B238"/>
<path id="Vector_8" d="M128.672 17.0406C128.672 15.4868 130.289 15.3629 130.949 15.3629C131.366 15.3629 132.91 15.3838 132.96 16.7508C132.96 16.8544 132.96 16.9372 132.96 17.0406C132.885 18.0764 131.906 17.8694 129.16 18.2215C126.907 18.5321 124.531 19.1117 124.531 21.5158C124.531 22.386 124.898 24.5614 128.867 24.5614C130.386 24.5614 132.052 24.167 133.032 23.1318H133.105L133.424 24.167H137.344V23.9812C136.636 23.8359 136.584 23.1318 136.61 21.992L136.683 17.185C136.707 15.9636 136.584 13.2495 130.973 13.2495C129.627 13.2495 125.29 13.3734 125.118 17.0406H128.672ZM132.983 19.8167C132.983 21.9301 131.17 22.4486 130.264 22.4486C129.578 22.4486 128.353 22.2198 128.353 21.226C128.353 20.0445 129.748 19.8166 130.532 19.713C131.979 19.5057 131.856 19.5683 132.983 19.1534V19.8167Z" fill="#60B238"/>
<path id="Vector_9" d="M141.999 24.1668H138.274V13.6421H141.999V17.5997H146.483V13.6421H150.207V24.1668H146.483V19.7128H141.999V24.1668Z" fill="#60B238"/>
<path id="Vector_10" d="M159.615 13.6421H163.754L158.635 18.5727L164 24.1668H159.638L155.621 19.568H155.549V24.1668H151.825V13.6421H155.549V17.8692H155.621L159.615 13.6421Z" fill="#60B238"/>
<path id="Vector_11" d="M0 24.2047H9.32789V14.7397H0V24.2047Z" fill="#373435"/>
<path id="Vector_12" d="M18.9362 5.00369C18.9362 8.22214 18.9362 15.9844 18.9362 19.2028C18.0503 19.2028 17.8942 19.2028 17.0333 19.2028C16.2117 12.1806 11.8633 7.76949 4.94158 6.93579C4.94158 6.0622 4.94158 5.90447 4.94158 5.00369C8.11371 5.00369 15.7641 5.00369 18.9362 5.00369ZM0.00976562 0V11.7808H2.47641C8.96749 11.7808 12.2587 15.1199 12.2587 21.7042V24.2071H23.868V0H0.00976562Z" fill="#60B238"/>
</g>
</svg>
