<svg width="102" height="49" viewBox="0 0 102 49" fill="none" xmlns="http://www.w3.org/2000/svg">
<g id="idf-2EyyRU_logos 3" clip-path="url(#clip0_666_3745)">
<path id="Vector" d="M100.539 24.5H1.46191V49H100.539V24.5Z" fill="#E2E42B"/>
<path id="Vector_2" d="M100.539 0H1.46191V24.5H100.539V0Z" fill="#00503C"/>
<path id="Vector_3" d="M14.3607 34.1343H14.9784L16.1391 36.8876L17.3535 34.1343H17.9713L18.7061 38.4663H17.8396L17.4462 35.7966L16.2709 38.4663H15.9831L14.8614 35.7966L14.4143 38.4663H13.5479L14.3607 34.1343Z" fill="black"/>
<path id="Vector_4" d="M20.4638 34.1343V38.4663H19.6104V34.1343H20.4638Z" fill="black"/>
<path id="Vector_5" d="M22.4463 34.1341V37.0178L24.8474 34.1341H25.4505V38.4661H24.5971V35.5695L22.1959 38.4661H21.5928V34.1341H22.4463ZM22.9324 32.7502C23.0705 33.1139 23.4379 33.1268 23.5241 33.1268C23.6086 33.1268 23.9761 33.1139 24.1142 32.7502L24.7043 32.9836C24.5336 33.4245 24.1272 33.7109 23.5241 33.7109C22.921 33.7109 22.5129 33.4245 22.3423 32.9836L22.9324 32.7502Z" fill="black"/>
<path id="Vector_6" d="M28.2393 34.1343H30.7721V34.8616H29.0928V35.8561H29.6829C30.0113 35.8561 30.4372 35.9076 30.7786 36.2069C31.0289 36.4274 31.1915 36.7589 31.1915 37.1676C31.1915 37.4605 31.1005 37.726 30.9493 37.94C30.6144 38.4083 30.0698 38.4663 29.6894 38.4663H28.2393V34.1343ZM29.0928 37.7389H29.5008C30.1836 37.7389 30.3136 37.4202 30.3136 37.1741C30.3136 36.9005 30.1624 36.5835 29.5122 36.5835H29.0928V37.7389Z" fill="black"/>
<path id="Vector_7" d="M34.5647 37.5571H32.7992L32.4123 38.4663H31.4873L33.3714 34.1343H34.0412L35.8717 38.4663H34.9532L34.5647 37.5571ZM34.316 36.8683L33.6933 35.309L33.0691 36.8683H34.316Z" fill="black"/>
<path id="Vector_8" d="M37.3682 35.8096H39.2182V34.1328H40.0717V38.4647H39.2182V36.5353H37.3682V38.4647H36.5146V34.1328H37.3682V35.8096Z" fill="black"/>
<path id="Vector_9" d="M42.0527 35.9655L43.6605 34.1343H44.7367L42.8867 36.1345L44.8359 38.4663H43.7076L42.1519 36.5239L42.0527 36.6221V38.4663H41.1992V34.1343H42.0527V35.9655Z" fill="black"/>
<path id="Vector_10" d="M45.8324 37.5376C46.1218 37.5376 46.3445 37.758 46.3445 38.0445C46.3445 38.3309 46.1218 38.5514 45.8324 38.5514C45.543 38.5514 45.3203 38.3309 45.3203 38.0445C45.3203 37.758 45.543 37.5376 45.8324 37.5376Z" fill="black"/>
<path id="Vector_11" d="M49.5391 34.1343H50.1552L51.316 36.8876L52.5303 34.1343H53.1481L53.8829 38.4663H53.0164L52.623 35.7966L51.4476 38.4663H51.1599L50.0382 35.7966L49.5911 38.4663H48.7246L49.5391 34.1343Z" fill="black"/>
<path id="Vector_12" d="M59.2511 36.3035C59.2511 37.6214 58.2937 38.5644 56.9152 38.5644C55.5368 38.5644 54.5791 37.623 54.5791 36.3035C54.5791 34.9839 55.5368 34.0361 56.9152 34.0361C58.2937 34.0361 59.2511 34.9839 59.2511 36.3035ZM58.3718 36.3035C58.3718 35.4264 57.7687 34.8021 56.9152 34.8021C56.0618 34.8021 55.4587 35.4264 55.4587 36.3035C55.4587 37.1805 56.0618 37.7968 56.9152 37.7968C57.7687 37.7968 58.3718 37.1805 58.3718 36.3035Z" fill="black"/>
<path id="Vector_13" d="M62.9005 38.4664H62.0471V36.7896H61.8893L60.7742 38.4664H59.75L61.0488 36.7123C60.8845 36.6866 60.7074 36.6142 60.5695 36.5176C60.3078 36.3294 60.0768 35.9721 60.0768 35.4716C60.0768 34.9969 60.2798 34.6655 60.5108 34.4643C60.8522 34.165 61.2652 34.1328 61.6325 34.1328H62.8989V38.4664H62.9005ZM61.7838 34.8231C61.626 34.8231 60.9578 34.8296 60.9578 35.4733C60.9578 36.1298 61.6276 36.1298 61.7983 36.1298H62.0487V34.8247H61.7838V34.8231Z" fill="black"/>
<path id="Vector_14" d="M66.541 35.9655L68.1488 34.1343H69.2252L67.375 36.1345L69.3243 38.4663H68.1962L66.6406 36.5239L66.541 36.6221V38.4663H65.6875V34.1343H66.541V35.9655Z" fill="black"/>
<path id="Vector_15" d="M71.2657 34.1343C71.7579 34.1343 72.0993 34.1858 72.4197 34.4658C72.774 34.778 72.865 35.1996 72.865 35.5118C72.865 35.6807 72.8391 36.149 72.5042 36.4789C72.2619 36.7186 71.9011 36.8619 71.3955 36.8619H70.8447V38.4663H69.9912V34.1343H71.2657ZM70.8447 36.1345H71.1925C71.3567 36.1345 71.5662 36.1345 71.7498 35.9977C71.9076 35.8738 71.9857 35.6791 71.9857 35.4908C71.9857 35.251 71.8672 35.0885 71.7434 34.9968C71.5662 34.8729 71.3433 34.86 71.1387 34.86H70.8447V36.1345Z" fill="black"/>
<path id="Vector_16" d="M75.9386 37.5571H74.173L73.7859 38.4663H72.8613L74.7454 34.1343H75.4152L77.2455 38.4663H76.3269L75.9386 37.5571ZM75.6883 36.8683L75.0642 35.309L74.4412 36.8683H75.6883Z" fill="black"/>
<path id="Vector_17" d="M77.8084 32.7312C78.0179 32.7312 78.1886 32.9517 78.1886 33.1995C78.1886 33.4473 78.0179 33.6677 77.8084 33.6677C77.5984 33.6677 77.4277 33.4473 77.4277 33.1995C77.4277 32.9517 77.5984 32.7312 77.8084 32.7312ZM78.7394 34.1344V38.4664H77.886V34.1344H78.7394ZM78.7933 32.7312C79.0033 32.7312 79.174 32.9517 79.174 33.1995C79.174 33.4473 79.0033 33.6677 78.7933 33.6677C78.5838 33.6677 78.4131 33.4473 78.4131 33.1995C78.4131 32.9517 78.5822 32.7312 78.7933 32.7312Z" fill="black"/>
<path id="Vector_18" d="M80.721 35.8096H82.5728V34.1328H83.4262V38.4647H82.5728V36.5353H80.721V38.4647H79.8691V34.1328H80.721V35.8096Z" fill="black"/>
<path id="Vector_19" d="M87.1457 37.5571H85.3806L84.9934 38.4663H84.0684L85.9524 34.1343H86.6207L88.4514 38.4663H87.5328L87.1457 37.5571ZM86.8953 36.8683L86.2728 35.309L85.6488 36.8683H86.8953Z" fill="black"/>
<path id="Vector_20" d="M17.5967 7.948C14.8298 7.948 13.4756 9.86934 13.4756 12.2381C13.4756 14.6068 14.8298 16.5282 17.5967 16.5282C20.3636 16.5282 21.7178 14.6068 21.7178 12.2381C21.7178 9.86934 20.3636 7.948 17.5967 7.948ZM17.5967 16.0535C15.9483 16.0535 15.2395 14.2914 15.2395 12.2397C15.2395 10.188 15.9222 8.44683 17.5707 8.44683C19.2191 8.44683 19.9555 10.188 19.9555 12.2397C19.9555 14.2914 19.2468 16.0535 17.5967 16.0535Z" fill="white"/>
<path id="Vector_21" d="M33.6955 15.7557V8.15869L32.0796 8.16187L32.0714 15.7557H29.6199V8.16187H27.9926L27.991 15.7476H25.4972V9.21914C25.4972 8.68649 25.0566 8.16187 24.5137 8.16187H23.1416V8.51429C23.5041 8.51429 23.8666 8.86671 23.8666 9.22075V16.3318H33.7313V18.4318H34.4563L34.8936 15.7557H33.6955Z" fill="white"/>
<path id="Vector_22" d="M43.4883 15.6335C42.9323 14.8707 40.3637 8.16681 40.3637 8.16681L40.3653 8.16357H39.5639L35.7744 16.3319H36.6653L37.6098 14.2496H41.0904L41.7488 15.6866C41.9341 16.0792 42.1958 16.3367 42.8575 16.3367H43.8411V15.899C43.7744 15.899 43.5858 15.767 43.4883 15.6335ZM37.8699 13.6735L39.507 9.879L40.8563 13.6735H37.8699Z" fill="white"/>
<path id="Vector_23" d="M69.7091 15.6335C69.1529 14.8707 66.5844 8.16681 66.5844 8.16681L66.586 8.16357H65.7843L61.9951 16.3319H62.8857L63.8307 14.2496H67.3108L67.9693 15.6866C68.1546 16.0792 68.4163 16.3367 69.078 16.3367H70.0618V15.899C69.9967 15.899 69.8066 15.767 69.7091 15.6335ZM64.0908 13.6735L65.7277 9.879L67.0771 13.6735H64.0908Z" fill="white"/>
<path id="Vector_24" d="M53.0538 15.8121C52.8035 15.8121 52.4475 15.4742 52.2247 15.0188C51.4135 13.3565 49.4497 8.16365 49.4497 8.16365H49.4481L48.6417 8.15234L45.1238 15.7574H44.6328L45.0636 18.4335H45.7887V16.3335H51.8947V18.4335H52.6198L53.0538 15.8121ZM48.6011 9.95948L48.6271 9.95791L50.4625 14.9576C50.6625 15.4308 50.9063 15.6898 51.2265 15.8121H46.0098L48.6011 9.95948Z" fill="white"/>
<path id="Vector_25" d="M57.8482 11.9742H56.0713V8.73812H59.3322L59.3338 10.8172H60.0069L60.5157 8.16363L53.7139 8.1604V8.51923C54.0764 8.51923 54.4389 8.87165 54.4389 9.22569V16.3351L57.8482 16.3319C60.1921 16.3319 60.7645 15.096 60.7645 14.0774C60.7645 12.9864 60.1921 11.9742 57.8482 11.9742ZM57.5262 15.7992H56.0713V12.5503H57.5407C58.8007 12.5503 59.155 13.3291 59.155 14.0372C59.155 14.6937 58.7846 15.7992 57.5262 15.7992Z" fill="white"/>
<path id="Vector_26" d="M76.7511 8.16187V11.9741H73.5795V9.22716C73.5795 8.69451 73.0303 8.16187 72.487 8.16187H71.1543V8.51429C71.5167 8.51429 71.8791 8.86671 71.8791 9.2207V16.3317H73.5795V12.5502H76.7511V16.3317H78.416V8.16187H76.7511Z" fill="white"/>
<path id="Vector_27" d="M87.468 15.2167C86.6846 14.4185 84.5173 12.0257 84.5173 12.0257V11.9613L87.9053 8.15713L86.8321 8.15552L83.436 11.9596H82.8868V9.22722C82.8868 8.69457 82.3376 8.16198 81.7943 8.16198H80.5752V8.51435C80.9537 8.51435 81.3 8.86677 81.3 9.22081C81.3 10.999 81.3 16.3318 81.3 16.3318H82.8868V12.5985H83.3569C83.7387 13.0813 85.7724 15.5707 85.7724 15.5707C86.3949 16.2819 87.125 16.4509 87.8649 16.4509H88.5213L88.5261 15.9923C88.3312 15.9923 87.9279 15.6849 87.468 15.2167Z" fill="white"/>
</g>
<defs>
<clipPath id="clip0_666_3745">
<rect width="100.154" height="49" fill="white" transform="translate(0.922852)"/>
</clipPath>
</defs>
</svg>
