<svg width="157" height="29" viewBox="0 0 157 29" fill="none" xmlns="http://www.w3.org/2000/svg">
<g id="iddEOJ7B36_logos 2" clip-path="url(#clip0_666_1857)">
<path id="Vector" d="M31.5918 3.8728H40.7298V6.00501H34.7683V22.3664H31.5918V3.8728Z" fill="#034EA2"/>
<path id="Vector_2" d="M51.1734 9.1814V22.4098H47.9968V11.1395H45.2554L44.8202 18.1454C44.7332 19.6684 44.3851 20.7998 43.7324 21.5395C43.0796 22.2792 42.2964 22.6708 41.3826 22.6708C40.9039 22.6708 40.5123 22.6274 40.2077 22.5403C39.8596 22.4533 39.6855 22.4098 39.6855 22.4098V21.1043C40.1642 21.1043 40.5558 20.8868 40.9475 20.4516C41.3391 20.0165 41.5567 19.2767 41.6437 18.1888L42.1658 9.22493H51.1734V9.1814Z" fill="#034EA2"/>
<path id="Vector_3" d="M59.2232 10.6173C58.9186 10.6173 58.6576 10.7043 58.3965 10.8349C58.1354 10.9654 57.9178 11.27 57.7438 11.6616C57.5697 12.0533 57.3956 12.5754 57.3086 13.2281C57.2216 13.8809 57.1345 14.7512 57.1345 15.752C57.1345 16.7529 57.1781 17.6231 57.3086 18.2758C57.3956 18.9286 57.5697 19.4943 57.7438 19.8424C57.9178 20.234 58.1789 20.4951 58.3965 20.6692C58.6576 20.7997 58.9186 20.8867 59.2232 20.8867C59.5278 20.8867 59.7889 20.7997 60.05 20.6692C60.3111 20.5386 60.5289 20.234 60.7028 19.8424C60.8768 19.4507 61.0507 18.9286 61.1376 18.2758C61.2252 17.6231 61.3121 16.7529 61.3121 15.752C61.3121 14.7512 61.2687 13.8809 61.1376 13.2281C61.0507 12.5754 60.8768 12.0098 60.7028 11.6616C60.5289 11.27 60.2676 11.009 60.05 10.8349C59.7889 10.7043 59.5278 10.6173 59.2232 10.6173ZM59.2232 8.87671C60.0935 8.87671 60.8333 9.00726 61.486 9.26836C62.1388 9.52947 62.7046 9.92106 63.1394 10.4433C63.5747 11.009 63.9226 11.7052 64.1405 12.5754C64.3579 13.4458 64.4884 14.4901 64.4884 15.752C64.4884 17.0139 64.3579 18.0583 64.1405 18.9286C63.9226 19.7988 63.5747 20.4951 63.1394 21.0608C62.7046 21.6264 62.1388 22.0181 61.486 22.2357C60.8333 22.4968 60.0935 22.6273 59.2232 22.6273C58.3529 22.6273 57.6132 22.4968 56.9605 22.2357C56.3078 21.9746 55.7421 21.583 55.3069 21.0608C54.8718 20.4951 54.5237 19.7988 54.3061 18.9286C54.0886 18.0583 53.958 17.0139 53.958 15.752C53.958 14.4901 54.0886 13.4458 54.3061 12.5754C54.5237 11.7052 54.8718 11.009 55.3069 10.4433C55.7421 9.87758 56.3078 9.48593 56.9605 9.26836C57.6132 9.00726 58.3529 8.87671 59.2232 8.87671Z" fill="#034EA2"/>
<path id="Vector_4" d="M70.0581 16.1872C70.0581 17.101 70.1015 17.8843 70.232 18.4934C70.363 19.1026 70.4934 19.5813 70.7108 19.9294C70.8847 20.2775 71.1462 20.5387 71.4071 20.7127C71.6679 20.8432 71.9294 20.9302 72.1902 20.9302C72.4517 20.9302 72.7126 20.8432 72.9734 20.7127C73.2349 20.5821 73.4523 20.321 73.6262 19.9294C73.8007 19.5813 73.9746 19.1026 74.105 18.4934C74.2355 17.8843 74.279 17.101 74.279 16.1872C74.279 15.2734 74.2355 14.5336 74.105 13.968C73.9746 13.3587 73.8007 12.9236 73.5827 12.532C73.3653 12.1838 73.0604 11.9228 72.756 11.7922C72.4082 11.6617 72.0598 11.5747 71.6679 11.5747C71.2766 11.5747 70.9282 11.6182 70.6673 11.7487C70.4065 11.8357 70.232 11.9663 70.0581 12.1404V16.1872ZM70.0581 10.3562C70.3195 10.1822 70.6673 10.0081 71.0592 9.87757C71.4505 9.74708 71.9294 9.70354 72.4517 9.70354C74.0181 9.70354 75.2801 10.2257 76.1503 11.2266C77.0204 12.2274 77.4558 13.8809 77.4558 16.1872C77.4558 18.4934 77.0204 20.147 76.1068 21.1478C75.1932 22.1487 73.8877 22.6708 72.1902 22.6708C70.45 22.6708 69.1444 22.1487 68.2308 21.1478C67.3166 20.147 66.8818 18.4934 66.8818 16.1872V11.8357C66.8818 10.3562 67.0123 9.09432 67.2731 8.0935C67.5346 7.09269 67.9259 6.2659 68.4917 5.65669C69.0575 5.04749 69.7537 4.56884 70.6673 4.30774C71.5375 4.00315 72.6256 3.82909 73.9311 3.78557L77.1074 3.65503L77.2378 4.96046C76.7596 5.13452 76.2372 5.35209 75.5845 5.48264C74.9317 5.65669 74.279 5.78723 73.5392 5.87427C72.93 5.96129 72.4082 6.04834 71.9729 6.2659C71.5375 6.43993 71.1897 6.70103 70.8847 7.04915C70.6239 7.39727 70.4065 7.8324 70.2754 8.39808C70.1015 8.87675 70.0581 9.57299 70.0581 10.3562Z" fill="#034EA2"/>
<path id="Vector_5" d="M87.1159 9.1814H90.1623L87.6382 22.6708C87.2904 24.542 86.7246 25.8909 85.9414 26.7177C85.1582 27.5445 84.157 27.9796 82.895 27.9796C82.3732 27.9796 81.8944 27.9361 81.4155 27.8056C80.9808 27.7185 80.5889 27.588 80.2411 27.4139V26.1085H81.9814C82.3292 26.1085 82.6341 26.065 82.895 25.978C83.1564 25.8909 83.4173 25.7169 83.5912 25.4558C83.8092 25.1947 83.9831 24.8466 84.157 24.4114C84.3309 23.9763 84.4619 23.4106 84.6359 22.7144C83.8527 22.7144 83.1564 22.4098 82.5472 21.8441C81.9379 21.2349 81.546 20.4951 81.3286 19.5378L78.9355 9.22493H81.9814L84.3744 19.5378C84.4179 19.7554 84.5054 19.9294 84.5489 20.06C84.6359 20.1905 84.6793 20.2776 84.7663 20.3211C84.8532 20.4081 84.9402 20.4516 85.0272 20.4516L87.1159 9.1814Z" fill="#034EA2"/>
<path id="Vector_6" d="M97.8211 10.748C97.4292 10.748 97.0379 10.8351 96.7329 10.9656C96.4286 11.0961 96.1237 11.4008 95.9063 11.7489C95.6889 12.1405 95.4709 12.6627 95.384 13.3154C95.2535 13.9681 95.21 14.7949 95.21 15.7522C95.21 16.753 95.297 17.5798 95.4274 18.2325C95.5579 18.8853 95.7324 19.4074 95.9932 19.7991C96.2541 20.1907 96.559 20.4518 96.9068 20.5823C97.2553 20.7129 97.69 20.7999 98.1254 20.7999H101.041V22.1053C100.649 22.2358 100.127 22.3664 99.5179 22.4969C98.9086 22.5839 98.2558 22.671 97.6031 22.671C96.6895 22.671 95.8628 22.5405 95.1666 22.2794C94.4703 22.0183 93.9045 21.6267 93.4257 21.1045C92.9474 20.5388 92.599 19.8425 92.3816 18.9723C92.1642 18.102 92.0332 17.0576 92.0332 15.7957C92.0332 14.5338 92.1642 13.4895 92.3816 12.6191C92.599 11.7489 92.9474 11.0527 93.3822 10.487C93.8176 9.92129 94.3834 9.52963 95.0361 9.31206C95.6889 9.05096 96.4286 8.92041 97.2987 8.92041C97.9515 8.92041 98.6043 8.96395 99.2135 9.0945C99.8222 9.18151 100.345 9.31206 100.736 9.48609V10.7915H97.8211V10.748Z" fill="#034EA2"/>
<path id="Vector_7" d="M110.353 13.1411V20.6691H111.789C112.789 20.6691 113.572 20.3645 114.051 19.7988C114.574 19.2331 114.834 18.2758 114.834 16.9704C114.834 15.5779 114.574 14.5771 114.051 14.0114C113.529 13.4457 112.789 13.1411 111.789 13.1411H110.353ZM110.353 11.0089H111.789C113.964 11.0089 115.574 11.4876 116.531 12.4449C117.489 13.4022 118.011 14.9252 118.011 16.9704C118.011 18.885 117.532 20.321 116.531 21.2348C115.574 22.1486 113.964 22.6273 111.789 22.6273C110.787 22.6273 109.917 22.5838 109.221 22.4968C108.525 22.4097 107.829 22.2792 107.176 22.1051V3.87256H117.097V6.00476H110.353V11.0089Z" fill="#034EA2"/>
<path id="Vector_8" d="M126.627 16.0132H125.191C124.973 16.0132 124.712 16.0567 124.495 16.1002C124.278 16.1872 124.06 16.3178 123.842 16.4919C123.668 16.6659 123.494 16.927 123.363 17.2316C123.233 17.5361 123.19 17.9278 123.19 18.3629C123.19 18.8416 123.233 19.1897 123.363 19.4943C123.494 19.7989 123.625 20.06 123.842 20.2341C124.016 20.4081 124.234 20.5386 124.495 20.6257C124.712 20.7127 124.973 20.7127 125.191 20.7127C125.539 20.7127 125.801 20.6692 126.061 20.5386C126.322 20.4516 126.497 20.3211 126.627 20.1471V16.0132ZM124.103 22.6274C123.537 22.6274 123.016 22.5838 122.537 22.4533C122.058 22.3228 121.623 22.1052 121.231 21.8006C120.883 21.496 120.579 21.0609 120.361 20.4952C120.144 19.9295 120.013 19.2333 120.013 18.3629C120.013 17.4927 120.144 16.7964 120.361 16.2307C120.579 15.6651 120.883 15.2734 121.275 14.9253C121.667 14.6207 122.101 14.4031 122.667 14.2726C123.19 14.142 123.755 14.0985 124.408 14.0985C124.799 14.0985 125.191 14.142 125.583 14.1856C125.974 14.2291 126.322 14.3161 126.671 14.3596V13.3153C126.671 12.2709 126.41 11.5747 125.931 11.1831C125.452 10.835 124.756 10.6609 123.886 10.6609H121.231V9.35548C121.623 9.22493 122.145 9.09437 122.711 8.96382C123.32 8.87681 123.842 8.78979 124.408 8.78979C125.322 8.78979 126.105 8.83327 126.758 8.96382C127.41 9.09437 127.976 9.31194 128.454 9.61652C128.933 9.92116 129.238 10.3998 129.499 11.009C129.717 11.6182 129.847 12.358 129.847 13.2718V22.2792H127.584L127.193 21.496H127.062C126.801 21.7571 126.41 22.0181 125.931 22.2357C125.452 22.5403 124.843 22.6274 124.103 22.6274Z" fill="#034EA2"/>
<path id="Vector_9" d="M136.375 22.3663H133.241V9.1814H136.375V14.7077H139.943V9.1814H143.119V22.3663H139.943V16.7094H136.375V22.3663Z" fill="#034EA2"/>
<path id="Vector_10" d="M152.605 15.4041C153.084 15.4911 153.519 15.7522 153.954 16.1003C154.389 16.4919 154.694 17.0576 154.868 17.8409L155.39 19.9731C155.477 20.2342 155.608 20.4953 155.912 20.7128C156.173 20.9304 156.521 21.0609 157 21.0609V22.3664C156.87 22.4099 156.696 22.4534 156.478 22.4969C156.13 22.584 155.738 22.6275 155.26 22.6275C154.389 22.6275 153.736 22.4099 153.215 22.0183C152.736 21.6266 152.387 21.0609 152.213 20.4082L151.561 17.8844C151.43 17.4057 151.256 17.0576 150.995 16.7966C150.734 16.5355 150.43 16.4049 150.125 16.4049H149.733V22.3664H146.557V9.18153H149.733V14.4468H150.125C150.299 14.4468 150.517 14.3598 150.691 14.1857C150.864 14.0116 151.082 13.62 151.343 13.0108L152.127 11.0091C152.387 10.3564 152.736 9.83423 153.171 9.44264C153.606 9.05098 154.215 8.87695 155.042 8.87695C155.26 8.87695 155.477 8.87695 155.695 8.92043C155.912 8.96397 156.087 8.96397 156.26 9.00744C156.434 9.05098 156.608 9.09452 156.783 9.138V10.4435C156.304 10.4435 156 10.5305 155.782 10.7046C155.564 10.8786 155.434 11.0527 155.347 11.2267L154.694 12.9673C154.433 13.707 154.128 14.2727 153.78 14.6208C153.476 14.9689 153.084 15.1865 152.692 15.317V15.4041H152.605Z" fill="#034EA2"/>
<path id="Vector_11" d="M3.78595 15.7524C3.78595 16.7532 3.0027 17.5364 2.00187 17.5364C1.00103 17.5364 0.217773 16.7097 0.217773 15.7524C0.217773 14.7515 1.00103 13.9683 2.00187 13.9683C3.0027 13.9683 3.78595 14.795 3.78595 15.7524Z" fill="#034EA2"/>
<path id="Vector_12" d="M4.78659 19.2334C4.78659 20.1472 4.04685 20.8869 3.13304 20.8869C2.21924 20.8869 1.47949 20.1472 1.47949 19.2334C1.47949 18.3196 2.21924 17.5798 3.13304 17.5798C4.04685 17.5798 4.78659 18.3196 4.78659 19.2334Z" fill="#034EA2"/>
<path id="Vector_13" d="M3.3071 11.8796C3.3071 12.7934 2.56735 13.5332 1.65355 13.5332C0.739747 13.5332 0 12.7934 0 11.8796C0 10.9658 0.739747 10.2261 1.65355 10.2261C2.52383 10.2261 3.3071 10.9658 3.3071 11.8796Z" fill="#034EA2"/>
<path id="Vector_14" d="M7.04981 22.0618C7.04981 22.8885 6.39711 23.5413 5.57032 23.5413C4.74354 23.5413 4.09082 22.8885 4.09082 22.0618C4.09082 21.235 4.74354 20.5823 5.57032 20.5823C6.35358 20.5823 7.04981 21.235 7.04981 22.0618Z" fill="#034EA2"/>
<path id="Vector_15" d="M4.04688 8.39816C4.04688 9.22495 3.39415 9.87765 2.56738 9.87765C1.74061 9.87765 1.08789 9.22495 1.08789 8.39816C1.08789 7.57144 1.74061 6.91868 2.56738 6.91868C3.39415 6.8752 4.04688 7.57144 4.04688 8.39816Z" fill="#034EA2"/>
<path id="Vector_16" d="M7.04981 15.0559C7.04981 15.8827 6.39711 16.5354 5.57032 16.5354C4.74354 16.5354 4.09082 15.8827 4.09082 15.0559C4.09082 14.2291 4.74354 13.5764 5.57032 13.5764C6.35358 13.5764 7.04981 14.2291 7.04981 15.0559Z" fill="#034EA2"/>
<path id="Vector_17" d="M9.66004 24.2375C9.66004 25.0207 9.00734 25.6735 8.22409 25.6735C7.44084 25.6735 6.78809 25.0207 6.78809 24.2375C6.78809 23.4542 7.44084 22.8015 8.22409 22.8015C9.00734 22.8015 9.66004 23.4542 9.66004 24.2375Z" fill="#034EA2"/>
<path id="Vector_18" d="M5.9618 5.43915C5.9618 6.22242 5.30908 6.87512 4.52582 6.87512C3.74256 6.87512 3.08984 6.22242 3.08984 5.43915C3.08984 4.65589 3.74256 4.00317 4.52582 4.00317C5.35259 4.00317 5.9618 4.65589 5.9618 5.43915Z" fill="#034EA2"/>
<path id="Vector_19" d="M12.4018 25.1948C12.4018 25.891 11.8361 26.4567 11.1398 26.4567C10.4436 26.4567 9.87793 25.891 9.87793 25.1948C9.87793 24.4985 10.4436 23.9329 11.1398 23.9329C11.8361 23.9329 12.4018 24.4985 12.4018 25.1948Z" fill="#034EA2"/>
<path id="Vector_20" d="M7.78948 3.22017C7.78948 3.9164 7.2238 4.48209 6.52756 4.48209C5.83131 4.48209 5.26562 3.9164 5.26562 3.22017C5.26562 2.52394 5.83131 1.95825 6.52756 1.95825C7.2238 1.95825 7.78948 2.52394 7.78948 3.22017Z" fill="#034EA2"/>
<path id="Vector_21" d="M14.9696 25.6736C14.9696 26.2393 14.4909 26.7179 13.9252 26.7179C13.3595 26.7179 12.8809 26.2393 12.8809 25.6736C12.8809 25.0643 13.3595 24.6292 13.9252 24.6292C14.4909 24.5857 14.9696 25.0643 14.9696 25.6736Z" fill="#034EA2"/>
<path id="Vector_22" d="M10.1385 1.95816C10.1385 2.52385 9.65984 3.00251 9.09416 3.00251C8.52847 3.00251 8.0498 2.52385 8.0498 1.95816C8.0498 1.39248 8.52847 0.913818 9.09416 0.913818C9.65984 0.913818 10.1385 1.39248 10.1385 1.95816Z" fill="#034EA2"/>
<path id="Vector_23" d="M7.04962 9.18162C7.04962 9.79085 6.57095 10.226 6.00528 10.226C5.39608 10.226 4.96094 9.74731 4.96094 9.18162C4.96094 8.61594 5.43959 8.13727 6.00528 8.13727C6.57095 8.09374 7.04962 8.5724 7.04962 9.18162Z" fill="#034EA2"/>
<path id="Vector_24" d="M9.79085 14.4033C9.79085 14.969 9.31218 15.4476 8.7465 15.4476C8.18082 15.4476 7.70215 14.969 7.70215 14.4033C7.70215 13.7941 8.18082 13.359 8.7465 13.359C9.31218 13.3154 9.79085 13.7941 9.79085 14.4033Z" fill="#034EA2"/>
<path id="Vector_25" d="M8.92074 20.2778C8.92074 20.8869 8.44207 21.3221 7.87638 21.3221C7.26716 21.3221 6.83203 20.8434 6.83203 20.2778C6.83203 19.6685 7.3107 19.2334 7.87638 19.2334C8.44207 19.2334 8.92074 19.7121 8.92074 20.2778Z" fill="#034EA2"/>
<path id="Vector_26" d="M12.8368 1.26194C12.8368 1.82762 12.3581 2.30629 11.7924 2.30629C11.2267 2.30629 10.748 1.82762 10.748 1.26194C10.748 0.652739 11.2267 0.217592 11.7924 0.217592C12.3581 0.174078 12.8368 0.652739 12.8368 1.26194Z" fill="#034EA2"/>
<path id="Vector_27" d="M17.6665 25.3254C17.6665 25.8041 17.2748 26.2392 16.7527 26.2392C16.2305 26.2392 15.8389 25.8476 15.8389 25.3254C15.8389 24.8033 16.2305 24.4116 16.7527 24.4116C17.2748 24.4116 17.6665 24.8468 17.6665 25.3254Z" fill="#034EA2"/>
<path id="Vector_28" d="M15.4038 0.9138C15.4038 1.43598 15.0122 1.82761 14.49 1.82761C13.9678 1.82761 13.5762 1.43598 13.5762 0.9138C13.5762 0.391629 13.9678 0 14.49 0C15.0122 0 15.4038 0.391629 15.4038 0.9138Z" fill="#034EA2"/>
<path id="Vector_29" d="M9.61666 9.26854C9.61666 9.79074 9.22507 10.1823 8.70286 10.1823C8.18072 10.1823 7.78906 9.79074 7.78906 9.26854C7.78906 8.74639 8.18072 8.35474 8.70286 8.35474C9.22507 8.39827 9.61666 8.78987 9.61666 9.26854Z" fill="#034EA2"/>
<path id="Vector_30" d="M11.9666 9.22506C11.9666 9.70373 11.575 10.0518 11.1399 10.0518C10.6612 10.0518 10.2695 9.66019 10.2695 9.22506C10.2695 8.74639 10.6612 8.35474 11.1399 8.35474C11.575 8.39827 11.9666 8.74639 11.9666 9.22506Z" fill="#034EA2"/>
<path id="Vector_31" d="M12.4017 13.9682C12.4017 14.4469 12.0101 14.8385 11.5315 14.8385C11.0528 14.8385 10.6611 14.4469 10.6611 13.9682C10.6611 13.4896 11.0528 13.0979 11.5315 13.0979C12.0101 13.0979 12.4017 13.4896 12.4017 13.9682Z" fill="#034EA2"/>
<path id="Vector_32" d="M11.0961 18.8853C11.0961 19.3639 10.7044 19.7556 10.2257 19.7556C9.74712 19.7556 9.35547 19.3639 9.35547 18.8853C9.35547 18.4066 9.74712 18.0585 10.2257 18.0585C10.7044 18.015 11.0961 18.4066 11.0961 18.8853Z" fill="#034EA2"/>
<path id="Vector_33" d="M20.1039 24.6291C20.1039 25.1078 19.7122 25.4994 19.2335 25.4994C18.7549 25.4994 18.3633 25.1078 18.3633 24.6291C18.3633 24.1504 18.7549 23.7588 19.2335 23.7588C19.7122 23.7588 20.1039 24.1504 20.1039 24.6291Z" fill="#034EA2"/>
<path id="Vector_34" d="M17.6673 1.26189C17.6673 1.74055 17.2757 2.13218 16.797 2.13218C16.3184 2.13218 15.9268 1.74055 15.9268 1.26189C15.9268 0.783233 16.3184 0.391602 16.797 0.391602C17.2757 0.391602 17.6673 0.783233 17.6673 1.26189Z" fill="#034EA2"/>
<path id="Vector_35" d="M22.0184 23.3673C22.0184 23.759 21.7139 24.0635 21.3222 24.0635C20.9306 24.0635 20.626 23.759 20.626 23.3673C20.626 22.9757 20.9306 22.6711 21.3222 22.6711C21.7139 22.7146 22.0184 23.0193 22.0184 23.3673Z" fill="#034EA2"/>
<path id="Vector_36" d="M19.9296 1.95819C19.9296 2.34982 19.625 2.65443 19.2333 2.65443C18.8417 2.65443 18.5371 2.34982 18.5371 1.95819C18.5371 1.56656 18.8417 1.26196 19.2333 1.26196C19.625 1.30548 19.9296 1.61008 19.9296 1.95819Z" fill="#034EA2"/>
<path id="Vector_37" d="M13.7938 9.05097C13.7938 9.44263 13.4893 9.74721 13.0976 9.74721C12.706 9.74721 12.4014 9.44263 12.4014 9.05097C12.4014 8.65938 12.706 8.35474 13.0976 8.35474C13.4893 8.39827 13.7938 8.70285 13.7938 9.05097Z" fill="#034EA2"/>
<path id="Vector_38" d="M15.0126 13.3154C15.0126 13.707 14.708 14.0116 14.3164 14.0116C13.9248 14.0116 13.6201 13.707 13.6201 13.3154C13.6201 12.9237 13.9248 12.6191 14.3164 12.6191C14.708 12.6626 15.0126 12.9673 15.0126 13.3154Z" fill="#034EA2"/>
<path id="Vector_39" d="M15.6219 17.3623C15.6219 17.7538 15.3173 18.0585 14.9257 18.0585C14.5341 18.0585 14.2295 17.7538 14.2295 17.3623C14.2295 16.9706 14.5341 16.666 14.9257 16.666C15.3173 16.666 15.6219 16.9706 15.6219 17.3623Z" fill="#034EA2"/>
<path id="Vector_40" d="M13.4891 18.0151C13.4891 18.4067 13.1846 18.7113 12.7929 18.7113C12.4013 18.7113 12.0967 18.4067 12.0967 18.0151C12.0967 17.6235 12.4013 17.3188 12.7929 17.3188C13.1846 17.3624 13.4891 17.667 13.4891 18.0151Z" fill="#034EA2"/>
<path id="Vector_41" d="M21.7571 3.22015C21.7571 3.61178 21.4526 3.91638 21.1044 3.91638C20.7128 3.91638 20.4082 3.61178 20.4082 3.22015C20.4082 2.82852 20.7128 2.52393 21.1044 2.52393C21.4526 2.56744 21.7571 2.82852 21.7571 3.22015Z" fill="#034EA2"/>
<path id="Vector_42" d="M23.0621 4.39485C23.0621 4.74296 22.801 5.00405 22.4529 5.00405C22.1048 5.00405 21.8438 4.74296 21.8438 4.39485C21.8438 4.04673 22.1048 3.78564 22.4529 3.78564C22.801 3.82916 23.0621 4.09024 23.0621 4.39485Z" fill="#034EA2"/>
<path id="Vector_43" d="M15.5778 8.70297C15.5778 9.05109 15.3167 9.31213 14.9685 9.31213C14.6205 9.31213 14.3594 9.05109 14.3594 8.70297C14.3594 8.35485 14.6205 8.09375 14.9685 8.09375C15.3167 8.09375 15.5778 8.35485 15.5778 8.70297Z" fill="#034EA2"/>
<path id="Vector_44" d="M17.8844 12.9674C17.8844 13.3155 17.6233 13.5766 17.2752 13.5766C16.9271 13.5766 16.666 13.3155 16.666 12.9674C16.666 12.6193 16.9271 12.3582 17.2752 12.3582C17.6233 12.3582 17.8844 12.6193 17.8844 12.9674Z" fill="#034EA2"/>
<path id="Vector_45" d="M17.275 17.3621C17.275 17.7103 17.014 17.9714 16.6659 17.9714C16.3177 17.9714 16.0566 17.7103 16.0566 17.3621C16.0566 17.014 16.3177 16.7529 16.6659 16.7529C17.014 16.7529 17.275 17.014 17.275 17.3621Z" fill="#034EA2"/>
<path id="Vector_46" d="M17.2748 8.05015C17.2748 8.35473 17.0572 8.5723 16.7526 8.5723C16.448 8.5723 16.2305 8.31126 16.2305 8.05015C16.2305 7.74557 16.4915 7.52795 16.7526 7.52795C17.0137 7.48447 17.2748 7.74557 17.2748 8.05015Z" fill="#034EA2"/>
<path id="Vector_47" d="M23.4113 21.8443C23.4113 22.1054 23.1937 22.2794 22.9761 22.2794C22.715 22.2794 22.541 22.0619 22.541 21.8443C22.541 21.5832 22.7586 21.4092 22.9761 21.4092C23.2372 21.4092 23.4113 21.5832 23.4113 21.8443Z" fill="#034EA2"/>
<path id="Vector_48" d="M23.8898 6.00497C23.8898 6.26603 23.6722 6.44012 23.4547 6.44012C23.1936 6.44012 23.0195 6.22256 23.0195 6.00497C23.0195 5.74388 23.2371 5.56982 23.4547 5.56982C23.6722 5.56982 23.8898 5.7874 23.8898 6.00497Z" fill="#034EA2"/>
<path id="Vector_49" d="M18.798 7.35403C18.798 7.61513 18.5804 7.78922 18.3629 7.78922C18.1018 7.78922 17.9277 7.57165 17.9277 7.35403C17.9277 7.09298 18.1453 6.91889 18.3629 6.91889C18.624 6.87542 18.798 7.09298 18.798 7.35403Z" fill="#034EA2"/>
<path id="Vector_50" d="M19.6681 12.358C19.6681 12.6191 19.4505 12.7931 19.233 12.7931C18.9719 12.7931 18.7979 12.5755 18.7979 12.358C18.7979 12.0969 19.0154 11.9229 19.233 11.9229C19.4941 11.9229 19.6681 12.0969 19.6681 12.358Z" fill="#034EA2"/>
<path id="Vector_51" d="M19.0158 17.3623C19.0158 17.6234 18.7983 17.7975 18.5806 17.7975C18.3196 17.7975 18.1455 17.5799 18.1455 17.3623C18.1455 17.1012 18.3631 16.9272 18.5806 16.9272C18.7983 16.8837 19.0158 17.1012 19.0158 17.3623Z" fill="#034EA2"/>
<path id="Vector_52" d="M20.2784 6.39674C20.2784 6.61431 20.1043 6.78839 19.8867 6.78839C19.6691 6.78839 19.4951 6.61431 19.4951 6.39674C19.4951 6.17917 19.6691 6.00513 19.8867 6.00513C20.0608 6.00513 20.2784 6.17917 20.2784 6.39674Z" fill="#034EA2"/>
<path id="Vector_53" d="M21.7569 11.923C21.7569 12.1405 21.5829 12.3146 21.3653 12.3146C21.1477 12.3146 20.9736 12.1405 20.9736 11.923C20.9736 11.7054 21.1477 11.5313 21.3653 11.5313C21.5829 11.4878 21.7569 11.6619 21.7569 11.923Z" fill="#034EA2"/>
<path id="Vector_54" d="M20.67 17.3623C20.67 17.5799 20.4959 17.7539 20.2783 17.7539C20.0607 17.7539 19.8867 17.5799 19.8867 17.3623C19.8867 17.1447 20.0607 16.9707 20.2783 16.9707C20.4959 16.9272 20.67 17.1447 20.67 17.3623Z" fill="#034EA2"/>
</g>
<defs>
<clipPath id="clip0_666_1857">
<rect width="157" height="28.3808" fill="white"/>
</clipPath>
</defs>
</svg>
