<svg width="103" height="38" viewBox="0 0 103 38" fill="none" xmlns="http://www.w3.org/2000/svg">
<g id="Group 153">
<path id="Vector" fill-rule="evenodd" clip-rule="evenodd" d="M63.5312 18.8968C63.5312 8.47996 72.2617 0.0354614 83.0312 0.0354614C93.8008 0.0354614 102.531 8.47996 102.531 18.8968C102.531 29.3137 93.8008 37.7582 83.0312 37.7582C72.2617 37.7582 63.5312 29.3137 63.5312 18.8968Z" fill="#FFF200"/>
<path id="Vector_2" fill-rule="evenodd" clip-rule="evenodd" d="M83.0691 26.9129C78.5191 26.9129 74.7435 23.3176 74.7435 18.8968C74.7435 14.477 78.6194 10.8808 82.9196 10.8808V13.2016C80.0531 13.2016 77.1318 15.756 77.1318 18.8968C77.1318 22.0368 79.7996 24.5921 83.031 24.5921C86.2624 24.5921 88.9116 22.0368 88.9116 18.8968C88.9116 17.9304 88.6693 16.9882 88.1966 16.1538C86.6041 17.7939 84.1871 20.3797 84.1564 20.412L83.3644 21.2617L79.8544 18.2259L81.4431 16.4924L83.1898 18.0032C84.3811 16.7385 86.5763 14.4186 87.4993 13.5222L88.3944 12.6537L89.2357 13.5725C90.5797 15.0413 91.3206 16.9354 91.3185 18.8968C91.3185 23.3176 87.6191 26.9129 83.0691 26.9129ZM2.90921 17.5855V23.1155H6.00136C7.21902 23.1155 8.13831 22.8864 8.75921 22.4284C9.38012 21.9703 9.69057 21.2476 9.69057 20.2602C9.69057 19.3525 9.37393 18.6798 8.74064 18.2421C8.10798 17.8038 7.14629 17.5846 5.85557 17.5846L2.90921 17.5855ZM2.90921 15.2683H5.71071C6.92776 15.2683 7.8161 15.079 8.37571 14.7006C8.93657 14.3228 9.217 13.6797 9.217 12.7714C9.217 11.9511 8.9146 11.358 8.30979 10.9921C7.70498 10.6257 6.74545 10.4424 5.43121 10.4424H2.90829L2.90921 15.2683ZM0 8.05334H5.28357C7.735 8.05334 9.50609 8.40363 10.5969 9.10419C11.6889 9.80476 12.2349 10.9116 12.2349 12.4247C12.2349 13.4438 11.9671 14.2917 11.4316 14.9683C10.8955 15.6449 10.1248 16.0709 9.1195 16.2464V16.3658C10.3675 16.5969 11.2865 17.0529 11.8764 17.7337C12.4645 18.4139 12.7586 19.3354 12.7586 20.4982C12.7586 22.067 12.2005 23.2951 11.0844 24.1825C9.96821 25.0699 8.41595 25.5145 6.42757 25.5163H0V8.05334ZM18.6745 12.3061V17.131C18.6745 18.4849 19.3889 19.1615 20.8176 19.1609C21.5073 19.1609 22.1808 19.0675 22.8382 18.8807C23.4956 18.6938 24.2017 18.3933 24.9563 17.9789V12.3061H27.8172V25.5154H24.9572V19.9144C24.1692 20.3923 23.408 20.7443 22.6739 20.9707C21.8952 21.2039 21.0839 21.319 20.2689 21.312C18.8655 21.312 17.7701 20.9557 16.9826 20.2432C16.1952 19.5306 15.8015 18.5331 15.8015 17.2505V12.3061H18.6745ZM36.0722 23.6041C37.111 23.6041 37.9451 23.3197 38.5747 22.7508C39.2024 22.1814 39.5166 21.3829 39.5172 20.3554V19.2094L37.7882 19.2812C36.4412 19.3291 35.4615 19.5501 34.8493 19.9441C34.2364 20.3381 33.93 20.941 33.93 21.753C33.93 22.3428 34.1086 22.7987 34.4658 23.1209C34.8217 23.4436 35.3572 23.6047 36.0722 23.6041ZM40.3334 25.5154L39.7614 23.6759H39.6639C39.0139 24.4801 38.3605 25.0277 37.7037 25.3187C37.0463 25.6091 36.2022 25.7543 35.1715 25.7543C33.8486 25.7543 32.8157 25.404 32.0729 24.7034C31.33 24.0029 30.9586 23.0116 30.9586 21.7296C30.9586 20.368 31.4742 19.3408 32.5056 18.648C33.5357 17.9553 35.1059 17.5771 37.2162 17.5137L39.5414 17.4418V16.7367C39.5414 15.8925 39.3408 15.2614 38.9396 14.8434C38.5373 14.4255 37.9142 14.2165 37.0704 14.2165C36.3808 14.2165 35.7194 14.3162 35.0861 14.5156C34.4534 14.7144 33.8446 14.9491 33.2596 15.2198L32.3347 13.2133C33.0922 12.8293 33.8982 12.5425 34.7323 12.36C35.538 12.172 36.3633 12.0737 37.1921 12.0672C38.905 12.0672 40.1975 12.4334 41.0698 13.1657C41.942 13.898 42.3785 15.0485 42.3791 16.6173V25.5154H40.3334ZM51.8004 25.7543C49.7637 25.7543 48.2158 25.1711 47.1566 24.0047C46.098 22.8376 45.5684 21.1638 45.5678 18.983C45.5678 16.7616 46.1218 15.0533 47.2299 13.8581C48.3368 12.6636 49.9373 12.0663 52.0316 12.0663C53.4517 12.0669 54.73 12.3259 55.8666 12.8432L55.003 15.1012C53.7934 14.6389 52.7949 14.4078 52.0074 14.4078C49.6786 14.4078 48.5141 15.9248 48.5141 18.9588C48.5141 20.4402 48.8042 21.5527 49.3842 22.2964C49.9643 23.0418 50.8142 23.4143 51.9341 23.4137C53.2081 23.4137 54.4137 23.1032 55.5509 22.4823V24.9307C55.0395 25.2253 54.4935 25.4363 53.9129 25.5639C53.3328 25.6908 52.6286 25.7543 51.8004 25.7543ZM61.5773 12.3061V17.6089H67.9194V12.3061H70.7804V25.5154H67.9203V19.8183H61.5773V25.5154H58.7164V12.3061H61.5773Z" fill="black"/>
</g>
</svg>
