<svg width="40" height="39" viewBox="0 0 40 39" fill="none" xmlns="http://www.w3.org/2000/svg">
<g id="DiiaLogo 1" clip-path="url(#clip0_142_875)">
<path id="Vector" d="M19.9551 39C28.5 39 33.2502 39 36.3526 35.8976C39.4551 32.7951 39.4551 28.0478 39.4551 19.5C39.4551 10.9522 39.4551 6.20486 36.3526 3.10243C33.2502 0 28.5 0 19.9551 0C11.4101 0 6.65994 0 3.55751 3.10243C0.455078 6.20486 0.455078 10.9551 0.455078 19.5C0.455078 28.0449 0.455078 32.7951 3.55751 35.8976C6.65994 39 11.4101 39 19.9551 39Z" fill="black"/>
<path id="Vector_2" d="M27.2789 15.6444C25.8058 15.6444 24.7125 16.7816 24.7125 18.1846C24.7125 19.3303 25.518 20.2241 26.5377 20.4886L24.4473 23.6908H26.3998L28.177 20.7107H29.5072V23.6908H31.1373V15.6444H27.2789ZM27.503 19.3494C26.8326 19.3494 26.4175 18.8232 26.4175 18.2235C26.4175 17.6238 26.798 17.0524 27.503 17.0524H29.5093V19.3494H27.503Z" fill="white"/>
<path id="Vector_3" d="M18.3516 15.6444L17.8105 17.1337L20.0304 17.121L18.7157 21.9426C18.3409 23.3485 19.8062 24.4107 21.0566 23.584L23.9002 21.6548L23.0628 20.4243L20.2228 22.3917L22.1371 15.6444H18.3516Z" fill="white"/>
<path id="Vector_4" d="M21.4131 14.6098C22.0361 14.6098 22.5411 14.1548 22.5411 13.5936C22.5411 13.0323 22.0361 12.5773 21.4131 12.5773C20.7902 12.5773 20.2852 13.0323 20.2852 13.5936C20.2852 14.1548 20.7902 14.6098 21.4131 14.6098Z" fill="white"/>
<path id="Vector_5" d="M15.6592 22.2057V13.7746H9.40409V18.2744C9.40409 20.3918 8.79097 21.7008 8.42959 22.2021H7.68848V25.8795H9.27468V23.7056H15.2052V25.8831H16.7907V22.2057H15.6592ZM10.9811 18.1818V15.2703H14.0326V22.2007H10.0936C10.4507 21.6166 10.9811 20.1301 10.9811 18.1818Z" fill="white"/>
</g>
<defs>
<clipPath id="clip0_142_875">
<rect width="39" height="39" fill="white" transform="translate(0.455078)"/>
</clipPath>
</defs>
</svg>
