<svg width="56" height="38" viewBox="0 0 56 38" fill="none" xmlns="http://www.w3.org/2000/svg">
<g id="Index">
<g id="Logo-/-M.E.Doc-/-Restyling-Copy-2">
<g id="Group">
<g id="Group-3">
<g id="Group-2">
<path id="Polygon" fill-rule="evenodd" clip-rule="evenodd" d="M17.759 0.20498L33.3955 9.00651C33.7931 9.2303 34.0376 9.64168 34.0376 10.0866V27.7069C34.0376 28.1518 33.7931 28.5632 33.3955 28.787L17.759 37.5885C17.3573 37.8146 16.861 37.8146 16.4593 37.5885L0.822816 28.787C0.42524 28.5632 0.180664 28.1518 0.180664 27.7069V10.0866C0.180664 9.64168 0.42524 9.2303 0.822816 9.00651L16.4593 0.20498C16.861 -0.0211261 17.3573 -0.0211261 17.759 0.20498Z" fill="#FFE200"/>
<path id="Polygon-Copy" fill-rule="evenodd" clip-rule="evenodd" d="M34.0392 9.80247V27.7068C34.0392 28.1517 33.7946 28.5631 33.397 28.7868L17.7605 37.5884C17.3588 37.8145 16.8625 37.8145 16.4608 37.5884L0.565973 28.6414C0.442629 28.572 0.400827 28.419 0.472607 28.2997C0.495118 28.2623 0.52729 28.2311 0.565973 28.2094L33.6508 9.58645C33.7741 9.51702 33.9323 9.55745 34.0041 9.67676C34.0271 9.71493 34.0392 9.7583 34.0392 9.80247Z" fill="#F7BE18"/>
</g>
<g id="Group_2">
<path id="Fill-4" fill-rule="evenodd" clip-rule="evenodd" d="M52.9651 21.2864C52.0283 21.2864 51.1995 22.1858 51.1995 23.7616C51.1995 25.7048 52.2191 26.644 53.2365 26.644C54.1878 26.644 54.6365 25.9297 54.8533 25.5858C55.0306 25.3078 55.0852 25.2154 55.2482 25.2154C55.3017 25.2154 55.5326 25.242 55.5326 25.534C55.5326 26.1013 54.8403 27.7029 52.9651 27.7029C51.1595 27.7029 50.0991 26.1819 50.0991 24.1839C50.0991 22.0665 51.1865 20.5316 53.1284 20.5316C54.6911 20.5316 55.4512 21.6966 55.4512 22.2129C55.4512 22.6352 55.0965 22.7682 54.8938 22.7682C54.6238 22.7682 54.4324 22.5831 54.3243 22.3709C54.0397 21.8291 53.7672 21.2864 52.9651 21.2864ZM45.8024 21.273C44.7301 21.273 44.0381 22.3709 44.0381 23.9469C44.0381 25.7981 44.9736 26.896 45.9527 26.896C46.9718 26.896 47.7735 25.8118 47.6919 23.9851C47.6103 22.1597 46.7142 21.273 45.8024 21.273ZM45.897 27.7029C43.8467 27.7029 42.773 25.905 42.773 24.132C42.773 22.279 43.9146 20.5316 45.8854 20.5316C48.0171 20.5316 48.9426 22.5434 48.9824 24.077C49.0088 25.8515 47.9087 27.7029 45.897 27.7029ZM40.4345 21.7103C40.1758 21.4978 39.8085 21.2193 39.1303 21.2193C37.879 21.2193 36.9835 22.4109 36.9835 24.0122C36.9835 25.8515 37.9204 26.8833 39.2254 26.8833C40.4061 26.8833 40.4202 26.222 40.4345 25.8381V21.7103ZM41.6549 26.1419C41.6549 26.3942 41.6549 26.6311 41.4663 26.8833C41.0035 27.5168 39.6717 27.7029 38.9527 27.7029C37.0235 27.7029 35.7598 26.5123 35.7598 24.3289C35.7598 22.5173 36.8483 20.5316 38.9527 20.5316C39.6604 20.5316 40.0801 20.7567 40.4345 20.9689V17.7139C40.4345 17.5017 40.4607 17.4219 40.6921 17.4219H41.3847C41.5885 17.4219 41.6701 17.4499 41.6549 17.6879V26.1419Z" fill="#F7BE18"/>
<path id="Fill-7" fill-rule="evenodd" clip-rule="evenodd" d="M31.6323 22.7103C31.5512 21.8634 30.8319 21.1875 29.7696 21.2369C28.6705 21.2882 28.0985 22.1062 27.9634 23.2573L31.6323 22.7103ZM27.9634 23.9068C28.0712 25.7582 29.0357 26.6168 30.068 26.6168C30.8819 26.6168 31.4947 26.1679 31.9423 25.4541C32.1323 25.1366 32.1731 25.0703 32.3367 25.0703C32.4183 25.0703 32.6081 25.1103 32.6081 25.387C32.6081 25.7311 32.0107 27.7028 29.892 27.7028C29.0765 27.7028 27.9755 27.3864 27.3649 26.1679C27.0119 25.5076 26.9308 24.7527 26.9308 24.1317C26.9308 23.1791 27.1208 22.4898 27.3916 22.0006C27.5417 21.7226 28.2337 20.5315 29.9047 20.5315C32.0518 20.5315 32.5132 22.3445 32.5132 22.8871C32.5132 23.2573 32.2824 23.2844 32.1194 23.3091L27.9634 23.9068ZM16.3652 21.9746C16.3652 21.5249 16.3782 21.2992 16.7056 21.0604C17.1529 20.7437 18.0779 20.5315 18.8651 20.5315C20.251 20.5315 20.6983 21.0741 20.904 21.3264C21.2011 21.0223 21.6768 20.5315 23.0611 20.5315C25.2763 20.5315 25.2628 21.9606 25.2628 22.6612V27.2918C25.2628 27.4769 25.2093 27.5304 25.0181 27.5441H24.2975C24.1212 27.5441 24.0542 27.5169 24.0542 27.2918V22.979C24.0396 22.2787 24.0264 21.2729 22.7353 21.2729C22.2601 21.2729 21.9609 21.4456 21.7987 21.5773C21.4184 21.9071 21.4184 22.2526 21.4184 22.6612V27.2918C21.4184 27.4769 21.3914 27.5441 21.1873 27.5441H20.481C20.2912 27.5441 20.2096 27.5304 20.2096 27.3052V22.8613C20.2096 22.3845 20.1963 21.2329 18.9059 21.2329C17.6019 21.2329 17.5738 22.2128 17.5738 22.6612V27.2918C17.5738 27.504 17.5203 27.5441 17.3035 27.5441H16.6099C16.4336 27.5441 16.3652 27.504 16.3652 27.2918V21.9746Z" fill="#008E45"/>
</g>
</g>
</g>
</g>
</g>
</svg>
