<svg width="177" height="88" viewBox="0 0 177 88" fill="none" xmlns="http://www.w3.org/2000/svg">
<path d="M102.202 69.3276H105.537V70.0996H102.202V69.3276ZM46.7372 64.6458L46.4391 72.3939V72.5284C46.4391 73.1843 46.6323 73.3197 47.678 73.3937V73.7527C46.9169 73.6941 46.6173 73.679 46.2 73.679C45.7817 73.679 45.4832 73.6941 44.707 73.7527V73.3937C45.7516 73.3197 45.9016 73.1997 45.9313 72.3939L46.2448 65.0645V64.9762C46.2448 64.2883 46.0354 64.1395 45.0063 64.0801V63.7061C45.5873 63.7512 45.8114 63.7662 46.2297 63.7662C46.7037 63.7705 47.1774 63.7459 47.6483 63.6926L50.4238 71.2448L53.2444 63.6926C53.9173 63.7512 54.2304 63.7662 54.6784 63.7662C55.0501 63.7662 55.29 63.7512 55.8568 63.7061V64.0801C54.8423 64.1395 54.6171 64.2883 54.6171 64.96V65.0645L54.7818 72.3939C54.798 73.1997 54.9314 73.3185 56.0064 73.3937V73.7527C55.0663 73.6632 54.7074 73.6324 54.1405 73.6324C53.5726 73.6324 53.2143 73.6617 52.2743 73.7527V73.3937C53.2888 73.3347 53.5128 73.1697 53.5128 72.4694V72.3958L53.3798 64.6627L50.9158 71.3196L50.7373 71.8128L50.5283 72.3642L50.3332 72.9333L50.1693 73.4253H49.9453L49.7818 72.948L49.572 72.3642L49.3634 71.7827L49.1841 71.2606L46.7372 64.6458ZM57.9452 69.4672C58.0948 67.7509 58.6612 66.8714 59.6167 66.8714C60.5872 66.8714 61.0796 67.707 61.1687 69.4672H57.9452ZM59.8862 73.3779C58.5278 73.3779 57.9297 72.3329 57.9162 70.0043H62.3644C62.334 67.7058 61.3935 66.4816 59.6317 66.4816C57.8418 66.4816 56.7217 67.9299 56.7217 70.2288C56.7217 72.5273 57.8422 73.8703 59.7667 73.8703C61.2296 73.8703 62.1855 72.9591 62.3783 71.4222H61.7806C61.6017 72.6908 60.9451 73.3779 59.8862 73.3779ZM63.2525 67.0337V66.7658C64.1027 66.6913 64.6109 66.6019 65.2224 66.4222C65.2972 66.9751 65.3269 67.213 65.3566 67.6615V67.8261C65.6859 66.9751 66.3264 66.482 67.1034 66.482C67.8491 66.482 68.402 66.9751 68.402 67.6923C68.402 68.1254 68.1483 68.4084 67.7751 68.4084C67.4319 68.4084 67.1635 68.199 67.1635 67.9013C67.1635 67.8716 67.1789 67.813 67.1924 67.7509L67.2221 67.6025V67.4668C67.2221 67.2578 67.0428 67.1089 66.7741 67.1089C65.999 67.1089 65.5066 68.049 65.5066 69.527V72.646C65.5066 73.2892 65.6551 73.4084 66.5662 73.4527V73.7515C65.7441 73.6779 65.431 73.6613 64.9086 73.6613C64.3714 73.6613 64.0583 73.6779 63.2378 73.7515V73.4527C64.1474 73.4084 64.3117 73.2892 64.3117 72.646V67.7668C64.2974 67.1244 64.2218 67.0507 63.4468 67.0349L63.2525 67.0337ZM74.1123 66.3486V68.8121H73.783C73.5142 67.5123 72.9624 66.8857 72.0524 66.8857C70.9319 66.8857 70.276 68.0957 70.276 70.2299C70.276 72.3191 70.8579 73.379 72.0069 73.379C72.9323 73.379 73.4845 72.7228 73.6638 71.4098H74.2754C74.081 73.0073 73.2304 73.8726 71.8878 73.8726C70.1561 73.8726 68.9777 72.4093 68.9777 70.2311C68.9777 68.0058 70.1711 66.4839 71.9325 66.4839C72.5745 66.4839 72.9775 66.6485 73.456 67.1113L73.8578 66.3497H74.1126L74.1123 66.3486ZM76.5631 69.4672C76.7123 67.7509 77.2787 66.8714 78.2346 66.8714C79.2048 66.8714 79.6972 67.707 79.7859 69.4672H76.5631ZM78.5034 73.3779C77.1449 73.3779 76.5484 72.3329 76.5334 70.0043H80.9808C80.9511 67.7058 80.0099 66.4816 78.25 66.4816C76.4578 66.4816 75.3381 67.9299 75.3381 70.2288C75.3381 72.5273 76.4574 73.8703 78.3842 73.8703C79.8468 73.8703 80.8023 72.9591 80.9955 71.4222H80.3986C80.2196 72.6908 79.563 73.3779 78.5034 73.3779ZM85.1143 73.4685C84.0397 73.4685 83.4729 72.348 83.4729 70.2149C83.4729 68.0517 83.995 66.9913 85.07 66.9913C86.1751 66.9913 86.7423 68.1254 86.7423 70.3209C86.7419 72.3935 86.1894 73.4685 85.1143 73.4685ZM87.9203 72.1988V63.5815C87.1742 63.7813 86.5032 63.8997 85.6677 63.9891V64.2436C86.6077 64.2436 86.7273 64.3481 86.7273 65.1239V67.7355C86.1751 66.8406 85.7421 66.571 84.9358 66.571C83.3391 66.571 82.2189 68.0783 82.2189 70.2276C82.2189 72.3773 83.3526 73.8834 84.9805 73.8834C85.8312 73.8834 86.4134 73.4955 86.831 72.6603C86.8904 73.2275 86.8904 73.2869 87.0404 73.8533C87.6515 73.659 87.906 73.5996 88.7867 73.4955L89.0104 73.4662V73.2125C88.0101 73.1828 87.9203 73.1091 87.9203 72.1988ZM90.8003 69.4672C90.9495 67.7509 91.5163 66.8714 92.4722 66.8714C93.4424 66.8714 93.934 67.707 94.0234 69.4672H90.8003ZM92.741 73.3779C91.3818 73.3779 90.786 72.3329 90.7702 70.0043H95.218C95.1879 67.7058 94.2479 66.4816 92.4872 66.4816C90.695 66.4816 89.576 67.9299 89.576 70.2288C89.576 72.5273 90.695 73.8703 92.6214 73.8703C94.084 73.8703 95.0391 72.9591 95.2323 71.4222H94.635C94.4572 72.6908 93.7994 73.3779 92.741 73.3779ZM96.4854 73.8857V71.3921L96.814 71.3778C97.082 72.7367 97.7093 73.3937 98.7547 73.3937C99.6342 73.3937 100.292 72.8111 100.292 72.0515C100.292 71.544 100.009 71.2012 99.276 70.8719L98.7091 70.6174L98.0228 70.3043C96.932 69.7973 96.5892 69.3789 96.5892 68.5129C96.5892 67.3334 97.5138 66.5286 98.8283 66.5286C99.4105 66.5286 99.8443 66.6628 100.351 67.0044L100.604 66.3929H100.873V68.7064H100.529C100.393 67.5119 99.9018 66.9458 98.9621 66.9458C98.1712 66.9458 97.5578 67.4833 97.5578 68.1847C97.5578 68.7812 97.7818 68.9764 99.1402 69.5729L99.7676 69.8424C100.901 70.3333 101.305 70.8122 101.305 71.6932C101.305 72.9472 100.305 73.8414 98.9031 73.8414C98.216 73.8414 97.6785 73.6621 97.1116 73.2148L96.7519 73.8857H96.4854ZM109.606 68.7357C110.397 68.7357 110.844 68.8707 111.188 69.2131C111.532 69.5578 111.727 70.1991 111.727 70.9143C111.727 72.407 110.979 73.2437 109.651 73.2437H109.114C108.323 73.2437 108.189 73.1234 108.189 72.4667V68.7346L109.606 68.7357ZM108.188 64.2128H109.457C110.711 64.2128 111.262 64.8258 111.262 66.2132C111.262 66.8996 111.099 67.3931 110.77 67.7799C110.442 68.1543 110.039 68.2723 109.204 68.2723H108.189V64.2124H108.188V64.2128ZM112.59 66.1831C112.59 65.4069 112.263 64.7214 111.695 64.2872C111.188 63.9143 110.607 63.7508 109.635 63.7508H105.71V64.1237C106.785 64.1838 106.934 64.303 106.934 65.1089V72.3476C106.934 73.1539 106.814 73.2572 105.71 73.3482V73.7072H109.486C110.59 73.7072 111.188 73.5718 111.815 73.1839C112.561 72.7066 113.054 71.7958 113.054 70.8573C113.054 70.0495 112.71 69.3188 112.128 68.8726C111.815 68.634 111.487 68.4978 110.949 68.3945C112.024 67.9896 112.59 67.2281 112.59 66.1831ZM115.49 69.4672C115.64 67.7509 116.207 66.8714 117.163 66.8714C118.132 66.8714 118.625 67.707 118.714 69.4672H115.49ZM117.432 73.3779C116.073 73.3779 115.475 72.3329 115.461 70.0043H119.909C119.879 67.7058 118.938 66.4816 117.177 66.4816C115.386 66.4816 114.266 67.9299 114.266 70.2288C114.266 72.5273 115.386 73.8703 117.311 73.8703C118.773 73.8703 119.729 72.9591 119.923 71.4222H119.326C119.148 72.6908 118.491 73.3779 117.432 73.3779ZM120.699 67.0931V66.8406C121.565 66.7203 122.072 66.6019 122.668 66.3925C122.744 66.7372 122.789 67.124 122.818 67.6912C123.356 66.8845 123.967 66.5275 124.833 66.5275C125.729 66.5275 126.505 66.9882 126.804 67.7205C126.954 68.0795 127.029 68.4967 127.029 69.0631V72.6456C127.029 73.288 127.178 73.4072 128.087 73.4515V73.7504C127.297 73.6752 126.998 73.6609 126.461 73.6609C125.908 73.6609 125.61 73.6752 124.833 73.7504V73.4515C125.639 73.423 125.833 73.273 125.833 72.6761V69.0188C125.833 67.7205 125.445 67.1972 124.491 67.1972C123.475 67.1972 122.938 67.84 122.938 69.0631V72.6761C122.938 73.273 123.133 73.423 123.91 73.4515V73.7504C123.133 73.6752 122.835 73.6609 122.297 73.6609C121.774 73.6609 121.46 73.6752 120.684 73.7504V73.4515C121.594 73.4072 121.744 73.288 121.744 72.6456V67.8107C121.729 67.1972 121.64 67.1089 120.894 67.1089C120.848 67.1089 120.774 67.0931 120.699 67.0931ZM128.667 73.7072L132.712 67.0496H130.876C129.907 67.0496 129.666 67.2578 129.13 68.6016H128.832L129.176 66.6613H134.31L130.25 73.3185H131.996C133.012 73.3185 133.429 72.9163 133.877 71.5571H134.191L133.803 73.7072H128.667Z" fill="#091923"/>
<path d="M108.856 46.2998C110.845 42.993 111.893 39.2061 111.887 35.3474C111.887 23.588 102.354 14.0554 90.5947 14.0554C78.8354 14.0554 69.3028 23.5884 69.3028 35.3474C69.2973 39.2062 70.3456 42.9931 72.3347 46.2998L72.2572 46.3618L72.3497 46.326C76.0764 52.5055 82.8524 56.6394 90.5947 56.6394C98.3374 56.6394 105.113 52.5055 108.839 46.326L108.932 46.3618L108.856 46.2998ZM109.271 35.3474C109.275 38.6081 108.42 41.8123 106.793 44.6379L93.6209 34.0291L90.9194 16.6805C101.083 16.854 109.271 25.142 109.271 35.3474ZM71.9205 35.3474C71.9205 25.1423 80.1078 16.8544 90.2716 16.6805L87.5702 34.0291L74.3984 44.6379C72.7715 41.8121 71.9169 38.608 71.9205 35.3474ZM90.5955 54.0224C83.9687 54.0224 78.1521 50.5675 74.8375 45.3639L90.5955 39.2677L106.353 45.3643C103.039 50.5675 97.2231 54.0224 90.5955 54.0224Z" fill="#091923"/>
</svg>
