<svg width="176" height="88" viewBox="0 0 176 88" fill="none" xmlns="http://www.w3.org/2000/svg">
<g clip-path="url(#clip0_2045_642)">
<path d="M93.3541 50.6407C93.3541 50.7909 93.4015 50.8779 93.4885 50.8779C93.5597 50.87 93.6229 50.8384 93.6783 50.7988L118.322 34.8046C118.738 34.5136 119.237 34.3639 119.745 34.3777H125.161C125.991 34.3777 126.552 34.9311 126.552 35.7613V46.1026C126.552 47.3517 126.275 48.0791 125.169 48.7432L118.599 52.6963C118.533 52.7418 118.457 52.7691 118.377 52.7754C118.298 52.7754 118.219 52.7121 118.219 52.4828V40.418C118.219 40.2757 118.18 40.1808 118.085 40.1808C118.015 40.1888 117.949 40.2162 117.895 40.2599L99.8846 51.961C99.4735 52.2377 98.9912 52.388 98.501 52.3801H86.5627C85.7246 52.3801 85.1712 51.8266 85.1712 50.9886V36.0854C85.1712 35.9747 85.1238 35.8719 85.0289 35.8719C84.9597 35.8807 84.8941 35.9081 84.8391 35.951L72.9561 43.0824C72.8376 43.1615 72.8059 43.2168 72.8059 43.2721C72.8059 43.3196 72.8296 43.367 72.9087 43.454L81.4 51.9373C81.5106 52.048 81.5897 52.135 81.5897 52.2298C81.5897 52.3089 81.4632 52.3722 81.313 52.3722H73.644C73.0431 52.3722 72.5767 52.2852 72.2525 51.961L67.1056 46.822C67.0861 46.7987 67.0619 46.7796 67.0347 46.766C67.0075 46.7524 66.9778 46.7446 66.9474 46.743C66.8916 46.7455 66.8373 46.7618 66.7893 46.7904L58.1874 51.961C57.6656 52.2773 57.3098 52.3642 56.7959 52.3642H48.8818C48.0359 52.3722 47.4824 51.8108 47.4824 50.9807V40.837C47.4824 39.5799 47.7591 38.8605 48.8739 38.1964L55.4835 34.2275C55.5353 34.1935 55.5955 34.1744 55.6574 34.1721C55.7602 34.1721 55.8155 34.2749 55.8155 34.5042V48.087C55.8155 48.2293 55.8472 48.2926 55.9499 48.2926C56.0211 48.2847 56.0844 48.253 56.1476 48.2135L78.4747 34.7809C78.9016 34.4884 79.4234 34.3461 79.9452 34.3698H91.9626C92.7928 34.3698 93.3541 34.9232 93.3541 35.7534L93.3462 50.6407H93.3541Z" fill="#333333"/>
</g>
<defs>
<clipPath id="clip0_2045_642">
<rect width="79.0618" height="19.7655" fill="white" transform="translate(47.4824 33.3816)"/>
</clipPath>
</defs>
</svg>
