<svg width="176" height="88" viewBox="0 0 176 88" fill="none" xmlns="http://www.w3.org/2000/svg">
<path fill-rule="evenodd" clip-rule="evenodd" d="M40.9545 53.355C42.4445 52.2494 43.5221 48.9932 43.5221 45.1473C43.5221 44.9942 43.52 44.8449 43.5181 44.6956C47.8327 44.0473 50.9284 42.2917 50.9284 40.226C50.9284 40.1315 50.9206 40.037 50.9087 39.9444C52.006 41.2673 52.636 42.8019 52.636 44.4386C52.636 49.1179 47.5011 52.96 40.9545 53.355ZM27.0467 44.4386C27.0467 42.8019 27.677 41.2635 28.7742 39.9444C28.7625 40.037 28.7546 40.1315 28.7546 40.226C28.7546 42.2898 31.8481 44.0473 36.1648 44.6956C36.1608 44.8449 36.1608 44.9961 36.1608 45.1473C36.1608 48.9932 37.2386 52.2494 38.7284 53.355C32.1819 52.96 27.0467 49.1179 27.0467 44.4386ZM39.8414 36.5351C38.2397 36.5351 36.8735 38.9333 36.3689 42.2822C33.3322 41.8097 31.2122 40.7306 31.2122 39.4757C31.2122 37.7843 35.0755 36.4122 39.8414 36.4122C44.6076 36.4122 48.4708 37.7843 48.4708 39.4757C48.4708 40.7306 46.3507 41.8097 43.3138 42.2822C42.8094 38.9333 41.4432 36.5351 39.8414 36.5351ZM37.7018 42.4466C38.0356 40.2959 38.8679 38.7708 39.8414 38.7708C40.815 38.7708 41.6473 40.2959 41.9811 42.4466C41.296 42.5071 40.5814 42.5411 39.8414 42.5411C39.1015 42.5411 38.3869 42.5071 37.7018 42.4466ZM39.8414 50.318C38.6146 50.318 37.6136 47.9008 37.5506 44.86C38.2886 44.9242 39.0561 44.9602 39.8414 44.9602C40.6266 44.9602 41.3941 44.9242 42.1323 44.86C42.0695 47.8989 41.0683 50.318 39.8414 50.318ZM39.8414 35.1384C31.593 35.1384 24.9053 39.4644 24.9053 44.7995C24.9053 50.1365 31.593 54.4644 39.8414 54.4644C48.0899 54.4644 54.7778 50.1384 54.7778 44.7995C54.7778 39.4606 48.0899 35.1384 39.8414 35.1384Z" fill="#333333"/>
<path fill-rule="evenodd" clip-rule="evenodd" d="M97.4795 51.8325H95.8015V46.161L89.9177 36.9289H93.9078L97.4795 43.2298L101.263 36.9289H105.04L99.1574 46.161V51.8325H97.4795ZM89.9177 44.2787C89.8607 39.8583 86.2911 36.2996 81.933 36.2958C77.5198 36.2996 73.9658 39.8583 73.9503 44.2787C73.9658 48.633 77.5198 52.1973 81.933 52.2559C86.2911 52.1973 89.8595 48.633 89.9177 44.2787ZM77.5301 44.2787C77.4721 41.4703 79.4569 39.2214 81.9402 39.2365C84.3675 39.2214 86.3461 41.4703 86.3461 44.2787C86.3461 47.0209 84.3675 49.285 81.9402 49.3209C79.458 49.2831 77.4721 47.0209 77.5301 44.2787ZM65.1365 51.8325H68.4924V39.656H73.118V36.9289H60.5078V39.656H65.1365V51.8325ZM138.854 48.4723L137.604 51.8363H133.603L139.911 36.9289H144.105L150.2 51.8363H146.215L144.953 48.4723H138.854ZM142.01 40.4951L144.105 45.9569H139.911L142.01 40.4951ZM130.244 39.656H134.866V36.9289H122.058V39.656H126.89V51.8325H130.244V39.656ZM121.22 44.2787C121.129 39.8583 117.571 36.2996 113.237 36.2958C108.796 36.2996 105.241 39.8583 105.253 44.2787C105.242 48.633 108.795 52.1973 113.237 52.2559C117.571 52.1973 121.128 48.633 121.22 44.2787ZM108.825 44.2787C108.749 41.4703 110.736 39.2214 113.237 39.2365C115.63 39.2214 117.611 41.4703 117.643 44.2787C117.611 47.0209 115.63 49.285 113.237 49.3209C110.737 49.2831 108.748 47.0209 108.824 44.2787H108.825Z" fill="#333333"/>
</svg>
