<svg width="177" height="89" viewBox="0 0 177 89" fill="none" xmlns="http://www.w3.org/2000/svg">
<path fill-rule="evenodd" clip-rule="evenodd" d="M36.7511 40.6994C37.9962 40.6963 39.2415 40.6994 40.4866 40.7089C40.528 40.7248 40.5566 40.7533 40.5724 40.7945C40.5852 44.6812 40.5852 48.568 40.5724 52.4546C40.4727 53.1819 40.063 53.6226 39.3431 53.7766C33.5111 53.7893 27.6792 53.7893 21.8472 53.7766C21.1193 53.6208 20.7095 53.1738 20.6179 52.4356C20.6052 51.2373 20.6052 50.0389 20.6179 48.8406C20.6285 48.7827 20.6634 48.7479 20.7228 48.736C21.9758 48.7171 23.2274 48.7234 24.4773 48.755C24.4932 48.7708 24.5091 48.7867 24.525 48.8025C24.5313 49.5507 24.5377 50.2989 24.544 51.0471C24.5536 51.0566 24.5631 51.0661 24.5726 51.0756C28.5877 51.0883 32.6027 51.0883 36.6177 51.0756C36.6272 51.0661 36.6368 51.0566 36.6463 51.0471C36.6526 47.6232 36.659 44.1994 36.6654 40.7755C36.692 40.7457 36.7206 40.7203 36.7511 40.6994Z" fill="#333333"/>
<path fill-rule="evenodd" clip-rule="evenodd" d="M45.3854 40.6998C51.5366 40.6904 57.6861 40.6999 63.8343 40.7284C63.8571 40.7456 63.873 40.7677 63.8819 40.795C63.8947 41.6382 63.8947 42.4815 63.8819 43.3248C63.8661 43.3533 63.8438 43.3755 63.8152 43.3914C58.5487 43.3977 53.282 43.4041 48.0155 43.4104C47.9932 43.4199 47.9774 43.4357 47.9679 43.4579C47.9551 44.2505 47.9551 45.0431 47.9679 45.8356C47.9749 45.853 47.9845 45.8689 47.9965 45.8832C52.9264 45.8895 57.8561 45.8959 62.786 45.9022C62.8202 45.9171 62.8487 45.9393 62.8718 45.9688C62.8846 46.8184 62.8846 47.668 62.8718 48.5176C62.8647 48.5351 62.8552 48.5509 62.8432 48.5652C57.9022 48.5905 52.9596 48.6032 48.0155 48.6032C47.9932 48.6127 47.9774 48.6286 47.9679 48.6508C47.9551 49.4433 47.9551 50.2359 47.9679 51.0285C47.9749 51.0459 47.9845 51.0617 47.9965 51.076C53.263 51.0823 58.5297 51.0887 63.7961 51.095C63.8375 51.1109 63.8661 51.1394 63.8819 51.1806C63.9008 52.0382 63.8945 52.8942 63.8629 53.7485C63.8486 53.7604 63.8327 53.7699 63.8152 53.777C57.6339 53.7897 51.4524 53.7897 45.2711 53.777C44.6784 53.6575 44.2877 53.3119 44.099 52.7404C44.0651 52.6158 44.046 52.489 44.0418 52.36C44.029 48.9488 44.029 45.5376 44.0418 42.1264C44.1274 41.3087 44.5753 40.8332 45.3854 40.6998Z" fill="#333333"/>
<path fill-rule="evenodd" clip-rule="evenodd" d="M67.4547 40.6999C74.1571 40.6967 80.8593 40.6999 87.5616 40.7094C87.5996 40.7204 87.6282 40.7425 87.6474 40.776C87.6602 41.632 87.6602 42.4879 87.6474 43.3439C87.6316 43.3597 87.6156 43.3756 87.5998 43.3914C84.899 43.3946 82.1991 43.4042 79.4998 43.42C79.4903 46.8575 79.4743 50.2941 79.4522 53.7296C79.4363 53.7454 79.4203 53.7613 79.4045 53.7771C78.1404 53.7898 76.876 53.7898 75.6118 53.7771C75.5739 53.752 75.5518 53.7172 75.5451 53.6725C75.5419 50.255 75.5324 46.8375 75.5165 43.42C72.8173 43.4042 70.1174 43.3946 67.4166 43.3914C67.4008 43.3756 67.3848 43.3597 67.369 43.3439C67.3562 42.4879 67.3562 41.632 67.369 40.776C67.3863 40.7359 67.4149 40.7105 67.4547 40.6999Z" fill="#333333"/>
<path fill-rule="evenodd" clip-rule="evenodd" d="M92.4631 40.6994C98.4284 40.6963 104.394 40.6994 110.359 40.7089C111.097 40.8112 111.539 41.2265 111.684 41.9548C111.697 45.4801 111.697 49.0054 111.684 52.5307C111.592 53.0917 111.284 53.4817 110.759 53.7005C110.667 53.7348 110.571 53.7602 110.474 53.7766C104.438 53.7893 98.4031 53.7893 92.3678 53.7766C91.6655 53.6273 91.2557 53.1994 91.1385 52.4927C91.1257 48.9928 91.1257 45.4928 91.1385 41.9929C91.2235 41.4516 91.5126 41.0617 92.0057 40.8231C92.1556 40.7635 92.3081 40.7223 92.4631 40.6994ZM95.1122 43.4005C99.3179 43.3973 103.523 43.4005 107.729 43.41C107.739 43.4195 107.748 43.429 107.758 43.4385C107.77 45.981 107.77 48.5236 107.758 51.0661C103.531 51.0914 99.3032 51.0914 95.0741 51.0661C95.052 48.5243 95.0488 45.9818 95.0646 43.4385C95.0834 43.4277 95.0995 43.4151 95.1122 43.4005Z" fill="#333333"/>
<path fill-rule="evenodd" clip-rule="evenodd" d="M115.256 40.6994C116.502 40.6963 117.747 40.6994 118.992 40.7089C119.033 40.7248 119.062 40.7533 119.078 40.7945C119.084 44.2184 119.091 47.6422 119.097 51.0661C121.093 51.0788 123.092 51.0851 125.091 51.0851C127.09 51.0851 129.088 51.0788 131.085 51.0661C131.091 47.6422 131.097 44.2184 131.104 40.7945C131.12 40.7533 131.148 40.7248 131.19 40.7089C132.449 40.6901 133.707 40.6964 134.963 40.728C134.979 40.7438 134.995 40.7597 135.011 40.7755C135.024 44.7003 135.024 48.625 135.011 52.5498C134.914 53.1019 134.605 53.4855 134.086 53.7005C133.994 53.7348 133.898 53.7602 133.801 53.7766C127.994 53.7893 122.188 53.7893 116.381 53.7766C115.856 53.6747 115.484 53.3799 115.266 52.8921C115.219 52.7755 115.187 52.6551 115.171 52.5307C115.158 48.6123 115.158 44.6939 115.171 40.7755C115.197 40.7457 115.226 40.7203 115.256 40.6994Z" fill="#333333"/>
<path fill-rule="evenodd" clip-rule="evenodd" d="M138.584 40.6997C144.816 40.6965 151.048 40.6997 157.28 40.7092C157.912 40.7883 158.335 41.1275 158.548 41.7268C158.574 41.8269 158.593 41.9283 158.605 42.0312C158.618 43.7368 158.618 45.4423 158.605 47.1479C158.494 47.8734 158.078 48.3077 157.356 48.4509C155.374 48.4572 153.392 48.4636 151.41 48.4699C153.837 50.1311 156.264 51.7923 158.691 53.4535C158.751 53.4951 158.805 53.5426 158.853 53.5962C158.877 53.6755 158.855 53.7358 158.786 53.7769C157.89 53.7801 156.994 53.7832 156.099 53.7864C155.183 53.7894 154.268 53.7799 153.354 53.7579C149.711 51.2629 146.067 48.7679 142.424 46.2729C142.424 48.7663 142.411 51.2581 142.386 53.7483C142.372 53.7603 142.356 53.7698 142.338 53.7769C141.074 53.7896 139.81 53.7896 138.546 53.7769C138.523 53.7597 138.507 53.7375 138.498 53.7103C138.485 49.3988 138.485 45.0873 138.498 40.7758C138.525 40.7459 138.553 40.7205 138.584 40.6997ZM142.453 43.4007C146.512 43.3975 150.572 43.4007 154.631 43.4102C154.649 43.4173 154.664 43.4268 154.679 43.4388C154.691 44.1996 154.691 44.9605 154.679 45.7213C154.669 45.7308 154.66 45.7403 154.65 45.7499C150.578 45.7625 146.506 45.7625 142.433 45.7499C142.411 44.9808 142.408 44.2105 142.424 43.4388C142.438 43.4284 142.447 43.4157 142.453 43.4007Z" fill="#333333"/>
</svg>
