<svg width="176" height="89" viewBox="0 0 176 89" fill="none" xmlns="http://www.w3.org/2000/svg">
<path d="M150.779 59.2409C149.763 59.2415 148.746 59.2418 147.73 59.2422C147.802 59.1265 147.874 59.0107 147.945 58.8949C148.442 58.0909 148.965 57.8327 150.096 57.8323C150.614 57.832 151.132 57.8318 151.65 57.8315C151.36 58.3013 151.069 58.7711 150.779 59.2409Z" fill="#231F20"/>
<path d="M147.488 64.6865C148.421 63.1775 149.355 61.6684 150.289 60.1595C149.273 60.1599 148.257 60.1601 147.241 60.1605C146.435 61.4631 145.629 62.7656 144.823 64.068C144.551 64.5081 144.179 64.6877 143.538 64.6881C141.069 64.689 138.6 64.6899 136.131 64.6907C137.13 63.0768 138.128 61.4629 139.127 59.8492C139.549 59.1673 139.709 59.1186 140.695 59.1186C140.99 59.1185 141.286 59.1183 141.581 59.1183C142.445 59.118 142.852 58.9313 143.194 58.3783C143.332 58.1552 143.47 57.9319 143.608 57.7087C142.556 57.7091 141.503 57.7096 140.45 57.7101C140.903 56.9774 141.356 56.2448 141.809 55.5122C141.145 55.5125 140.481 55.5127 139.817 55.513C138.949 55.5132 138.542 55.6983 138.203 56.2464C137.901 56.7346 137.6 57.2229 137.298 57.711C136.745 57.7112 136.192 57.7113 135.639 57.7115C135.349 58.1813 135.058 58.6509 134.768 59.1206C135.321 59.1205 135.874 59.1204 136.427 59.1201C136.086 59.6704 133.703 63.5225 133.362 64.0728C133.09 64.5124 132.719 64.6916 132.081 64.692C129.887 64.6928 127.693 64.6934 125.499 64.694C126.665 62.9811 127.832 61.2682 128.998 59.5553C128.192 59.5548 127.388 59.5553 126.582 59.5553C126.018 59.5552 125.776 59.7028 125.423 60.0417C125.421 59.6714 125.255 59.5552 124.813 59.555C124.254 59.5545 123.696 59.5535 123.137 59.5538C120.387 59.5553 118.851 60.2371 117.656 61.9908C117.182 62.6877 116.707 63.3845 116.232 64.0813C115.935 64.5183 115.564 64.6965 114.953 64.6965C113.539 64.6969 112.126 64.6972 110.712 64.6974C109.176 64.6978 108.575 64.5202 108.405 63.8734C108.222 63.1766 108.611 62.6111 110.667 61.5159C111.055 61.3092 111.443 61.1025 111.831 60.8959C112.373 60.6072 112.591 60.457 112.519 60.1441C112.454 59.8644 112.243 59.556 110.563 59.5561C107.905 59.5565 105.247 59.5567 102.588 59.557C101.745 59.557 101.351 59.7368 100.97 60.297C100.11 61.5602 99.2502 62.8234 98.3903 64.0866C98.0941 64.5213 97.7233 64.6987 97.1103 64.6987C92.8436 64.6988 88.5771 64.6989 84.3106 64.6991C84.4927 64.269 84.6749 63.8389 84.8569 63.4088C86.9876 63.4088 89.1182 63.4088 91.2487 63.4086C92.5096 63.4086 93.0327 63.1466 93.4871 62.2867C93.6906 61.9018 93.8942 61.5169 94.0975 61.132C94.2508 60.8421 94.3789 60.4306 94.12 60.1162C93.8188 59.7506 93.046 59.5575 91.8852 59.5576C89.8395 59.5576 87.7936 59.5578 85.7478 59.5578C83.7858 59.5578 82.8905 59.9971 82.2017 61.2998C81.777 62.1033 81.352 62.9069 80.9272 63.7105C80.4922 64.5334 79.8019 64.6988 78.8284 64.6988C77.365 64.6987 75.9016 64.6987 74.4384 64.6986C74.5304 64.5874 74.6224 64.4763 74.7144 64.3651C75.583 63.3167 75.4162 62.1501 74.2571 61.1645C73.1189 60.1967 71.6081 59.8546 70.2692 59.5567C69.1312 59.5566 67.9931 59.5565 66.8552 59.5564C66.0724 60.7061 65.2896 61.8558 64.5069 63.0054C63.5275 64.4436 62.4633 64.6968 60.5856 64.6967C59.2082 64.6967 57.831 64.6963 56.4537 64.696C57.6206 62.9825 58.7874 61.2689 59.9542 59.5553C59.1454 59.5548 58.3378 59.5553 57.5289 59.5553C56.9647 59.5552 56.7228 59.7028 56.3703 60.0417C56.3679 59.6714 56.2024 59.5552 55.7599 59.555C55.2043 59.5545 54.6493 59.5535 54.0929 59.5538C51.3432 59.5553 49.8066 60.2371 48.6122 61.9908C48.1375 62.6877 47.6629 63.3845 47.1882 64.0813C46.8886 64.5216 46.5299 64.6934 45.9081 64.6931C43.8091 64.6926 41.7103 64.692 39.6114 64.6914C41.3908 62.0777 43.1701 59.464 44.9495 56.8502C45.262 56.3913 44.8485 55.831 44.1973 55.831C35.8631 55.831 27.529 55.831 19.195 55.831C17.4981 55.831 16.6589 56.1765 15.8555 57.2742C19.4587 57.2756 23.0617 57.277 26.6649 57.2784C24.6562 60.2276 22.6477 63.1769 20.6391 66.1261C21.6763 66.1261 22.7135 66.1261 23.7508 66.1261C25.7591 63.1773 27.7674 60.2284 29.7758 57.2795C31.2186 57.28 32.6615 57.2806 34.1043 57.2812C32.0964 60.2295 30.0886 63.1778 28.0807 66.1261C29.1179 66.1261 30.1552 66.1261 31.1924 66.1261C33.1999 63.1781 35.2075 60.2302 37.2152 57.2822C38.658 57.2825 40.1009 57.2831 41.5439 57.2834C39.8867 59.7172 38.2293 62.151 36.5721 64.5849C36.345 64.9185 36.1244 65.3845 36.3644 65.7093C36.5655 65.9819 37.0713 66.1261 37.8267 66.1261C40.5599 66.1261 43.2931 66.1261 46.0263 66.1261C46.4288 66.1261 46.6011 66.0207 46.8517 65.78C46.8534 66.0439 47.129 66.1261 47.4437 66.1261C52.1441 66.1261 56.8445 66.1261 61.5449 66.1261C64.342 66.1261 65.829 65.4695 67.0317 63.7033C67.6509 62.7939 68.2703 61.8844 68.8896 60.9748C68.9108 60.9781 69.0594 61.0008 69.0806 61.0041C71.3025 61.3439 72.4294 62.0057 72.5252 63.0273C72.5644 63.4453 72.4013 63.8258 72.0538 64.128C71.6392 64.4881 71.0022 64.696 70.3061 64.6981C68.8857 64.7022 68.3165 65.145 67.7643 66.1261C71.7438 66.1261 75.7234 66.1261 79.703 66.1261C80.1055 66.1261 80.2777 66.0207 80.5284 65.78C80.5299 66.0439 80.8055 66.1261 81.1202 66.1261C87.0064 66.1261 92.8926 66.1261 98.7788 66.1261C99.9702 66.1261 100.487 65.8736 101.082 65.0002C101.771 63.9879 102.46 62.9757 103.149 61.9634C103.621 61.2706 104.206 61.0006 105.237 61.0006C106.274 61.0003 107.311 61.0002 108.349 61.0001C107.825 61.2938 107.237 61.6692 106.789 62.0361C106.199 62.5228 105.629 63.1954 105.525 64.0658C105.453 64.6733 105.638 65.1921 106.061 65.5656C106.476 65.9324 107.085 66.1261 107.823 66.1261C110.243 66.1261 112.662 66.1261 115.082 66.1261C115.484 66.1261 115.656 66.0207 115.907 65.78C115.909 66.0439 116.184 66.1261 116.499 66.1261C121.59 66.1261 126.682 66.1261 131.773 66.1261C132.175 66.1261 132.348 66.0207 132.598 65.78C132.6 66.0439 132.876 66.1261 133.19 66.1261C140.72 66.1261 148.25 66.1261 155.78 66.1261C157.14 66.1261 157.831 65.7705 158.088 64.9374C158.114 64.8525 158.141 64.7674 158.167 64.6825C154.607 64.6839 151.047 64.6852 147.488 64.6865ZM85.6086 61.6428C85.9163 60.9345 86.6284 60.8752 87.2712 60.8752C88.4317 60.8752 89.5922 60.8752 90.7528 60.8752C90.6726 61.0647 90.5925 61.254 90.5122 61.4434C90.23 62.11 89.5906 62.1659 89.0133 62.1659C87.8027 62.1659 86.5921 62.1659 85.3815 62.1659C85.4572 61.9915 85.5329 61.8172 85.6086 61.6428ZM53.9519 63.7258C53.4708 64.4322 52.9056 64.6954 51.8648 64.6949C51.2909 64.6945 50.7171 64.6943 50.1433 64.6939C50.7639 63.7827 51.3845 62.8713 52.0051 61.9601C52.4766 61.2676 53.0614 60.9977 54.0903 60.9977C54.6634 60.9977 55.2366 60.9977 55.8098 60.9977C55.1905 61.9071 54.5711 62.8165 53.9519 63.7258ZM122.996 63.7258C122.515 64.4322 121.95 64.6954 120.909 64.6949C120.335 64.6945 119.761 64.6943 119.187 64.6939C119.808 63.7827 120.429 62.8713 121.049 61.9601C121.521 61.2676 122.106 60.9977 123.134 60.9977C123.708 60.9977 124.281 60.9977 124.854 60.9977C124.235 61.9071 123.615 62.8165 122.996 63.7258Z" fill="#231F20"/>
<path d="M84.208 50.3452C84.208 49.9264 84.208 49.5077 84.208 49.0889C85.543 49.0889 86.878 49.0889 88.213 49.0889C89.548 49.0889 90.8831 49.0889 92.2181 49.0889C92.2181 49.5077 92.2181 49.9264 92.2181 50.3452C90.8831 50.3452 89.5481 50.3452 88.2131 50.3452C86.8782 50.3452 85.543 50.3452 84.208 50.3452Z" fill="#231F20"/>
<path d="M88.2106 52.9472C89.0522 52.9472 89.8938 52.9472 90.7355 52.9472C90.7355 52.2961 90.7355 51.645 90.7355 50.9939C89.8938 50.9939 89.0522 50.9939 88.2106 50.9939C87.369 50.9939 86.5271 50.9939 85.6855 50.9939C85.6855 51.645 85.6855 52.2961 85.6855 52.9472C86.5271 52.9472 87.369 52.9472 88.2106 52.9472Z" fill="#231F20"/>
<path d="M85.6874 48.439C85.68 47.3611 85.3307 46.309 84.2578 45.5928C85.5759 45.5928 86.8941 45.5928 88.2122 45.5928C89.5304 45.5928 90.8487 45.5928 92.1668 45.5928C91.094 46.309 90.7446 47.3611 90.7373 48.439C89.8956 48.439 89.054 48.439 88.2124 48.439C87.3708 48.439 86.5289 48.439 85.6874 48.439Z" fill="#231F20"/>
<path d="M78.999 43.5187C78.999 43.2098 78.999 42.9011 78.999 42.5923C82.0702 42.5923 85.1413 42.5923 88.2125 42.5923C91.2836 42.5923 94.355 42.5923 97.4261 42.5923C97.4261 42.9011 97.4261 43.2098 97.4261 43.5187C94.355 43.5187 91.2838 43.5187 88.2126 43.5187C85.1415 43.5187 82.0702 43.5187 78.999 43.5187Z" fill="#231F20"/>
<path d="M79.8218 46.863C80.8976 46.6778 82.0585 46.193 82.8282 45.5925C81.7601 45.5925 80.6921 45.5925 79.624 45.5925C79.69 46.016 79.7559 46.4395 79.8218 46.863Z" fill="#231F20"/>
<path d="M96.603 46.8627C95.5272 46.6776 94.3663 46.1928 93.5967 45.5923C94.6647 45.5923 95.7327 45.5923 96.8008 45.5923C96.7349 46.0158 96.6689 46.4393 96.603 46.8627Z" fill="#231F20"/>
<path d="M78.6873 40.5566C77.6773 35.7514 75.728 30.748 73.582 27.457C75.8854 28.4615 78.3613 30.0551 81.0097 32.2377C79.9111 31.9996 78.8124 31.8127 77.7137 31.6769C79.2455 34.5866 80.511 37.5565 81.6613 40.5566C80.67 40.5566 79.6786 40.5566 78.6873 40.5566Z" fill="#231F20"/>
<path d="M97.7367 40.558C98.7466 35.7528 100.696 30.7495 102.842 27.4585C100.539 28.463 98.0627 30.0565 95.4143 32.2392C96.5129 32.0011 97.6116 31.8142 98.7103 31.6784C97.1785 34.5881 95.913 37.558 94.7627 40.558C95.754 40.558 96.7454 40.558 97.7367 40.558Z" fill="#231F20"/>
<path d="M78.0215 42.1065C78.0215 41.7937 78.0215 41.481 78.0215 41.1682C81.4183 41.1682 84.815 41.1682 88.2117 41.1682C91.6085 41.1682 95.0054 41.1682 98.4022 41.1682C98.4022 41.481 98.4022 41.7937 98.4022 42.1065C95.0054 42.1065 91.6087 42.1065 88.2119 42.1065C84.8152 42.1065 81.4183 42.1065 78.0215 42.1065Z" fill="#231F20"/>
<path d="M84.7787 26.95C86.3521 24.7751 87.7024 22.3029 88.2128 19.7422C88.7233 22.3029 90.0737 24.7751 91.647 26.95C91.0868 26.7468 90.4932 26.5326 89.8356 26.2981C89.2661 26.0949 89.024 26.2148 89.0433 26.6863C89.2327 31.3056 90.078 36.5576 93.0791 40.5573C91.9006 40.5573 90.7222 40.5573 89.5438 40.5573C88.9899 39.4933 88.5464 38.4431 88.2128 37.4068C87.8794 38.4431 87.4357 39.4933 86.8819 40.5573C85.7035 40.5573 84.5251 40.5573 83.3467 40.5573C86.3476 36.5576 87.1931 31.3056 87.3824 26.6863C87.4018 26.2148 87.1596 26.0949 86.5901 26.2981C85.9326 26.5326 85.3389 26.7468 84.7787 26.95Z" fill="#231F20"/>
<path d="M78.0215 44.9408C78.0215 44.628 78.0215 44.3152 78.0215 44.0024C81.4183 44.0024 84.815 44.0024 88.2117 44.0024C91.6085 44.0024 95.0054 44.0024 98.4022 44.0024C98.4022 44.3152 98.4022 44.628 98.4022 44.9408C95.0054 44.9408 91.6087 44.9408 88.2119 44.9408C84.8152 44.9408 81.4183 44.9408 78.0215 44.9408Z" fill="#231F20"/>
</svg>
