<svg width="177" height="89" viewBox="0 0 177 89" fill="none" xmlns="http://www.w3.org/2000/svg">
<path fill-rule="evenodd" clip-rule="evenodd" d="M108.751 53.611H111.806L116.418 57.6536L121.03 53.611H123.815L117.556 59.3318V62.2658H115.25V59.3008L108.751 53.611ZM95.6636 53.6382H106.673C107.23 53.6382 108.302 53.8203 108.302 55.018V57.0528C108.302 57.3977 108.422 58.5062 106.849 58.5062C105.277 58.5062 105.127 58.5062 105.127 58.5062L108.721 62.324H106.116L102.791 58.4907H97.7302V62.293H95.6934L95.6636 53.6382ZM97.6999 57.0257H106.116C106.338 57.0257 106.55 56.9636 106.55 56.5877V56.0063C106.55 55.9327 106.47 55.5877 106.138 55.5955H97.6701L97.6999 57.0257ZM67.3023 53.611H69.279V57.1148H77.6947V53.6382H79.7609V62.324H77.7543V58.9713H69.279V62.2658H67.2724L67.3023 53.611ZM83.834 57.076H92.8636V58.9403H83.4577V60.0372C83.4577 60.0372 83.4053 60.4132 83.8441 60.4132C84.2828 60.4132 94.0752 60.4132 94.0752 60.4132V62.2348H83.4681C83.4681 62.2348 81.4182 62.0643 81.4182 60.2465V55.7272C81.4182 55.7272 81.181 53.6963 83.5143 53.6963L94.0965 53.6692V55.4753C94.0965 55.4753 84.6468 55.4792 83.8464 55.4792C83.8464 55.4792 83.453 55.5102 83.453 55.8707C83.453 56.2311 83.453 56.2311 83.453 56.2311V57.076H83.834ZM65.7853 53.6692V55.6652H55.8425C55.8425 55.6652 55.4731 55.5761 55.4731 56.0373C55.4731 56.4947 55.4731 60.0372 55.4731 60.0372C55.4731 60.0372 55.4224 60.4132 55.8476 60.4132C56.2731 60.4132 65.7655 60.4132 65.7655 60.4132V62.2348H55.4832C55.4832 62.2348 53.4968 62.0643 53.4968 60.2465V55.7272C53.4968 55.7272 53.2666 53.6963 55.5282 53.6963L65.7853 53.6692Z" fill="#333333"/>
<path fill-rule="evenodd" clip-rule="evenodd" d="M74.5883 49.3551L74.5949 49.3667H67.5048L70.8749 45.3629H70.8683C52.8893 42.6421 54.1296 36.8321 54.1296 36.8321C54.0904 29.437 79.0278 27.3944 79.6239 27.344L79.6099 27.3673L77.1154 30.9757C77.1096 30.9835 77.0968 30.9951 77.0825 31.0067C76.2457 31.0726 59.6569 32.4214 59.6569 36.7159C59.6569 41.0491 73.0698 42.2041 73.5008 42.239L86.1652 27.1851H91.1309L103.795 42.239C103.889 42.2312 117.648 41.1034 117.648 36.7159C117.648 32.309 100.189 31.0067 100.189 31.0067V30.9757L97.6951 27.3673L97.6664 27.344H97.6804H97.6796H97.6807C98.2877 27.3944 123.214 29.437 123.175 36.8321C123.175 36.8321 124.415 42.6421 106.437 45.3629L106.417 45.3552L109.788 49.3628L109.795 49.3667H109.791H102.705L102.71 49.3551L88.6519 32.2392L88.6473 32.1772V32.2392L79.8421 42.9599C79.851 42.9599 91.8557 43.4599 94.2576 43.1382L96.6804 46.452C96.6804 46.452 85.378 47.2156 77.2092 46.173L77.2073 46.1691L74.5883 49.3551Z" fill="#333333"/>
</svg>
