<svg width="176" height="89" viewBox="0 0 176 89" fill="none" xmlns="http://www.w3.org/2000/svg">
<path fill-rule="evenodd" clip-rule="evenodd" d="M42.7282 36.0414H46.4145C46.613 36.5715 46.7042 52.187 46.5235 53.6478C46 53.8422 43.5363 53.8716 42.7282 53.6831V36.0414ZM135.311 53.7951C134.774 53.7951 134.257 53.7944 133.753 53.7937H133.751C132.781 53.7924 131.86 53.7912 130.941 53.7951C130.629 53.8009 130.496 53.5889 130.358 53.3651C130.212 53.1265 130.064 52.889 129.916 52.6517L129.915 52.6509C129.585 52.1208 129.255 51.591 128.944 51.0501C128.747 50.7143 128.534 50.6025 128.147 50.6025C124.297 50.6083 120.452 50.5965 116.602 50.5789C116.239 50.5789 115.99 50.679 115.8 51.0266C115.525 51.5144 115.233 51.991 114.941 52.4674C114.76 52.7619 114.579 53.0563 114.403 53.3533C114.253 53.6007 114.109 53.8068 113.762 53.8009C112.862 53.7891 111.962 53.7878 111.061 53.7865C110.611 53.7859 110.16 53.7852 109.71 53.7833C109.682 53.7833 109.654 53.7679 109.607 53.7426C109.577 53.7264 109.54 53.7061 109.491 53.6831C109.565 53.5521 109.637 53.4203 109.709 53.2888C109.844 53.0421 109.979 52.7963 110.126 52.5581C111.363 50.5356 112.601 48.514 113.84 46.4922L113.85 46.4763C115.862 43.1921 117.875 39.9076 119.881 36.6186C120.17 36.1474 120.504 35.9471 121.053 35.9766C121.971 36.0237 122.888 36.006 123.806 35.9825C124.262 35.9707 124.551 36.1121 124.805 36.5244C127.197 40.4627 129.606 44.3969 132.013 48.3305C132.533 49.1801 133.053 50.0297 133.573 50.8793C133.641 50.9904 133.71 51.1017 133.778 51.2131C133.841 51.3144 133.903 51.4158 133.966 51.5173C134.255 51.9847 134.544 52.454 134.826 52.9233C134.927 53.089 135.02 53.2606 135.141 53.4832L135.141 53.4837C135.192 53.5773 135.247 53.68 135.311 53.7951ZM118.12 47.1566H126.623C125.914 45.9898 125.218 44.8461 124.522 43.7026L124.502 43.6694L124.492 43.6526C123.792 42.5037 123.093 41.3547 122.38 40.1823L121.775 41.1745L121.766 41.1893C120.559 43.1665 119.369 45.1163 118.12 47.1566ZM30.3025 36.0355H34.151V53.7479C34.0668 53.7538 33.9862 53.761 33.9081 53.7679C33.7509 53.7819 33.6034 53.7951 33.4554 53.7951C33.0454 53.7972 32.6353 53.7955 32.2252 53.7939C31.487 53.7909 30.7489 53.7879 30.0116 53.8068C29.5094 53.8245 29.1659 53.6537 28.8132 53.2884C25.5699 49.9253 22.3139 46.578 19.0575 43.2302C18.3443 42.4971 17.6311 41.7639 16.918 41.0306C16.8622 40.9749 16.8034 40.9208 16.725 40.8487C16.6541 40.7836 16.5673 40.7037 16.4522 40.5946C16.4412 43.0088 16.4423 45.3813 16.4434 47.7462C16.4444 49.7435 16.4453 51.7354 16.4389 53.742H12.6055V36.0414C12.6787 36.0352 12.7533 36.0261 12.8287 36.0169C12.9683 35.9999 13.1109 35.9825 13.2537 35.9825C13.7245 35.9802 14.1954 35.9823 14.6664 35.9844C15.4197 35.9877 16.1731 35.9911 16.9261 35.9766C17.3735 35.9707 17.6765 36.1297 17.9888 36.4537C21.3119 39.896 24.647 43.3299 27.9808 46.7624L27.9811 46.7628C28.5949 47.3948 29.2086 48.0267 29.8222 48.6586C29.8835 48.7198 29.948 48.779 30.0375 48.8611C30.1032 48.9213 30.1823 48.9939 30.2835 49.0886C30.314 48.2983 30.309 47.569 30.3042 46.8598C30.3018 46.5118 30.2994 46.1686 30.3013 45.8254C30.3061 45.0757 30.3049 44.3232 30.3036 43.5699C30.3031 43.2282 30.3025 42.8863 30.3025 42.5444V39.3459V36.0355ZM144.229 40.5829V53.7479H140.396V36.0237C140.494 36.0194 140.59 36.0136 140.683 36.008C140.846 35.998 141.003 35.9884 141.158 35.9884C141.541 35.9864 141.923 35.9877 142.306 35.989H142.307C143.073 35.9916 143.838 35.9942 144.604 35.9707C145.101 35.9589 145.47 36.1062 145.816 36.4714C147.669 38.4093 149.534 40.3296 151.398 42.2499C152.804 43.7035 154.214 45.1518 155.624 46.6002L155.635 46.6113C156.342 47.3367 157.048 48.0622 157.754 48.7882C157.792 48.827 157.833 48.8622 157.893 48.9134C157.943 48.9555 158.005 49.0083 158.089 49.0827V36.0355H161.945V53.7302C161.884 53.7374 161.825 53.7463 161.766 53.7551C161.631 53.7752 161.498 53.7951 161.361 53.7951C160.917 53.7972 160.472 53.7962 160.027 53.7953C159.248 53.7936 158.469 53.7919 157.69 53.8068C157.269 53.8186 156.974 53.6713 156.686 53.3768C152.98 49.5422 149.268 45.7134 145.551 41.8905C145.301 41.6279 145.041 41.3755 144.741 41.0834L144.74 41.083C144.583 40.9296 144.414 40.7653 144.229 40.5829ZM75.0121 36.0532V39.6345C74.896 39.642 74.7818 39.6514 74.6689 39.6606C74.428 39.6802 74.1934 39.6993 73.9615 39.6993H60.9517C60.8366 39.6993 60.7215 39.6986 60.6064 39.6979C60.262 39.6956 59.9177 39.6934 59.5738 39.7111C58.675 39.7464 58.0603 40.3532 58.0222 41.2073C57.9812 42.0908 58.5157 42.727 59.4306 42.8213C59.9357 42.8743 60.4471 42.8919 60.9569 42.8919C61.9848 42.8937 63.0127 42.8927 64.0405 42.8917C66.3027 42.8894 68.5648 42.8871 70.8271 42.9155C71.5775 42.9214 72.3625 43.0333 73.0668 43.2866C75.1622 44.0346 76.2705 46.2671 76.1723 48.5231C76.0684 50.7968 75.116 52.5286 72.9802 53.3886C72.3568 53.6419 71.641 53.7656 70.9714 53.7715C66.4669 53.7967 61.9602 53.796 57.4544 53.7953C56.7058 53.7952 55.9572 53.7951 55.2087 53.7951C55.0637 53.7951 54.9178 53.7756 54.7521 53.7536C54.7218 53.7496 54.6908 53.7454 54.659 53.7413C54.6301 53.7376 54.6005 53.7339 54.5702 53.7302V50.1489C54.6804 50.1413 54.7883 50.1319 54.8948 50.1227C55.1204 50.1031 55.3395 50.0841 55.5591 50.0841C60.3034 50.0782 65.0472 50.0782 69.7938 50.0782C70.1228 50.0782 70.4576 50.0723 70.7809 50.0193C71.6467 49.8779 72.2586 49.1358 72.2355 48.2875C72.2124 47.3922 71.6179 46.7325 70.7174 46.6264C70.3422 46.5852 69.9555 46.5734 69.5745 46.5734C68.4046 46.5713 67.235 46.5722 66.0657 46.5732C64.0215 46.5749 61.9779 46.5766 59.934 46.5617C59.1744 46.5558 58.3956 46.5027 57.6625 46.3201C55.9983 45.9078 54.92 44.7827 54.3561 43.1511C53.5156 40.7184 54.3474 38.4211 55.9747 37.1016C56.9825 36.2829 58.1809 36.0178 59.415 36.0119C63.2016 35.9854 66.99 35.9887 70.7782 35.992C72.0414 35.9932 73.3046 35.9943 74.5676 35.9943C74.6508 35.9943 74.734 36.0081 74.8433 36.0263C74.8932 36.0347 74.9487 36.0439 75.0121 36.0532ZM103.886 39.664C103.742 39.6693 103.621 39.6771 103.515 39.684C103.386 39.6923 103.277 39.6993 103.17 39.6993H89.0102C88.9907 39.6993 88.9712 39.6993 88.9517 39.6993L88.9009 39.6991C88.6833 39.6984 88.4658 39.6976 88.2482 39.7229C87.4401 39.823 86.834 40.524 86.8513 41.3192C86.8628 42.0908 87.4228 42.7388 88.2309 42.8153C88.8855 42.8805 89.5499 42.8856 90.206 42.8906L90.3724 42.8919C91.6581 42.8942 92.9438 42.8947 94.2292 42.8952C96.1581 42.8959 98.0863 42.8966 100.012 42.9037C101.305 42.9096 102.483 43.2689 103.418 44.235C104.982 45.8371 105.392 47.775 104.85 49.9133C104.226 52.3342 102.529 53.6301 99.9085 53.7891C99.6314 53.8009 99.3485 53.8009 99.0657 53.8009H84.3749H83.5668C83.3647 53.2178 83.3185 51.1856 83.4802 50.1312C83.5299 50.1283 83.58 50.125 83.6306 50.1214C83.6786 50.118 83.727 50.1144 83.7757 50.1108C83.991 50.0947 84.2118 50.0782 84.4326 50.0782H98.7424C99.0714 50.0782 99.412 50.0664 99.7295 50.0016C100.561 49.8367 101.103 49.1181 101.075 48.264C101.046 47.3451 100.474 46.7089 99.5563 46.6206C99.1753 46.5793 98.7944 46.5734 98.4134 46.5734C97.6136 46.5734 96.8142 46.5741 96.015 46.5749H96.0142C93.624 46.5771 91.2363 46.5793 88.8485 46.5617C88.1154 46.5558 87.3592 46.5145 86.6492 46.3437C84.5192 45.8253 83.0646 43.9875 82.9318 41.7551C82.8048 39.6051 83.5206 37.8733 85.3793 36.7423C86.4183 36.1121 87.5959 35.9943 88.7735 35.9943C91.585 35.9854 94.3933 35.9865 97.2033 35.9876H97.2038C98.1436 35.988 99.0836 35.9884 100.024 35.9884H102.933H103.874C103.955 37.2313 103.943 38.4034 103.886 39.664Z" fill="#333333"/>
</svg>
