<svg width="177" height="89" viewBox="0 0 177 89" fill="none" xmlns="http://www.w3.org/2000/svg">
<path fill-rule="evenodd" clip-rule="evenodd" d="M120.251 48.6892C120.251 48.6892 109.314 48.6892 108.63 48.6892C108.008 48.6892 107.635 48.4418 107.635 47.8193C107.635 47.0695 107.635 35.8886 107.635 35.8886C107.635 35.3861 107.449 35.3861 107.076 35.3861H103.285C102.913 35.3861 102.727 35.3861 102.727 35.8886V47.3244C102.727 51.1714 104.093 52.3562 107.822 52.3562H120.313C120.748 52.3562 120.748 52.1687 120.748 51.7938V49.1242C120.748 48.8092 120.748 48.6892 120.251 48.6892Z" fill="#333333"/>
<path fill-rule="evenodd" clip-rule="evenodd" d="M86.8168 39.0534H99.0595C99.5567 39.0534 99.5567 38.9334 99.5567 38.5585V35.8889C99.5567 35.5139 99.5567 35.3864 99.0595 35.3864H86.6308C83.2128 35.3864 81.0996 36.4438 81.0996 40.0508V47.7597C81.0996 51.3592 83.2128 52.4165 86.6308 52.4165H99.0595C99.5567 52.4165 99.5567 52.289 99.5567 51.9216V49.3119C99.5567 48.937 99.5567 48.8095 99.0595 48.8095H86.8168C86.2581 48.8095 86.0092 48.6295 86.0092 48.0671V45.705H98.7491C99.2463 45.705 99.2463 45.5775 99.2463 45.21V42.6004C99.2463 42.2255 99.2463 42.098 98.7491 42.098H86.0092V39.9233C86.0092 39.3009 86.3204 39.0534 86.8168 39.0534Z" fill="#333333"/>
<path fill-rule="evenodd" clip-rule="evenodd" d="M65.6261 39.0534H77.8681C78.3653 39.0534 78.3653 38.9334 78.3653 38.5585V35.8889C78.3653 35.5139 78.3653 35.3864 77.8681 35.3864H65.3771C61.9591 35.3864 59.8467 36.4438 59.8467 40.0508V47.7597C59.8467 51.3592 61.9591 52.4165 65.3771 52.4165H77.8681C78.3653 52.4165 78.3653 52.289 78.3653 51.9216V49.3119C78.3653 48.937 78.3653 48.8095 77.8681 48.8095H65.6261C65.0667 48.8095 64.8177 48.6295 64.8177 48.0671V45.705H77.5576C78.0548 45.705 78.0548 45.5775 78.0548 45.21V42.6004C78.0548 42.2255 78.0548 42.098 77.5576 42.098H64.8177V39.9233C64.8177 39.3009 65.1282 39.0534 65.6261 39.0534Z" fill="#333333"/>
<path fill-rule="evenodd" clip-rule="evenodd" d="M41.7015 39.0532H56.119C56.6161 39.0532 56.6161 38.9332 56.6161 38.5582V35.8886C56.6161 35.5137 56.6161 35.3862 56.119 35.3862H41.4533C38.0353 35.3862 35.9229 36.4435 35.9229 40.0505V47.7594C35.9229 51.3589 38.0353 52.4163 41.4533 52.4163H56.119C56.6161 52.4163 56.6161 52.2888 56.6161 51.9213V42.4727C56.6161 42.0977 56.6161 41.9777 56.119 41.9777H44.0014C43.5043 41.9777 43.5043 42.0977 43.5043 42.4727V45.0823C43.5043 45.4573 43.5043 45.5772 44.0014 45.5772H51.7073V48.6893H41.7638C41.2666 48.6893 40.9561 48.5018 40.9561 47.9394V39.8031C40.8939 39.3006 41.2051 39.0532 41.7015 39.0532Z" fill="#333333"/>
<path fill-rule="evenodd" clip-rule="evenodd" d="M139.207 35.3861H134.733C134.174 35.3861 133.677 35.4536 133.242 35.9485L127.09 42.6601L120.937 35.9485C120.502 35.4536 120.067 35.3861 119.508 35.3861H115.096C114.723 35.3861 114.599 35.5736 115.034 36.0085L124.728 46.6345V51.8538C124.728 52.3562 124.852 52.3562 125.287 52.3562H129.14C129.513 52.3562 129.699 52.3562 129.699 51.8538V46.6345L139.332 36.0085C139.767 35.5736 139.581 35.3861 139.207 35.3861Z" fill="#333333"/>
</svg>
