<svg width="176" height="89" viewBox="0 0 176 89" fill="none" xmlns="http://www.w3.org/2000/svg">
<path d="M93.4937 66.5819H97.2342C97.2369 66.5819 97.2395 66.5808 97.2415 66.5788C97.2435 66.5769 97.2448 66.5742 97.245 66.5712V65.2744C97.245 65.2713 97.2439 65.2683 97.2418 65.2661C97.2398 65.2639 97.237 65.2626 97.2342 65.2626H93.4937C93.4924 65.2628 93.4911 65.2627 93.4899 65.2623C93.4886 65.2619 93.4875 65.2613 93.4865 65.2604C93.4854 65.2595 93.4846 65.2584 93.484 65.2572C93.4834 65.256 93.483 65.2546 93.4828 65.2532V63.7937C93.4828 63.7909 93.4836 63.7882 93.4852 63.7861C93.4868 63.7839 93.489 63.7825 93.4915 63.7819H97.6198C97.6211 63.7823 97.6225 63.7823 97.6238 63.782C97.6252 63.7817 97.6264 63.7811 97.6274 63.7801C97.6285 63.7792 97.6293 63.778 97.6299 63.7767C97.6305 63.7754 97.6307 63.7739 97.6307 63.7725V62.379C97.6309 62.3776 97.6307 62.3762 97.6304 62.3748C97.63 62.3735 97.6294 62.3722 97.6286 62.3711C97.6278 62.37 97.6268 62.3691 97.6257 62.3684C97.6245 62.3678 97.6233 62.3673 97.622 62.3672H92.001C91.9984 62.3672 91.9959 62.3683 91.9941 62.3703C91.9922 62.3723 91.9912 62.375 91.9912 62.3778V69.541C91.9914 69.5438 91.9925 69.5465 91.9942 69.5487C91.996 69.5508 91.9984 69.5522 92.001 69.5528H97.6416C97.6444 69.5528 97.6472 69.5515 97.6492 69.5493C97.6513 69.5471 97.6524 69.5441 97.6524 69.541V68.1498C97.6524 68.1467 97.6513 68.1437 97.6492 68.1415C97.6472 68.1393 97.6444 68.138 97.6416 68.138H93.4937C93.4924 68.1382 93.4911 68.1381 93.4899 68.1377C93.4886 68.1373 93.4875 68.1367 93.4865 68.1358C93.4854 68.1349 93.4846 68.1338 93.484 68.1326C93.4834 68.1314 93.483 68.13 93.4828 68.1286V66.596C93.4821 66.5929 93.4825 66.5896 93.4839 66.5868C93.4853 66.5839 93.4876 66.5818 93.4904 66.5807L93.4937 66.5819Z" fill="black"/>
<path d="M82.2217 62.6029C81.8129 62.4379 81.2833 62.3672 80.6085 62.3672H76.433C76.4314 62.3672 76.4298 62.3675 76.4284 62.3681C76.4269 62.3687 76.4256 62.3695 76.4244 62.3706C76.4233 62.3717 76.4224 62.373 76.4218 62.3745C76.4212 62.3759 76.4209 62.3774 76.4209 62.379V69.541C76.4214 69.5439 76.4228 69.5467 76.425 69.5488C76.4271 69.5509 76.43 69.5523 76.433 69.5528H78.0945C78.0977 69.5528 78.1008 69.5515 78.1031 69.5493C78.1053 69.5471 78.1066 69.5441 78.1066 69.541V67.3497C78.1065 67.3469 78.1075 67.3443 78.1092 67.3421C78.111 67.3399 78.1135 67.3385 78.1163 67.3379H80.6049C81.5723 67.3379 82.2906 67.1493 82.7719 66.7485C83.2556 66.3714 83.4974 65.736 83.4974 64.8626C83.4974 64.2272 83.4007 63.7322 83.1842 63.3785C82.9788 63.0081 82.6336 62.73 82.2217 62.6029ZM81.5481 65.6889C81.3304 65.8775 80.9943 65.9482 80.513 65.9482H78.1175C78.1146 65.9477 78.1119 65.9462 78.11 65.9441C78.108 65.942 78.1068 65.9393 78.1066 65.9364V63.7451C78.1068 63.7423 78.108 63.7396 78.11 63.7374C78.1119 63.7353 78.1146 63.7339 78.1175 63.7333H80.513C80.8758 63.7333 81.1382 63.7569 81.3304 63.8512C81.5024 63.9232 81.6462 64.0472 81.7404 64.2048C81.8226 64.3987 81.8637 64.6068 81.8613 64.8166C81.8601 65.2409 81.7404 65.5238 81.5481 65.6889Z" fill="black"/>
<path d="M64.6526 61.4207C64.031 61.094 63.2169 60.9307 62.2597 60.9307C61.2785 60.9307 60.4885 61.094 59.8668 61.4207C59.2691 61.7023 58.7776 62.2124 58.478 62.8621C58.1677 63.4936 58.0234 64.2763 58.0234 65.2291C58.0234 66.2077 58.1677 66.9985 58.478 67.6219C58.7843 68.2646 59.272 68.7726 59.8632 69.0647C60.4849 69.3914 61.2749 69.5533 62.2561 69.5533C63.2373 69.5533 64.0274 69.3914 64.649 69.0647C65.2485 68.7753 65.7453 68.2675 66.0607 67.6219C66.3722 66.9972 66.5153 66.2077 66.5153 65.2291C66.5153 64.2763 66.3722 63.4882 66.0607 62.8621C65.7537 62.2109 65.2558 61.7012 64.6526 61.4207ZM64.5324 66.729C64.4566 66.9224 64.3478 67.0968 64.2122 67.2424C64.0766 67.3879 63.917 67.5016 63.7424 67.577C63.3816 67.7676 62.8802 67.8765 62.2585 67.8765C61.7533 67.8899 61.2503 67.7976 60.7747 67.6042C60.4295 67.4248 60.1499 67.1155 59.9835 66.729C59.8179 66.2634 59.7362 65.765 59.743 65.2631C59.7358 64.751 59.8175 64.2423 59.9835 63.7659C60.1385 63.3779 60.4223 63.0747 60.7735 62.922C61.1342 62.7314 61.6152 62.6225 62.2573 62.6225C62.7702 62.6062 63.2812 62.6985 63.764 62.8948C64.1062 63.0671 64.3794 63.3777 64.53 63.7659C64.697 64.232 64.7788 64.7316 64.7705 65.2345C64.7805 65.7469 64.6987 66.2562 64.53 66.7318L64.5324 66.729Z" fill="black"/>
<path d="M110.898 68.0782V62.379C110.898 62.3775 110.898 62.3758 110.897 62.3743C110.896 62.3728 110.895 62.3714 110.894 62.3703C110.893 62.3692 110.891 62.3683 110.889 62.3678C110.888 62.3672 110.886 62.3671 110.884 62.3673H108.989C108.987 62.3673 108.985 62.3676 108.983 62.3682C108.982 62.3688 108.98 62.3696 108.979 62.3707C108.977 62.3718 108.976 62.3731 108.976 62.3745C108.975 62.376 108.975 62.3775 108.975 62.379V69.541C108.975 69.5439 108.977 69.5467 108.979 69.5488C108.982 69.5509 108.985 69.5523 108.989 69.5528H116.039C116.042 69.5522 116.045 69.5508 116.047 69.5487C116.05 69.5465 116.051 69.5438 116.051 69.541V68.1029C116.051 68.1001 116.05 68.0974 116.047 68.0952C116.045 68.0931 116.042 68.0917 116.039 68.0911H110.912C110.91 68.0913 110.908 68.0912 110.907 68.0908C110.905 68.0904 110.904 68.0898 110.902 68.0889C110.901 68.088 110.9 68.0869 110.899 68.0857C110.898 68.0845 110.898 68.0831 110.898 68.0817V68.0782Z" fill="black"/>
<path d="M116.034 39.7513L84.9464 36.4988H84.9389L76.4295 40.7872C76.427 40.788 76.4248 40.7896 76.4233 40.7916C76.4217 40.7937 76.4209 40.7961 76.4209 40.7987C76.4209 40.8012 76.4217 40.8037 76.4233 40.8057C76.4248 40.8078 76.427 40.8093 76.4295 40.8101H113.988L116.033 39.7814C116.037 39.7814 116.041 39.7799 116.044 39.7772C116.047 39.7745 116.049 39.7709 116.049 39.7669C116.05 39.7649 116.049 39.7629 116.049 39.761C116.048 39.7591 116.047 39.7574 116.045 39.7559C116.044 39.7544 116.042 39.7533 116.04 39.7525C116.039 39.7517 116.036 39.7513 116.034 39.7513Z" fill="black"/>
<path d="M86.5393 19.0703C91.017 19.0713 95.3111 20.806 98.4771 23.8929C101.643 26.9797 103.422 31.166 103.422 35.5312C103.422 35.8099 103.416 36.0861 103.401 36.3623L104.701 36.4991C104.719 36.1786 104.728 35.8568 104.728 35.5312C104.723 31.3403 103.195 27.2867 100.417 24.0889C97.638 20.8912 93.7875 18.7559 89.5479 18.0617C85.3082 17.3675 80.9534 18.1592 77.2555 20.2965C73.5575 22.4337 70.7553 25.7784 69.3457 29.7376H70.7324C71.9424 26.604 74.1036 23.9043 76.9276 21.9985C79.7517 20.0926 83.1045 19.0712 86.5393 19.0703Z" fill="black"/>
<path d="M86.8159 52.4896C84.6865 52.4906 82.5778 52.0657 80.6102 51.2392C78.6426 50.4126 76.8548 49.2007 75.3487 47.6725C73.8427 46.1443 72.648 44.3299 71.8329 42.3329C71.0177 40.3359 70.5982 38.1955 70.5982 36.0338C70.5982 35.754 70.6057 35.4766 70.6194 35.1993L69.3719 35.0625C69.3544 35.3842 69.3457 35.7079 69.3457 36.0338C69.35 40.2241 70.8162 44.2773 73.4841 47.4746C76.152 50.672 79.8492 52.8068 83.9199 53.5004C87.9907 54.194 92.1719 53.4015 95.7219 51.2636C99.2719 49.1257 101.961 45.7805 103.313 41.8213H101.986C100.825 44.9541 98.7515 47.6534 96.0413 49.5594C93.3311 51.4654 90.1129 52.4875 86.8159 52.4896Z" fill="black"/>
<path d="M89.1256 36.4994H89.1319L97.6436 30.7816C97.6452 30.7809 97.6467 30.7797 97.6479 30.7783C97.6491 30.7768 97.6501 30.7751 97.6508 30.7731C97.6515 30.7712 97.6519 30.7691 97.652 30.7669C97.652 30.7648 97.6517 30.7626 97.6511 30.7606C97.6506 30.7584 97.6496 30.7563 97.6483 30.7546C97.647 30.7529 97.6454 30.7517 97.6436 30.751H60.0753L58.032 32.1265C58.0295 32.1275 58.0274 32.1296 58.0258 32.1323C58.0243 32.1351 58.0234 32.1384 58.0234 32.1418C58.0234 32.1452 58.0243 32.1485 58.0258 32.1512C58.0274 32.154 58.0295 32.156 58.032 32.1571L89.1256 36.4994Z" fill="black"/>
</svg>
