<svg width="176" height="89" viewBox="0 0 176 89" fill="none" xmlns="http://www.w3.org/2000/svg">
<path fill-rule="evenodd" clip-rule="evenodd" d="M134.949 42.4304C134.949 48.4715 131.384 52.301 125.598 52.4459C119.886 52.5878 116.303 49.1832 116.169 43.4369C116.033 37.7274 119.767 33.7867 125.43 33.6468C131.092 33.5038 134.949 37.0604 134.949 42.4304ZM105.673 48.9162H114.207V51.6478H101.048V34.2969H114.207V36.8231H105.673V41.1738H112.568V43.2801H105.673V48.9162ZM48.8493 48.8536H57.3812V51.6468H44.2221V34.2959H57.3822V36.7596H48.8503V41.1083H55.7423V43.2156H48.8503L48.8493 48.8536ZM68.7842 52.4459H68.8125C71.9163 52.4459 73.7478 51.6081 75.3926 49.9356C76.3783 48.935 76.9895 47.7201 76.9895 44.8772V34.2959H72.4492C72.4492 34.2959 72.4433 43.5233 72.4433 46.1974C72.4433 48.5648 70.9228 50.0825 68.8125 50.0825H68.793C66.6769 50.0825 65.0937 48.6462 65.0937 46.0038C65.0937 43.3595 65.0888 34.2969 65.0888 34.2969H60.5486V44.773C60.5486 47.7121 61.2565 49.0611 62.2422 50.0636C63.889 51.7401 65.6941 52.4459 68.7939 52.4459H68.7842ZM24.9063 34.2969H33.9936C37.4415 34.2969 38.2277 34.421 39.4687 34.965C41.043 35.63 42.1989 37.6609 42.1989 39.3364C42.1989 44.3462 38.6424 45.2554 34.3945 45.2554H29.7917V51.6468H24.9053L24.9063 34.2969ZM29.778 43.2841H33.2524C35.6266 43.2841 37.2567 41.7783 37.2567 39.8655C37.2567 37.9686 35.5992 36.439 33.4704 36.439L29.778 36.4588V43.2841ZM151.404 36.7209H145.663V51.6478H141.01V36.7209H135.422V34.2969H151.404V36.7209ZM95.9748 36.8916L96.6505 34.7843C94.8013 33.9267 92.4867 33.6289 90.4791 33.6289C82.2015 33.6289 79.4801 39.2809 79.4801 43.0975C79.4801 48.0357 82.7207 52.4459 89.6255 52.4459C94.3886 52.4459 97.1101 50.8001 97.1101 50.8001V43.2255H92.5415L92.5395 49.7976C92.5395 49.7976 92.4818 49.8542 92.3811 49.9018C91.7983 50.1658 90.6376 50.3088 89.4494 50.14C86.4132 49.7043 84.4036 46.918 84.4036 43.163C84.4036 38.725 88.2672 36.3189 90.8517 36.2097C93.4431 36.1015 95.1543 36.6564 95.9748 36.8916ZM120.812 43.4955C120.914 47.8362 122.717 50.281 125.689 50.277C129.593 50.2711 130.41 45.6902 130.35 43.1004C130.252 38.8709 128.759 35.8762 125.603 35.8831C122.449 35.8901 120.701 38.7607 120.812 43.4955Z" fill="#333333"/>
</svg>
