<svg width="20" height="20" viewBox="0 0 20 20" fill="none" xmlns="http://www.w3.org/2000/svg">
<g id="class-lesson--class-lesson-education-teacher" clip-path="url(#clip0_142_881)">
<g id="class-lesson--class-lesson-education-teacher_2">
<path id="Vector" d="M9.07031 0.714294H18.0737C18.7434 0.714294 19.2863 1.25719 19.2863 1.92689V11.6107C19.2863 12.2804 18.7434 12.8233 18.0737 12.8233H10.7137" stroke="#81C7B9" stroke-linecap="round" stroke-linejoin="round"/>
<path id="Vector_2" d="M4.49783 5.71582C5.87897 5.71582 6.9986 4.59619 6.9986 3.21505C6.9986 1.83392 5.87897 0.714294 4.49783 0.714294C3.1167 0.714294 1.99707 1.83392 1.99707 3.21505C1.99707 4.59619 3.1167 5.71582 4.49783 5.71582Z" stroke="#656565" stroke-linecap="round" stroke-linejoin="round"/>
<path id="Vector_3" d="M12.8567 7.8964C12.8567 7.08575 12.1996 6.42859 11.3889 6.42859H4.49805C2.40811 6.42859 0.713869 8.12282 0.713867 10.2128V13.5714H2.33565L2.87625 19.2857H6.11984L7.36565 9.3642H11.3889C12.1996 9.3642 12.8567 8.70705 12.8567 7.8964Z" stroke="#656565" stroke-linecap="round" stroke-linejoin="round"/>
</g>
</g>
<defs>
<clipPath id="clip0_142_881">
<rect width="20" height="20" fill="white"/>
</clipPath>
</defs>
</svg>
