<svg width="20" height="20" viewBox="0 0 20 20" fill="none" xmlns="http://www.w3.org/2000/svg">
<g id="task-list--task-list-work">
<g id="task-list--task-list-work_2">
<path id="Vector" d="M16.7407 17.8572C16.7407 18.236 16.5902 18.5994 16.3223 18.8673C16.0543 19.1352 15.691 19.2857 15.3122 19.2857H2.45494C2.07605 19.2857 1.7127 19.1352 1.44478 18.8673C1.17688 18.5994 1.02637 18.236 1.02637 17.8572V2.14287C1.02637 1.76398 1.17688 1.40062 1.44478 1.13271C1.7127 0.864804 2.07605 0.714294 2.45494 0.714294H10.4346C10.8135 0.714294 11.1769 0.864804 11.4448 1.13271L16.3223 6.01017C16.5902 6.27807 16.7407 6.64144 16.7407 7.02031V17.8572Z" stroke="#656565" stroke-linecap="round" stroke-linejoin="round"/>
<path id="Vector_2" d="M9.68164 9.10718H13.2531" stroke="#81C7B9" stroke-linecap="round" stroke-linejoin="round"/>
<path id="Vector_3" d="M9.68164 14.0625H13.2531" stroke="#81C7B9" stroke-linecap="round" stroke-linejoin="round"/>
<path id="Vector_4" d="M4.15723 13.9816L5.35421 15.1786L7.34918 12.3856" stroke="#81C7B9" stroke-linecap="round" stroke-linejoin="round"/>
<path id="Vector_5" d="M4.15723 8.93693L5.35421 10.1339L7.34918 7.34094" stroke="#81C7B9" stroke-linecap="round" stroke-linejoin="round"/>
</g>
</g>
</svg>
