<svg width="20" height="20" viewBox="0 0 20 20" fill="none" xmlns="http://www.w3.org/2000/svg">
<g id="book-reading--book-reading-learning" clip-path="url(#clip0_142_898)">
<g id="book-reading--book-reading-learning_2">
<path id="Vector" d="M10 19.2857V11.7857C10 11.3121 10.1881 10.8579 10.523 10.523C10.8579 10.1881 11.3121 10 11.7857 10C12.2593 10 12.7135 10.1881 13.0484 10.523C13.3833 10.8579 13.5714 11.3121 13.5714 11.7857V15.7143H16.4286C17.1863 15.7143 17.913 16.0153 18.4489 16.5511C18.9847 17.087 19.2857 17.8137 19.2857 18.5714V19.2857" stroke="#81C7B9" stroke-linecap="round" stroke-linejoin="round"/>
<path id="Vector_2" d="M8.93871 4.42164C7.158 2.46208 4.76847 1.16032 2.1564 0.726796C1.97867 0.701626 1.79761 0.714558 1.62527 0.764737C1.45291 0.814914 1.29321 0.901188 1.15677 1.01783C1.01787 1.13663 0.906365 1.28411 0.829913 1.45012C0.753461 1.61612 0.713879 1.79674 0.71389 1.97949V12.1656C0.711993 12.4784 0.826035 12.7809 1.03401 13.0146C1.24198 13.2482 1.52914 13.3966 1.84005 13.431C3.88021 13.7077 5.79871 14.515 7.41143 15.7562" stroke="#656565" stroke-linecap="round" stroke-linejoin="round"/>
<path id="Vector_3" d="M8.93945 8.36917V4.42175" stroke="#656565" stroke-linecap="round" stroke-linejoin="round"/>
<path id="Vector_4" d="M16.0372 13.431C16.348 13.3966 16.6352 13.2482 16.8432 13.0146C17.0512 12.7809 17.1652 12.4784 17.1633 12.1656V1.97949C17.1633 1.79674 17.1237 1.61612 17.0473 1.45012C16.9709 1.28411 16.8593 1.13663 16.7204 1.01783C16.584 0.901188 16.4243 0.814914 16.2519 0.764737C16.0796 0.714558 15.8986 0.701626 15.7207 0.726796C13.1087 1.16032 10.7192 2.46208 8.93848 4.42164" stroke="#656565" stroke-linecap="round" stroke-linejoin="round"/>
</g>
</g>
<defs>
<clipPath id="clip0_142_898">
<rect width="20" height="20" fill="white"/>
</clipPath>
</defs>
</svg>
