<svg width="20" height="20" viewBox="0 0 20 20" fill="none" xmlns="http://www.w3.org/2000/svg">
<g id="office-worker--office-worker-human-resources" clip-path="url(#clip0_142_904)">
<g id="office-worker--office-worker-human-resources_2">
<path id="Vector" d="M5.75558 6.42852C7.33354 6.42852 8.61272 5.14933 8.61272 3.57138C8.61272 1.99342 7.33354 0.714233 5.75558 0.714233C4.17762 0.714233 2.89844 1.99342 2.89844 3.57138C2.89844 5.14933 4.17762 6.42852 5.75558 6.42852Z" stroke="#656565" stroke-linecap="round" stroke-linejoin="round"/>
<path id="Vector_2" d="M8.16498 15.0349L7.63365 19.2856H3.89481L3.18052 13.5713H0.755859V11.4285C0.755859 10.1024 1.28264 8.83061 2.22032 7.89294C3.15801 6.95525 4.42978 6.42847 5.75586 6.42847C7.08194 6.42847 8.35371 6.95525 9.29139 7.89294C10.0126 8.61415 10.4908 9.53302 10.6731 10.5222" stroke="#656565" stroke-linecap="round" stroke-linejoin="round"/>
<path id="Vector_3" d="M10.4209 14.2436C10.4209 13.5474 10.9853 12.983 11.6814 12.983H17.984C18.6802 12.983 19.2444 13.5474 19.2444 14.2436V18.0251C19.2444 18.7213 18.6802 19.2856 17.984 19.2856H11.6814C10.9853 19.2856 10.4209 18.7213 10.4209 18.0251V14.2436Z" stroke="#81C7B9" stroke-linecap="round" stroke-linejoin="round"/>
<path id="Vector_4" d="M13.1084 12.9831V12.0532C13.1084 11.2642 13.748 10.6246 14.537 10.6246H15.1264C15.9153 10.6246 16.555 11.2642 16.555 12.0532V12.9831" stroke="#81C7B9" stroke-linecap="round" stroke-linejoin="round"/>
</g>
</g>
<defs>
<clipPath id="clip0_142_904">
<rect width="20" height="20" fill="white"/>
</clipPath>
</defs>
</svg>
