<svg width="20" height="20" viewBox="0 0 20 20" fill="none" xmlns="http://www.w3.org/2000/svg">
<g id="ai-vehicle-spark-1--car-automated-transportation-artificial-intelligence-ai" clip-path="url(#clip0_142_910)">
<g id="ai-vehicle-spark-1--car-automated-transportation-artificial-intelligence-ai_2">
<path id="Vector" d="M7.87491 7.09044H6.81387C6.50234 7.07419 6.19407 7.16034 5.93611 7.33576C5.67815 7.51117 5.4847 7.76619 5.3853 8.06187L4.2853 11.3762H2.14244C1.76355 11.3762 1.40019 11.5267 1.13229 11.7946C0.864377 12.0625 0.713867 12.4259 0.713867 12.8047V15.6619C0.713867 16.0408 0.864377 16.4041 1.13229 16.6721C1.40019 16.9399 1.76355 17.0905 2.14244 17.0905H2.85672" stroke="#656565" stroke-linecap="round" stroke-linejoin="round"/>
<path id="Vector_2" d="M17.1426 11.3762H17.8569C18.2357 11.3762 18.5991 11.5267 18.867 11.7946C19.1349 12.0626 19.2854 12.4259 19.2854 12.8048V15.662C19.2854 16.0408 19.1349 16.4041 18.867 16.6721C18.5991 16.94 18.2357 17.0905 17.8569 17.0905H17.1426" stroke="#656565" stroke-linecap="round" stroke-linejoin="round"/>
<path id="Vector_3" d="M14.9978 19.2333C13.8136 19.2333 12.8535 18.2732 12.8535 17.0889C12.8535 15.9046 13.8136 14.9446 14.9978 14.9446C16.1822 14.9446 17.1422 15.9046 17.1422 17.0889C17.1422 18.2732 16.1822 19.2333 14.9978 19.2333Z" stroke="#656565" stroke-linecap="round" stroke-linejoin="round"/>
<path id="Vector_4" d="M4.99789 19.2333C3.81359 19.2333 2.85352 18.2733 2.85352 17.0889C2.85352 15.9046 3.81359 14.9446 4.99789 14.9446C6.18219 14.9446 7.14226 15.9046 7.14226 17.0889C7.14226 18.2733 6.18219 19.2333 4.99789 19.2333Z" stroke="#656565" stroke-linecap="round" stroke-linejoin="round"/>
<path id="Vector_5" d="M12.8539 17.0906H7.14258" stroke="#656565" stroke-linecap="round" stroke-linejoin="round"/>
<path id="Vector 2136" d="M10.5938 5.6726C10.0924 5.58539 10.0924 4.86572 10.5938 4.7785C12.41 4.46252 13.8545 3.07915 14.2488 1.27828L14.279 1.14024C14.3874 0.644766 15.093 0.641683 15.2057 1.13619L15.2424 1.29706C15.6513 3.08943 17.0961 4.46112 18.9073 4.77622C19.4113 4.86387 19.4113 5.58723 18.9073 5.67489C17.0961 5.98999 15.6513 7.36168 15.2424 9.15405L15.2057 9.31492C15.093 9.80942 14.3874 9.80635 14.279 9.31086L14.2488 9.17282C13.8545 7.37196 12.41 5.98859 10.5938 5.6726Z" stroke="#81C7B9" stroke-linecap="round" stroke-linejoin="round"/>
</g>
</g>
<defs>
<clipPath id="clip0_142_910">
<rect width="20" height="20" fill="white"/>
</clipPath>
</defs>
</svg>
