<svg width="20" height="20" viewBox="0 0 20 20" fill="none" xmlns="http://www.w3.org/2000/svg">
<g id="dollar-coin-1--accounting-billing-payment-cash-coin-currency-money-finance" clip-path="url(#clip0_142_918)">
<g id="dollar-coin-1--accounting-billing-payment-cash-coin-currency-money-finance_2">
<path id="Vector 3" d="M14.0092 6.05584C13.9452 5.87498 13.8466 5.71051 13.7212 5.57045C13.4546 5.27255 13.0671 5.08508 12.6359 5.08508H11.5088C10.7909 5.08508 10.209 5.66703 10.209 6.38487C10.209 6.9957 10.6343 7.52411 11.231 7.65464L12.947 8.03003C13.6155 8.17625 14.092 8.76865 14.092 9.45294C14.092 10.2571 13.4401 10.9096 12.6359 10.9096H11.6651C11.0311 10.9096 10.4917 10.5044 10.2918 9.93885" stroke="#656565" stroke-linecap="round" stroke-linejoin="round"/>
<path id="Vector 2489" d="M12.1504 5.08517V3.62903" stroke="#656565" stroke-linecap="round" stroke-linejoin="round"/>
<path id="Vector 2490" d="M12.1504 12.3658V10.9097" stroke="#656565" stroke-linecap="round" stroke-linejoin="round"/>
<path id="Ellipse 19" d="M12.1502 14.9843C16.0091 14.9843 19.1374 11.856 19.1374 7.99715C19.1374 4.13826 16.0091 1.01001 12.1502 1.01001C8.29134 1.01001 5.16309 4.13826 5.16309 7.99715C5.16309 11.856 8.29134 14.9843 12.1502 14.9843Z" stroke="#656565" stroke-linecap="round" stroke-linejoin="round"/>
<path id="Ellipse 20" d="M1.71892 8.76257C1.18254 9.75154 0.87793 10.8845 0.87793 12.0886C0.87793 15.9473 4.00595 19.0753 7.86453 19.0753C8.95806 19.0753 9.99292 18.824 10.9145 18.3762" stroke="#81C7B9" stroke-linecap="round" stroke-linejoin="round"/>
</g>
</g>
<defs>
<clipPath id="clip0_142_918">
<rect width="20" height="20" fill="white"/>
</clipPath>
</defs>
</svg>
